<svg width="496" height="64" viewBox="0 0 496 64" fill="none" xmlns="http://www.w3.org/2000/svg">
<path d="M15.6037 40.8211C16.2846 40.5923 16.9096 40.4137 17.5067 40.1709C17.9475 39.991 17.9894 39.7357 17.6434 39.3241C16.7798 38.2959 15.9372 37.244 15.1698 36.1432C14.8448 35.6759 14.7276 35.0648 14.609 34.4537C16.8538 34.8569 18.1931 36.5129 19.8086 37.982C20.0291 37.6653 20.2983 37.4184 20.3918 37.117C20.6513 36.2786 20.8843 35.4261 21.0335 34.564C21.1047 34.151 21.2456 33.9208 21.5986 33.7046C22.1678 33.3544 22.7314 32.9665 23.2099 32.5048C23.8294 31.9076 23.8196 31.3538 23.2141 30.7469C22.7914 30.3228 22.3101 29.9363 21.7981 29.628C21.3809 29.3769 21.2609 29.0616 21.1982 28.6193C21.0893 27.8409 20.9861 27.047 20.7448 26.3048C20.456 25.4189 20.0946 25.3855 19.418 25.9923C18.6256 26.7038 17.8527 27.4586 16.9737 28.0487C16.3445 28.4715 15.5549 28.6542 14.8364 28.9444C14.7541 28.8691 14.6704 28.7937 14.5881 28.7184C14.8127 28.1129 14.9187 27.4223 15.2856 26.9215C15.9958 25.9533 16.8496 25.0911 17.6504 24.1898C18.3772 23.3709 18.32 23.1379 17.2542 22.7989C16.7296 22.6315 16.1897 22.5087 15.6261 22.3566C16.0251 20.2291 16.7477 18.2564 17.6699 16.352C19.2213 13.1447 21.1675 10.2247 23.8252 7.80971C24.0833 7.57533 24.1809 7.16377 24.3525 6.83452C23.9647 6.78988 23.4848 6.57503 23.203 6.72849C22.0492 7.35211 20.8564 7.96876 19.8602 8.80443C15.8172 12.1918 13.0242 16.4832 11.1379 21.3787C10.9426 21.8837 10.7152 22.0734 10.1516 22.0985C9.13595 22.1418 8.12449 22.3162 7.11581 22.4613C6.87027 22.4962 6.62613 22.6106 6.4057 22.7319C5.82812 23.0514 5.81556 23.2914 6.21735 23.802C7.02094 24.8218 7.83709 25.8361 8.56395 26.9089C8.88901 27.3888 9.00899 28.0055 9.22245 28.5607C9.15967 28.6403 9.09689 28.7184 9.03411 28.7979C8.46629 28.5608 7.81616 28.4282 7.34601 28.0655C6.41267 27.3442 5.577 26.4974 4.70225 25.6994C3.96144 25.0241 3.64336 25.066 3.33643 26.016C3.07554 26.828 2.90813 27.6776 2.78396 28.5217C2.72258 28.9416 2.5733 29.1565 2.20498 29.3629C1.60229 29.702 1.02611 30.1038 0.494566 30.5474C-0.0272083 30.9841 -0.0913849 31.5965 0.355055 32.096C0.858694 32.6596 1.44325 33.166 2.05571 33.6111C2.41426 33.872 2.56911 34.1343 2.62073 34.564C2.71141 35.3215 2.84953 36.0777 3.03229 36.8185C3.10902 37.1296 3.3462 37.4002 3.54849 37.756C5.31611 36.3665 6.77261 34.6965 9.10386 34.204C8.91691 36.7013 6.84237 37.8383 5.45562 39.6673C6.09319 39.9561 6.63729 40.2965 7.22882 40.4472C8.12449 40.6774 9.04806 40.8281 9.96884 40.9104C10.5436 40.962 10.7961 41.1782 10.9859 41.7167C12.6698 46.5229 15.1936 50.8157 18.9325 54.3231C19.7765 55.1141 20.728 55.7935 21.6613 56.4827C22.0087 56.7394 22.4342 56.9166 22.85 57.0422C23.0523 57.1035 23.4108 57.0324 23.5224 56.8873C23.6201 56.7589 23.5448 56.3878 23.4178 56.2204C22.9435 55.5898 22.4342 54.983 21.9083 54.3942C18.5293 50.6246 16.4743 46.2272 15.6372 41.2466C15.6149 41.1113 15.6135 40.9731 15.6009 40.8197L15.6037 40.8211ZM21.2498 54.8532C21.1493 54.9313 21.0503 55.0095 20.9498 55.089C19.7179 53.8404 18.401 52.6657 17.2709 51.3305C14.5616 48.1315 12.8763 44.3661 11.5635 40.4249C11.4128 39.9714 11.1993 39.8054 10.7334 39.7957C9.87536 39.7761 9.01876 39.7078 8.16355 39.6296C7.91661 39.6073 7.68084 39.4762 7.42274 39.3897C8.41188 38.2164 9.32848 37.1282 10.2548 36.0288C10.4557 36.3399 10.6622 36.6999 10.9064 37.0319C11.6458 38.0364 12.095 38.028 12.7884 37.0096C13.0172 36.6734 13.2278 36.3274 13.405 36.0526C14.3216 37.2105 15.2187 38.3433 16.1715 39.5459C15.8911 39.6352 15.6191 39.7343 15.3401 39.8096C15.0373 39.8919 14.7304 39.9519 14.4514 40.0147C15.4656 45.577 17.2625 50.7125 21.2498 54.8546V54.8532ZM14.5769 23.0793C15.2494 23.2356 15.8423 23.3737 16.4743 23.5202C15.4 24.7535 14.4081 25.8891 13.4259 27.0163C13.2055 26.669 12.9809 26.2588 12.7019 25.8905C12.0908 25.0799 11.4309 25.1022 10.8771 25.9519C10.6469 26.3034 10.4781 26.6955 10.3274 26.9815C9.46241 25.8291 8.60999 24.6949 7.64735 23.4141C8.66719 23.3263 9.59355 23.1212 10.492 23.2049C11.357 23.2858 11.6151 22.9649 11.8746 22.2241C13.5948 17.3105 16.2511 13.0079 20.2927 9.64151C20.7768 9.23832 21.2875 8.86582 21.7855 8.47937C18.0438 12.7136 15.5186 17.4891 14.5769 23.0779V23.0793ZM11.9136 28.5356C13.6073 28.5635 14.9522 29.9029 14.9355 31.5435C14.9187 33.2121 13.4999 34.61 11.8439 34.5877C10.1907 34.5667 8.77601 33.1186 8.80112 31.4766C8.82623 29.8554 10.252 28.5077 11.9136 28.5356ZM7.71432 33.1674C6.98328 33.8413 6.30525 34.5012 5.58676 35.1122C5.25751 35.3927 4.86269 35.6103 4.46927 35.7972C4.07724 35.9842 3.78705 35.8503 3.7452 35.3773C3.69219 34.7774 3.68382 34.1719 3.58616 33.5804C3.5443 33.3279 3.37549 33.0475 3.18018 32.8787C2.81465 32.5634 2.37379 32.3359 1.98735 32.043C1.20747 31.4514 1.23956 31.1292 2.1157 30.6465C2.41983 30.479 2.72816 30.3019 3.0574 30.207C3.48571 30.0828 3.60429 29.8387 3.64754 29.4118C3.72846 28.6012 3.90006 27.8004 4.05491 26.8671C5.37749 27.972 6.53684 28.9402 7.71153 29.921C7.36554 30.1233 6.91631 30.3521 6.50056 30.6325C5.45422 31.3384 5.47933 31.9509 6.5773 32.5982C6.93445 32.8089 7.3195 32.9721 7.71572 33.1688L7.71432 33.1674ZM19.8868 27.2703C19.9565 27.8325 20.1114 28.4003 20.0737 28.9542C20.0207 29.7327 20.3192 30.1568 20.9875 30.5335C21.4995 30.8222 21.8734 31.3552 22.3101 31.7793C21.8009 32.1406 21.3279 32.5815 20.7713 32.841C20.2927 33.0642 20.0653 33.286 20.036 33.8385C19.9956 34.5988 19.8198 35.3508 19.6845 36.2283C18.3382 35.1136 17.1635 34.1398 15.9999 33.1772C16.4031 32.9512 16.9026 32.7084 17.363 32.4043C18.2363 31.8267 18.2391 31.2101 17.3658 30.6199C16.9556 30.3437 16.491 30.1484 16.1646 29.9768C17.356 29.1104 18.5753 28.2245 19.8868 27.2689V27.2703Z" fill="url(#paint0_linear_254_67782)"/>
<path d="M39.2119 24.0518L40.0908 21.6104L47.4639 17.9238L46.6338 20.3408L39.2119 24.0518ZM53.5918 33.1396C54.2103 34.3929 54.6579 35.6543 54.9346 36.9238C55.2113 38.1934 55.3496 39.3896 55.3496 40.5127C55.3496 42.5146 54.9102 44.362 54.0312 46.0547C53.1523 47.7637 51.9072 49.1309 50.2959 50.1562C48.7008 51.1979 46.8047 51.7188 44.6074 51.7188C42.4427 51.7188 40.7337 51.0596 39.4805 49.7412C38.2435 48.4229 37.625 46.6569 37.625 44.4434C37.625 43.4017 37.7471 42.3682 37.9912 41.3428C38.2516 40.3174 38.569 39.3896 38.9434 38.5596C39.3177 37.7132 39.6839 37.0703 40.042 36.6309L40.4814 36.8262C40.1885 37.5586 39.9362 38.3236 39.7246 39.1211C39.5293 39.9186 39.4316 40.7324 39.4316 41.5625C39.4316 43.5156 40.0339 44.8584 41.2383 45.5908C42.4427 46.3395 43.932 46.7139 45.7061 46.7139C46.6012 46.7139 47.6022 46.5999 48.709 46.3721C49.832 46.1605 50.8818 45.8024 51.8584 45.2979C52.835 44.8096 53.5592 44.1667 54.0312 43.3691L53.9092 43.8574C53.9255 42.6042 53.6976 41.4242 53.2256 40.3174C52.7536 39.2106 52.1188 38.1201 51.3213 37.0459L53.5918 33.1396ZM45.9014 28.4766C46.9756 29.2253 47.8545 30.1042 48.5381 31.1133L45.9014 33.7256C45.5596 33.221 45.1689 32.7572 44.7295 32.334C44.29 31.8945 43.8099 31.4876 43.2891 31.1133L45.9014 28.4766ZM62.1855 52.8174C61.4206 52.8174 60.5905 52.6628 59.6953 52.3535C58.8001 52.0443 57.9375 51.6374 57.1074 51.1328C56.2773 50.6445 55.5693 50.1481 54.9834 49.6436L55.1543 49.3018C55.8704 49.4482 56.6598 49.5215 57.5225 49.5215C58.6455 49.5215 59.9313 49.3587 61.3799 49.0332C62.8285 48.724 64.2282 48.2357 65.5791 47.5684C66.9463 46.9173 68.0693 46.1035 68.9482 45.127C69.8434 44.1504 70.291 43.0029 70.291 41.6846C70.291 40.3499 70.1201 39.2432 69.7783 38.3643C69.4528 37.4691 69.0703 36.8018 68.6309 36.3623C68.2077 35.9066 67.8577 35.6787 67.5811 35.6787C67.2555 35.6787 66.8975 35.874 66.5068 36.2646C66.1162 36.639 65.9209 36.9889 65.9209 37.3145C65.9209 37.4609 66.1162 37.6725 66.5068 37.9492C66.9137 38.2259 67.516 38.3643 68.3135 38.3643H73.7578C74.181 38.3643 74.4902 38.641 74.6855 39.1943C74.8809 39.7314 74.9785 40.2848 74.9785 40.8545C74.9785 41.4404 74.8809 42.0101 74.6855 42.5635C74.4902 43.1006 74.181 43.3691 73.7578 43.3691H68.4111C67.6299 43.3691 66.9544 43.1331 66.3848 42.6611C65.8151 42.1891 65.3675 41.5869 65.042 40.8545C64.7327 40.1221 64.5781 39.3734 64.5781 38.6084C64.5781 38.1852 64.6351 37.5586 64.749 36.7285C64.863 35.8822 65.0501 35.0195 65.3105 34.1406C65.5872 33.2454 65.9453 32.4886 66.3848 31.8701C66.8405 31.2354 67.3939 30.918 68.0449 30.918C68.6797 30.918 69.2168 31.2516 69.6562 31.9189C70.0957 32.57 70.4456 33.4326 70.7061 34.5068C70.9665 35.5811 71.1536 36.7611 71.2676 38.0469C71.3978 39.3164 71.4629 40.5697 71.4629 41.8066C71.4629 43.4993 71.1455 45.0212 70.5107 46.3721C69.8923 47.7393 69.0947 48.903 68.1182 49.8633C67.1416 50.8236 66.1243 51.556 65.0664 52.0605C64.0085 52.5651 63.0482 52.8174 62.1855 52.8174ZM74.5391 19.8262L73.8799 18.8008C74.8727 18.3613 75.8818 17.7428 76.9072 16.9453C77.9326 16.1478 78.7952 15.3096 79.4951 14.4307C80.195 13.5518 80.5449 12.7705 80.5449 12.0869C80.5449 11.7614 80.4473 11.5173 80.252 11.3545C80.0729 11.1755 79.8695 11.0859 79.6416 11.0859C79.43 11.0859 79.1615 11.2161 78.8359 11.4766C78.5267 11.737 78.3721 12.1357 78.3721 12.6729C78.3721 13.096 78.6081 13.4948 79.0801 13.8691C79.5684 14.2435 80.61 14.8538 82.2051 15.7002L81.0332 17.4336C79.7637 16.6849 78.722 15.9606 77.9082 15.2607C77.1107 14.5446 76.7119 13.7552 76.7119 12.8926C76.7119 12.0462 76.8991 11.4033 77.2734 10.9639C77.6478 10.5081 78.0954 10.1989 78.6162 10.0361C79.1533 9.8571 79.6579 9.76758 80.1299 9.76758C80.6833 9.76758 81.1309 9.91406 81.4727 10.207C81.8145 10.4837 81.9854 10.8906 81.9854 11.4277C81.9854 12.4531 81.5947 13.5111 80.8135 14.6016C80.0485 15.6921 79.0882 16.7012 77.9326 17.6289C76.7933 18.5404 75.6621 19.2728 74.5391 19.8262ZM78.6162 19.582C78.6162 21.3724 78.4046 22.7721 77.9814 23.7812C77.5745 24.7741 77.0944 25.3682 76.541 25.5635C75.9876 25.7425 75.4993 25.5146 75.0762 24.8799C74.653 24.2288 74.4414 23.1546 74.4414 21.6572L75.3203 21.2178C75.3203 22.4222 75.5238 23.1302 75.9307 23.3418C76.3376 23.5534 76.7445 23.3581 77.1514 22.7559C77.542 22.1536 77.7373 21.2422 77.7373 20.0215L78.6162 19.582ZM81.9121 17.9463C81.9121 19.7367 81.7005 21.1364 81.2773 22.1455C80.8704 23.1383 80.3903 23.7324 79.8369 23.9277C79.2835 24.1068 78.7952 23.8789 78.3721 23.2441C77.9489 22.5931 77.7373 21.5189 77.7373 20.0215L78.6162 19.582C78.6162 20.7865 78.8197 21.4945 79.2266 21.7061C79.6335 21.9176 80.0322 21.7223 80.4229 21.1201C80.8298 20.5179 81.0332 19.6064 81.0332 18.3857L81.9121 17.9463ZM73.7578 43.3691C73.3997 43.3691 73.1149 43.125 72.9033 42.6367C72.6755 42.1322 72.5615 41.5381 72.5615 40.8545C72.5615 40.1872 72.6755 39.6094 72.9033 39.1211C73.1149 38.6165 73.3997 38.3643 73.7578 38.3643H73.8799C75.1982 38.3643 76.2155 38.2503 76.9316 38.0225C77.6641 37.7946 78.2256 37.3796 78.6162 36.7773C79.0068 36.1589 79.373 35.2799 79.7148 34.1406L80.1055 34.2139C80.0404 34.637 80.0078 35.0358 80.0078 35.4102C80.0078 36.6146 80.3659 37.4121 81.082 37.8027C81.7982 38.1771 82.8887 38.3643 84.3535 38.3643H84.4756C84.8662 38.3643 85.1836 38.6165 85.4277 39.1211C85.6719 39.6094 85.7939 40.1872 85.7939 40.8545C85.7939 41.5381 85.6719 42.1322 85.4277 42.6367C85.1999 43.125 84.8825 43.3691 84.4756 43.3691H83.9873C82.3271 43.3691 81.082 43.068 80.252 42.4658C79.4219 41.8473 78.7708 40.9521 78.2988 39.7803L79.2021 39.9756C78.6325 40.9359 77.9326 41.7415 77.1025 42.3926C76.2887 43.0436 75.3366 43.3691 74.2461 43.3691H73.7578ZM78.7139 46.8359C79.7881 47.5846 80.667 48.4635 81.3506 49.4727L78.7139 52.085C78.3721 51.5804 77.9814 51.1084 77.542 50.6689C77.1025 50.2458 76.6224 49.847 76.1016 49.4727L78.7139 46.8359ZM87.2344 54.1162L88.1133 51.6748L95.4863 47.9883L94.6562 50.4053L87.2344 54.1162ZM84.5732 43.3691C84.1338 43.3691 83.8164 43.125 83.6211 42.6367C83.4258 42.1322 83.3281 41.5381 83.3281 40.8545C83.3281 40.1872 83.4258 39.6094 83.6211 39.1211C83.8001 38.6165 84.0931 38.3643 84.5 38.3643C86.2578 38.3643 87.6982 38.2503 88.8213 38.0225C89.9606 37.7783 90.9616 37.4528 91.8242 37.0459C92.7031 36.6227 93.6146 36.1589 94.5586 35.6543C95.5026 35.1335 96.6501 34.5964 98.001 34.043C99.3682 33.4896 101.126 32.9525 103.274 32.4316L102.225 35.9473C100.434 36.224 98.9043 36.2565 97.6348 36.0449C96.3652 35.8333 95.2585 35.5241 94.3145 35.1172C93.3867 34.694 92.5322 34.3034 91.751 33.9453C90.986 33.5872 90.221 33.4082 89.4561 33.4082C88.6748 33.4082 87.9993 33.5628 87.4297 33.8721C86.86 34.165 86.3473 34.5557 85.8916 35.0439L85.4766 34.873C85.6393 33.8965 85.9404 32.9688 86.3799 32.0898C86.8356 31.1947 87.4053 30.4704 88.0889 29.917C88.7725 29.3636 89.5618 29.0869 90.457 29.0869C91.401 29.0869 92.2881 29.2741 93.1182 29.6484C93.9645 30.0065 94.8678 30.3971 95.8281 30.8203C96.8047 31.2435 97.9521 31.5527 99.2705 31.748C100.589 31.9434 102.192 31.8783 104.08 31.5527L102.786 36.3379C101.061 36.7285 99.5879 37.2168 98.3672 37.8027C97.1628 38.3887 96.0723 39.0072 95.0957 39.6582C94.1191 40.293 93.1426 40.8952 92.166 41.4648C91.2057 42.0182 90.1234 42.474 88.9189 42.832C87.7145 43.1901 86.266 43.3691 84.5732 43.3691ZM105.057 43.3691C103.038 43.3691 101.565 42.7832 100.638 41.6113C99.7262 40.4232 99.1973 38.4863 99.0508 35.8008L100.149 35.5078C100.296 36.8262 100.719 37.6318 101.419 37.9248C102.119 38.2178 103.331 38.3643 105.057 38.3643C105.529 38.3643 105.862 38.641 106.058 39.1943C106.253 39.7314 106.351 40.2848 106.351 40.8545C106.351 41.4404 106.253 42.0101 106.058 42.5635C105.862 43.1006 105.529 43.3691 105.057 43.3691ZM104.764 18.6123L104.104 17.5869C105.097 17.1475 106.106 16.529 107.132 15.7314C108.157 14.9339 109.02 14.0957 109.72 13.2168C110.42 12.3379 110.77 11.5566 110.77 10.873C110.77 10.5475 110.672 10.3034 110.477 10.1406C110.298 9.96159 110.094 9.87207 109.866 9.87207C109.655 9.87207 109.386 10.0023 109.061 10.2627C108.751 10.5231 108.597 10.9219 108.597 11.459C108.597 11.8822 108.833 12.2809 109.305 12.6553C109.793 13.0296 110.835 13.64 112.43 14.4863L111.258 16.2197C109.988 15.471 108.955 14.7467 108.157 14.0469C107.343 13.3307 106.937 12.5413 106.937 11.6787C106.937 10.8324 107.124 10.1895 107.498 9.75C107.872 9.29427 108.32 8.98503 108.841 8.82227C109.378 8.64323 109.882 8.55371 110.354 8.55371C110.908 8.55371 111.355 8.7002 111.697 8.99316C112.039 9.26986 112.21 9.67676 112.21 10.2139C112.21 11.2393 111.819 12.2972 111.038 13.3877C110.273 14.4782 109.321 15.4873 108.182 16.415C107.026 17.3265 105.887 18.0589 104.764 18.6123ZM105.057 38.3643H106.619C108.084 38.3643 109.199 38.2178 109.964 37.9248C110.729 37.6156 111.111 37.3389 111.111 37.0947C111.111 36.6715 110.973 36.2484 110.696 35.8252C110.436 35.3857 110.102 35.0033 109.695 34.6777L111.331 30.4785C111.819 31.1458 112.169 31.9027 112.381 32.749C112.592 33.5954 112.698 34.4336 112.698 35.2637C112.698 36.7122 112.43 38.055 111.893 39.292C111.355 40.5127 110.59 41.4974 109.598 42.2461C108.621 42.9948 107.449 43.3691 106.082 43.3691H105.057C104.65 43.3691 104.349 43.0843 104.153 42.5146C103.958 41.945 103.86 41.3672 103.86 40.7812C103.86 40.2116 103.958 39.6663 104.153 39.1455C104.349 38.6247 104.65 38.3643 105.057 38.3643ZM107.547 22.4951C108.621 23.2438 109.5 24.1227 110.184 25.1318L107.547 27.7441C107.205 27.2396 106.814 26.7757 106.375 26.3525C105.936 25.9131 105.455 25.5062 104.935 25.1318L107.547 22.4951ZM112.332 22.4951C113.406 23.2438 114.285 24.1227 114.969 25.1318L112.332 27.7441C111.99 27.2396 111.6 26.7757 111.16 26.3525C110.721 25.9131 110.241 25.5062 109.72 25.1318L112.332 22.4951ZM131.619 43.3691C129.21 43.3691 127.428 42.4984 126.272 40.7568C125.117 39.0153 124.458 36.3623 124.295 32.7979L123.709 19.3213L125.711 16.6846L126.175 31.748C126.24 34.2057 126.712 35.9229 127.591 36.8994C128.486 37.876 129.829 38.3643 131.619 38.3643C132.091 38.3643 132.449 38.641 132.693 39.1943C132.938 39.7314 133.06 40.2848 133.06 40.8545C133.06 41.4404 132.938 42.0101 132.693 42.5635C132.449 43.1006 132.091 43.3691 131.619 43.3691ZM139.407 19.582C139.407 21.3724 139.196 22.7721 138.772 23.7812C138.366 24.7741 137.885 25.3682 137.332 25.5635C136.779 25.7425 136.29 25.5146 135.867 24.8799C135.444 24.2288 135.232 23.1546 135.232 21.6572L136.111 21.2178C136.111 22.4222 136.315 23.1302 136.722 23.3418C137.129 23.5534 137.535 23.3581 137.942 22.7559C138.333 22.1536 138.528 21.2422 138.528 20.0215L139.407 19.582ZM142.703 17.9463C142.703 19.7367 142.492 21.1364 142.068 22.1455C141.661 23.1383 141.181 23.7324 140.628 23.9277C140.075 24.1068 139.586 23.8789 139.163 23.2441C138.74 22.5931 138.528 21.5189 138.528 20.0215L139.407 19.582C139.407 20.7865 139.611 21.4945 140.018 21.7061C140.424 21.9176 140.823 21.7223 141.214 21.1201C141.621 20.5179 141.824 19.6064 141.824 18.3857L142.703 17.9463ZM135.037 20.2656L135.916 17.8242L143.289 14.1377L142.459 16.5547L135.037 20.2656ZM139.627 33.2617C140.229 33.2617 140.709 33.4326 141.067 33.7744C141.442 34.1162 141.792 34.5394 142.117 35.0439C142.443 35.5485 142.841 36.0612 143.313 36.582C143.802 37.0866 144.453 37.5098 145.267 37.8516C146.097 38.1934 147.195 38.3643 148.562 38.3643C149.051 38.3643 149.417 38.641 149.661 39.1943C149.905 39.7314 150.027 40.2848 150.027 40.8545C150.027 41.4404 149.905 42.0101 149.661 42.5635C149.417 43.1006 149.051 43.3691 148.562 43.3691C147.195 43.3691 146.089 43.2308 145.242 42.9541C144.396 42.6611 143.761 42.1647 143.338 41.4648H143.606C143.606 42.3926 143.379 43.1494 142.923 43.7354C142.483 44.3213 142.076 44.6143 141.702 44.6143C140.4 44.6143 139.244 44.2806 138.235 43.6133C137.226 42.946 136.421 42.2542 135.818 41.5381L136.331 41.416C135.892 42.1484 135.265 42.6611 134.451 42.9541C133.637 43.2308 132.693 43.3691 131.619 43.3691C131.18 43.3691 130.862 43.0924 130.667 42.5391C130.472 41.9857 130.374 41.4242 130.374 40.8545C130.374 40.2686 130.472 39.707 130.667 39.1699C130.862 38.6328 131.18 38.3643 131.619 38.3643C133.019 38.3643 134.101 38.112 134.866 37.6074C135.647 37.0866 136.266 36.4925 136.722 35.8252C137.177 35.1416 137.609 34.5475 138.016 34.043C138.423 33.5221 138.96 33.2617 139.627 33.2617ZM137.649 37.6562C137.649 37.9818 137.877 38.3154 138.333 38.6572C138.805 38.999 139.318 39.2839 139.871 39.5117C140.441 39.7396 140.888 39.8535 141.214 39.8535C141.474 39.8535 141.604 39.7152 141.604 39.4385C141.604 39.2594 141.531 38.9339 141.385 38.4619C141.238 37.9736 141.051 37.4609 140.823 36.9238C140.612 36.3704 140.384 35.8984 140.14 35.5078C139.896 35.1172 139.676 34.9219 139.48 34.9219C139.253 34.9219 138.992 35.1172 138.699 35.5078C138.423 35.8984 138.178 36.3216 137.967 36.7773C137.755 37.2168 137.649 37.5098 137.649 37.6562ZM149.393 54.1162L150.271 51.6748L157.645 47.9883L156.814 50.4053L149.393 54.1162ZM148.562 43.3691C148.139 43.3691 147.822 43.1006 147.61 42.5635C147.399 42.0101 147.293 41.4404 147.293 40.8545C147.293 40.2848 147.399 39.7314 147.61 39.1943C147.822 38.641 148.139 38.3643 148.562 38.3643C150.206 38.3643 151.492 38.1934 152.42 37.8516C153.348 37.4935 154.178 36.6878 154.91 35.4346C155.382 34.6533 155.83 33.8965 156.253 33.1641C156.676 32.4316 157.132 31.8294 157.62 31.3574C158.125 30.8854 158.694 30.6494 159.329 30.6494C159.948 30.6494 160.501 31.0563 160.989 31.8701C161.494 32.6676 161.884 33.6849 162.161 34.9219C162.454 36.1426 162.601 37.3958 162.601 38.6816C162.601 39.528 162.389 40.2604 161.966 40.8789C161.543 41.4974 161.144 41.8066 160.77 41.8066C159.907 41.8066 159.02 41.6276 158.108 41.2695C157.197 40.8952 156.424 40.4639 155.789 39.9756C155.171 39.4873 154.845 39.0641 154.812 38.7061L156.839 34.873C156.725 35.166 156.896 35.4834 157.352 35.8252C157.824 36.167 158.361 36.4681 158.963 36.7285C159.565 36.9727 160.013 37.0947 160.306 37.0947C160.485 37.0947 160.574 37.0133 160.574 36.8506C160.574 36.6715 160.509 36.346 160.379 35.874C160.249 35.3857 160.078 34.873 159.866 34.3359C159.671 33.7826 159.459 33.3105 159.231 32.9199C159.004 32.513 158.784 32.3096 158.572 32.3096C158.1 32.3096 157.701 32.6839 157.376 33.4326C157.067 34.165 156.733 35.0846 156.375 36.1914C156.017 37.2819 155.537 38.3805 154.935 39.4873C154.349 40.5778 153.551 41.4974 152.542 42.2461C151.533 42.9948 150.206 43.3691 148.562 43.3691ZM174.051 20.2979L176.81 16.6846C176.728 19.2399 176.736 21.9906 176.834 24.9365C176.948 27.8662 176.98 30.7878 176.932 33.7012C176.899 36.5983 176.639 39.2757 176.15 41.7334C175.939 42.7425 175.361 43.3285 174.417 43.4912C174.482 40.6266 174.49 38.1608 174.441 36.0938C174.393 34.0104 174.327 32.1387 174.246 30.4785C174.165 28.8021 174.1 27.1663 174.051 25.5713C174.002 23.9762 174.002 22.2184 174.051 20.2979ZM182.596 52.8174C181.831 52.8174 181.001 52.6628 180.105 52.3535C179.21 52.0443 178.348 51.6374 177.518 51.1328C176.688 50.6445 175.979 50.1481 175.394 49.6436L175.564 49.3018C176.281 49.4482 177.07 49.5215 177.933 49.5215C179.056 49.5215 180.341 49.3587 181.79 49.0332C183.239 48.724 184.638 48.2357 185.989 47.5684C187.356 46.9173 188.479 46.1035 189.358 45.127C190.254 44.1504 190.701 43.0029 190.701 41.6846C190.701 40.3499 190.53 39.2432 190.188 38.3643C189.863 37.4691 189.48 36.8018 189.041 36.3623C188.618 35.9066 188.268 35.6787 187.991 35.6787C187.666 35.6787 187.308 35.874 186.917 36.2646C186.526 36.639 186.331 36.9889 186.331 37.3145C186.331 37.4609 186.526 37.6725 186.917 37.9492C187.324 38.2259 187.926 38.3643 188.724 38.3643H194.168C194.591 38.3643 194.9 38.641 195.096 39.1943C195.291 39.7314 195.389 40.2848 195.389 40.8545C195.389 41.4404 195.291 42.0101 195.096 42.5635C194.9 43.1006 194.591 43.3691 194.168 43.3691H188.821C188.04 43.3691 187.365 43.1331 186.795 42.6611C186.225 42.1891 185.778 41.5869 185.452 40.8545C185.143 40.1221 184.988 39.3734 184.988 38.6084C184.988 38.1852 185.045 37.5586 185.159 36.7285C185.273 35.8822 185.46 35.0195 185.721 34.1406C185.997 33.2454 186.355 32.4886 186.795 31.8701C187.251 31.2354 187.804 30.918 188.455 30.918C189.09 30.918 189.627 31.2516 190.066 31.9189C190.506 32.57 190.856 33.4326 191.116 34.5068C191.377 35.5811 191.564 36.7611 191.678 38.0469C191.808 39.3164 191.873 40.5697 191.873 41.8066C191.873 43.4993 191.556 45.0212 190.921 46.3721C190.302 47.7393 189.505 48.903 188.528 49.8633C187.552 50.8236 186.535 51.556 185.477 52.0605C184.419 52.5651 183.458 52.8174 182.596 52.8174ZM195.779 15.6123L195.12 14.5869C196.113 14.1475 197.122 13.529 198.147 12.7314C199.173 11.9339 200.035 11.0957 200.735 10.2168C201.435 9.33789 201.785 8.55664 201.785 7.87305C201.785 7.54753 201.688 7.30339 201.492 7.14062C201.313 6.96159 201.11 6.87207 200.882 6.87207C200.67 6.87207 200.402 7.00228 200.076 7.2627C199.767 7.52311 199.612 7.92188 199.612 8.45898C199.612 8.88216 199.848 9.28092 200.32 9.65527C200.809 10.0296 201.85 10.64 203.445 11.4863L202.273 13.2197C201.004 12.471 199.97 11.7467 199.173 11.0469C198.359 10.3307 197.952 9.54134 197.952 8.67871C197.952 7.83236 198.139 7.18945 198.514 6.75C198.888 6.29427 199.336 5.98503 199.856 5.82227C200.394 5.64323 200.898 5.55371 201.37 5.55371C201.924 5.55371 202.371 5.7002 202.713 5.99316C203.055 6.26986 203.226 6.67676 203.226 7.21387C203.226 8.23926 202.835 9.2972 202.054 10.3877C201.289 11.4782 200.337 12.4873 199.197 13.415C198.042 14.3265 196.902 15.0589 195.779 15.6123ZM201.517 27.2559C202.184 27.2559 202.705 27.5326 203.079 28.0859C203.47 28.623 203.746 29.2741 203.909 30.0391C204.072 30.7878 204.153 31.4795 204.153 32.1143C204.153 34.2301 203.738 36.1426 202.908 37.8516C202.078 39.5443 200.914 40.887 199.417 41.8799C197.92 42.8727 196.17 43.3691 194.168 43.3691C193.777 43.3691 193.46 43.125 193.216 42.6367C192.972 42.1322 192.85 41.5381 192.85 40.8545C192.85 40.1872 192.972 39.6094 193.216 39.1211C193.46 38.6165 193.777 38.3643 194.168 38.3643C195.698 38.3643 197.122 38.1771 198.44 37.8027C199.775 37.4284 200.857 36.9401 201.688 36.3379C202.518 35.7357 202.933 35.0846 202.933 34.3848C202.933 34.0104 202.721 33.5221 202.298 32.9199C201.891 32.3177 201.354 32.0166 200.687 32.0166C200.231 32.0166 199.799 32.1794 199.393 32.5049C199.002 32.8304 198.685 33.2048 198.44 33.6279C198.196 34.0511 198.074 34.4092 198.074 34.7021C198.074 35.2881 198.538 35.8659 199.466 36.4355C200.394 36.9889 201.541 37.4528 202.908 37.8271C204.292 38.1852 205.634 38.3643 206.937 38.3643C207.376 38.3643 207.734 38.6165 208.011 39.1211C208.287 39.6094 208.426 40.1872 208.426 40.8545C208.426 41.5381 208.287 42.1322 208.011 42.6367C207.734 43.125 207.376 43.3691 206.937 43.3691C204.983 43.3691 203.25 43.0273 201.736 42.3438C200.239 41.6602 199.059 40.765 198.196 39.6582C197.35 38.5514 196.927 37.3551 196.927 36.0693C196.927 35.3369 197.033 34.4743 197.244 33.4814C197.456 32.4886 197.765 31.5202 198.172 30.5762C198.579 29.6159 199.067 28.8265 199.637 28.208C200.206 27.5732 200.833 27.2559 201.517 27.2559ZM198.831 19.0039C199.905 19.7526 200.784 20.6315 201.468 21.6406L198.831 24.2529C198.489 23.7484 198.099 23.2845 197.659 22.8613C197.22 22.4219 196.74 22.015 196.219 21.6406L198.831 19.0039ZM203.616 19.0039C204.69 19.7526 205.569 20.6315 206.253 21.6406L203.616 24.2529C203.274 23.7484 202.884 23.2845 202.444 22.8613C202.005 22.4219 201.525 22.015 201.004 21.6406L203.616 19.0039ZM207.791 54.1162L208.67 51.6748L216.043 47.9883L215.213 50.4053L207.791 54.1162ZM214.31 27.2559C214.977 27.2559 215.498 27.5326 215.872 28.0859C216.263 28.623 216.539 29.2741 216.702 30.0391C216.865 30.7878 216.946 31.4795 216.946 32.1143C216.946 34.2301 216.531 36.1426 215.701 37.8516C214.871 39.5443 213.707 40.887 212.21 41.8799C210.713 42.8727 208.963 43.3691 206.961 43.3691C206.57 43.3691 206.253 43.125 206.009 42.6367C205.765 42.1322 205.643 41.5381 205.643 40.8545C205.643 40.1872 205.765 39.6094 206.009 39.1211C206.253 38.6165 206.57 38.3643 206.961 38.3643C208.491 38.3643 209.915 38.1771 211.233 37.8027C212.568 37.4284 213.65 36.9401 214.48 36.3379C215.311 35.7357 215.726 35.0846 215.726 34.3848C215.726 34.0104 215.514 33.5221 215.091 32.9199C214.684 32.3177 214.147 32.0166 213.479 32.0166C213.024 32.0166 212.592 32.1794 212.186 32.5049C211.795 32.8304 211.478 33.2048 211.233 33.6279C210.989 34.0511 210.867 34.4092 210.867 34.7021C210.867 35.2881 211.331 35.8659 212.259 36.4355C213.187 36.9889 214.334 37.4528 215.701 37.8271C217.085 38.1852 218.427 38.3643 219.729 38.3643C220.169 38.3643 220.527 38.6165 220.804 39.1211C221.08 39.6094 221.219 40.1872 221.219 40.8545C221.219 41.5381 221.08 42.1322 220.804 42.6367C220.527 43.125 220.169 43.3691 219.729 43.3691C217.776 43.3691 216.043 43.0273 214.529 42.3438C213.032 41.6602 211.852 40.765 210.989 39.6582C210.143 38.5514 209.72 37.3551 209.72 36.0693C209.72 35.3369 209.826 34.4743 210.037 33.4814C210.249 32.4886 210.558 31.5202 210.965 30.5762C211.372 29.6159 211.86 28.8265 212.43 28.208C212.999 27.5732 213.626 27.2559 214.31 27.2559ZM214.017 19.0039C215.091 19.7526 215.97 20.6315 216.653 21.6406L214.017 24.2529C213.675 23.7484 213.284 23.2845 212.845 22.8613C212.405 22.4219 211.925 22.015 211.404 21.6406L214.017 19.0039ZM223.831 22.6602C222.789 22.6602 222.098 22.3672 221.756 21.7812C221.398 21.179 221.219 20.471 221.219 19.6572C221.219 18.9085 221.447 18.1273 221.902 17.3135C222.358 16.4997 223.001 16.0928 223.831 16.0928C224.661 16.0928 225.312 16.4997 225.784 17.3135C226.256 18.1273 226.492 18.9085 226.492 19.6572C226.492 20.471 226.305 21.179 225.931 21.7812C225.573 22.3672 224.873 22.6602 223.831 22.6602ZM223.831 20.7803C224.287 20.7803 224.677 20.707 225.003 20.5605C225.345 20.3978 225.516 20.0397 225.516 19.4863C225.516 18.9167 225.345 18.4528 225.003 18.0947C224.677 17.7204 224.287 17.5332 223.831 17.5332C223.375 17.5332 222.993 17.7204 222.684 18.0947C222.358 18.4528 222.195 18.9167 222.195 19.4863C222.195 20.0885 222.358 20.4548 222.684 20.585C222.993 20.7152 223.375 20.7803 223.831 20.7803ZM219.754 43.3691C219.396 43.3691 219.111 43.125 218.899 42.6367C218.672 42.1322 218.558 41.5381 218.558 40.8545C218.558 40.1872 218.672 39.6094 218.899 39.1211C219.111 38.6165 219.396 38.3643 219.754 38.3643H219.876C221.194 38.3643 222.212 38.2503 222.928 38.0225C223.66 37.7946 224.222 37.3796 224.612 36.7773C225.003 36.1589 225.369 35.2799 225.711 34.1406L226.102 34.2139C226.036 34.637 226.004 35.0358 226.004 35.4102C226.004 36.6146 226.362 37.4121 227.078 37.8027C227.794 38.1771 228.885 38.3643 230.35 38.3643H230.472C230.862 38.3643 231.18 38.6165 231.424 39.1211C231.668 39.6094 231.79 40.1872 231.79 40.8545C231.79 41.5381 231.668 42.1322 231.424 42.6367C231.196 43.125 230.879 43.3691 230.472 43.3691H229.983C228.323 43.3691 227.078 43.068 226.248 42.4658C225.418 41.8473 224.767 40.9521 224.295 39.7803L225.198 39.9756C224.629 40.9359 223.929 41.7415 223.099 42.3926C222.285 43.0436 221.333 43.3691 220.242 43.3691H219.754ZM224.93 26.084C226.004 26.8327 226.883 27.7116 227.566 28.7207L224.93 31.333C224.588 30.8285 224.197 30.3646 223.758 29.9414C223.318 29.502 222.838 29.0951 222.317 28.7207L224.93 26.084ZM230.203 18.6123L229.544 17.5869C230.537 17.1475 231.546 16.529 232.571 15.7314C233.597 14.9339 234.459 14.0957 235.159 13.2168C235.859 12.3379 236.209 11.5566 236.209 10.873C236.209 10.5475 236.111 10.3034 235.916 10.1406C235.737 9.96159 235.534 9.87207 235.306 9.87207C235.094 9.87207 234.826 10.0023 234.5 10.2627C234.191 10.5231 234.036 10.9219 234.036 11.459C234.036 11.8822 234.272 12.2809 234.744 12.6553C235.232 13.0296 236.274 13.64 237.869 14.4863L236.697 16.2197C235.428 15.471 234.394 14.7467 233.597 14.0469C232.783 13.3307 232.376 12.5413 232.376 11.6787C232.376 10.8324 232.563 10.1895 232.938 9.75C233.312 9.29427 233.759 8.98503 234.28 8.82227C234.817 8.64323 235.322 8.55371 235.794 8.55371C236.347 8.55371 236.795 8.7002 237.137 8.99316C237.479 9.26986 237.649 9.67676 237.649 10.2139C237.649 11.2393 237.259 12.2972 236.478 13.3877C235.713 14.4782 234.76 15.4873 233.621 16.415C232.465 17.3265 231.326 18.0589 230.203 18.6123ZM230.496 38.3643H232.059C233.523 38.3643 234.638 38.2178 235.403 37.9248C236.168 37.6156 236.551 37.3389 236.551 37.0947C236.551 36.6715 236.412 36.2484 236.136 35.8252C235.875 35.3857 235.542 35.0033 235.135 34.6777L236.771 30.4785C237.259 31.1458 237.609 31.9027 237.82 32.749C238.032 33.5954 238.138 34.4336 238.138 35.2637C238.138 36.7122 237.869 38.055 237.332 39.292C236.795 40.5127 236.03 41.4974 235.037 42.2461C234.061 42.9948 232.889 43.3691 231.521 43.3691H230.496C230.089 43.3691 229.788 43.0843 229.593 42.5146C229.397 41.945 229.3 41.3672 229.3 40.7812C229.3 40.2116 229.397 39.6663 229.593 39.1455C229.788 38.6247 230.089 38.3643 230.496 38.3643ZM232.986 22.4951C234.061 23.2438 234.939 24.1227 235.623 25.1318L232.986 27.7441C232.645 27.2396 232.254 26.7757 231.814 26.3525C231.375 25.9131 230.895 25.5062 230.374 25.1318L232.986 22.4951ZM237.771 22.4951C238.846 23.2438 239.725 24.1227 240.408 25.1318L237.771 27.7441C237.43 27.2396 237.039 26.7757 236.6 26.3525C236.16 25.9131 235.68 25.5062 235.159 25.1318L237.771 22.4951ZM272.391 38.3643C272.781 38.3643 273.074 38.641 273.27 39.1943C273.465 39.7314 273.562 40.2848 273.562 40.8545C273.562 41.4404 273.473 42.0101 273.294 42.5635C273.115 43.1006 272.814 43.3691 272.391 43.3691H266.727C265.278 43.3691 264.342 43.4424 263.919 43.5889C263.496 43.7516 263.284 43.9225 263.284 44.1016C263.284 44.3945 263.528 44.598 264.017 44.7119C264.505 44.8258 265.107 44.9154 265.823 44.9805C266.556 45.0456 267.28 45.1514 267.996 45.2979C268.729 45.4443 269.339 45.6803 269.827 46.0059C270.332 46.3477 270.584 46.8522 270.584 47.5195C270.584 48.7402 270.136 49.8226 269.241 50.7666C268.362 51.7106 267.207 52.5081 265.774 53.1592C264.342 53.8102 262.796 54.2985 261.136 54.624C259.492 54.9658 257.897 55.1367 256.351 55.1367C253.519 55.1367 251.419 54.6891 250.052 53.7939C248.701 52.915 247.936 51.735 247.757 50.2539C247.594 48.7728 247.895 47.1452 248.66 45.3711C249.425 43.597 250.516 41.8311 251.932 40.0732L252.273 40.1953C250.874 42.7507 250.133 44.7607 250.052 46.2256C249.97 47.7067 250.573 48.7565 251.858 49.375C253.144 50.0098 255.154 50.3271 257.889 50.3271C258.393 50.3271 259.109 50.3027 260.037 50.2539C260.965 50.2214 261.958 50.1644 263.016 50.083C264.074 50.0016 265.083 49.8958 266.043 49.7656C267.003 49.6354 267.785 49.4808 268.387 49.3018C269.005 49.139 269.314 48.9518 269.314 48.7402C269.314 48.4798 269.07 48.3089 268.582 48.2275C268.094 48.1462 267.483 48.0811 266.751 48.0322C266.035 47.9997 265.319 47.9102 264.603 47.7637C263.903 47.6172 263.309 47.3568 262.82 46.9824C262.348 46.6081 262.129 46.0465 262.161 45.2979C262.194 44.3864 262.503 43.3936 263.089 42.3193C263.675 41.2451 264.562 40.3174 265.75 39.5361C266.954 38.7549 268.484 38.3643 270.34 38.3643H272.391ZM277.103 16.582C277.103 18.3724 276.891 19.7721 276.468 20.7812C276.061 21.7741 275.581 22.3682 275.027 22.5635C274.474 22.7425 273.986 22.5146 273.562 21.8799C273.139 21.2288 272.928 20.1546 272.928 18.6572L273.807 18.2178C273.807 19.4222 274.01 20.1302 274.417 20.3418C274.824 20.5534 275.231 20.3581 275.638 19.7559C276.028 19.1536 276.224 18.2422 276.224 17.0215L277.103 16.582ZM280.398 14.9463C280.398 16.7367 280.187 18.1364 279.764 19.1455C279.357 20.1383 278.877 20.7324 278.323 20.9277C277.77 21.1068 277.282 20.8789 276.858 20.2441C276.435 19.5931 276.224 18.5189 276.224 17.0215L277.103 16.582C277.103 17.7865 277.306 18.4945 277.713 18.7061C278.12 18.9176 278.519 18.7223 278.909 18.1201C279.316 17.5179 279.52 16.6064 279.52 15.3857L280.398 14.9463ZM272.732 17.2656L273.611 14.8242L280.984 11.1377L280.154 13.5547L272.732 17.2656ZM272.391 43.3691C272.033 43.3691 271.748 43.125 271.536 42.6367C271.308 42.1322 271.194 41.5381 271.194 40.8545C271.194 40.1872 271.308 39.6094 271.536 39.1211C271.748 38.6165 272.033 38.3643 272.391 38.3643H272.513C273.831 38.3643 274.848 38.2503 275.564 38.0225C276.297 37.7946 276.858 37.3796 277.249 36.7773C277.64 36.1589 278.006 35.2799 278.348 34.1406L278.738 34.2139C278.673 34.637 278.641 35.0358 278.641 35.4102C278.641 36.6146 278.999 37.4121 279.715 37.8027C280.431 38.1771 281.521 38.3643 282.986 38.3643H283.108C283.499 38.3643 283.816 38.6165 284.061 39.1211C284.305 39.6094 284.427 40.1872 284.427 40.8545C284.427 41.5381 284.305 42.1322 284.061 42.6367C283.833 43.125 283.515 43.3691 283.108 43.3691H282.62C280.96 43.3691 279.715 43.068 278.885 42.4658C278.055 41.8473 277.404 40.9521 276.932 39.7803L277.835 39.9756C277.265 40.9359 276.565 41.7415 275.735 42.3926C274.922 43.0436 273.969 43.3691 272.879 43.3691H272.391ZM275.174 26.084C276.248 26.8327 277.127 27.7116 277.811 28.7207L275.174 31.333C274.832 30.8285 274.441 30.3646 274.002 29.9414C273.562 29.502 273.082 29.0951 272.562 28.7207L275.174 26.084ZM279.959 26.084C281.033 26.8327 281.912 27.7116 282.596 28.7207L279.959 31.333C279.617 30.8285 279.227 30.3646 278.787 29.9414C278.348 29.502 277.868 29.0951 277.347 28.7207L279.959 26.084ZM289.896 25.0518L290.774 22.6104L298.147 18.9238L297.317 21.3408L289.896 25.0518ZM283.206 43.3691C282.767 43.3691 282.482 43.125 282.352 42.6367C282.205 42.1322 282.132 41.5381 282.132 40.8545C282.132 40.1872 282.221 39.6094 282.4 39.1211C282.579 38.6165 282.824 38.3643 283.133 38.3643C284.988 38.3643 286.478 38.234 287.601 37.9736C288.724 37.6969 289.676 37.3551 290.457 36.9482C291.255 36.5413 292.06 36.1426 292.874 35.752C293.704 35.3451 294.729 35.0033 295.95 34.7266C297.171 34.4499 298.799 34.3115 300.833 34.3115L300.052 37.3877C298.603 37.3877 297.301 37.1924 296.146 36.8018C295.006 36.3949 293.973 35.931 293.045 35.4102C292.117 34.8893 291.246 34.4255 290.433 34.0186C289.635 33.6117 288.854 33.4082 288.089 33.4082C287.308 33.4082 286.632 33.5628 286.062 33.8721C285.493 34.165 284.98 34.5557 284.524 35.0439L284.109 34.873C284.272 33.8965 284.573 32.9688 285.013 32.0898C285.468 31.1947 286.038 30.4704 286.722 29.917C287.405 29.3636 288.195 29.0869 289.09 29.0869C290.034 29.0869 290.896 29.2822 291.678 29.6729C292.459 30.0635 293.289 30.5192 294.168 31.04C295.047 31.5446 296.089 31.9922 297.293 32.3828C298.514 32.7734 300.019 32.9688 301.81 32.9688L300.613 37.7539C298.839 37.7539 297.358 37.9492 296.17 38.3398C294.998 38.7142 293.965 39.1781 293.069 39.7314C292.19 40.2848 291.312 40.8464 290.433 41.416C289.57 41.9694 288.569 42.4333 287.43 42.8076C286.307 43.182 284.899 43.3691 283.206 43.3691ZM317.483 20.582C317.483 22.3724 317.272 23.7721 316.849 24.7812C316.442 25.7741 315.962 26.3682 315.408 26.5635C314.855 26.7425 314.367 26.5146 313.943 25.8799C313.52 25.2288 313.309 24.1546 313.309 22.6572L314.188 22.2178C314.188 23.4222 314.391 24.1302 314.798 24.3418C315.205 24.5534 315.612 24.3581 316.019 23.7559C316.409 23.1536 316.604 22.2422 316.604 21.0215L317.483 20.582ZM320.779 18.9463C320.779 20.7367 320.568 22.1364 320.145 23.1455C319.738 24.1383 319.257 24.7324 318.704 24.9277C318.151 25.1068 317.662 24.8789 317.239 24.2441C316.816 23.5931 316.604 22.5189 316.604 21.0215L317.483 20.582C317.483 21.7865 317.687 22.4945 318.094 22.7061C318.501 22.9176 318.899 22.7223 319.29 22.1201C319.697 21.5179 319.9 20.6064 319.9 19.3857L320.779 18.9463ZM313.113 21.2656L313.992 18.8242L321.365 15.1377L320.535 17.5547L313.113 21.2656ZM307.596 50.3027L307.767 49.9609C307.978 50.026 308.214 50.0749 308.475 50.1074C308.719 50.1562 309.028 50.1807 309.402 50.1807C310.965 50.1807 312.405 49.9202 313.724 49.3994C315.058 48.8949 316.214 48.2682 317.19 47.5195C318.183 46.7708 318.948 46.0303 319.485 45.2979C320.039 44.5654 320.315 43.9714 320.315 43.5156C320.315 43.0924 319.957 42.5553 319.241 41.9043C318.541 41.2533 317.809 40.7324 317.044 40.3418L318.265 35.5078C319.355 36.1589 320.153 37.0703 320.657 38.2422C321.162 39.3978 321.414 40.6022 321.414 41.8555C321.414 43.6133 321.113 45.3304 320.511 47.0068C319.909 48.6995 319.07 50.0911 317.996 51.1816C316.922 52.2721 315.677 52.8174 314.261 52.8174C313.187 52.8174 312.007 52.5732 310.721 52.085C309.435 51.5967 308.393 51.0026 307.596 50.3027ZM323.611 38.3643C324.116 38.3643 324.49 38.641 324.734 39.1943C324.995 39.7314 325.125 40.2848 325.125 40.8545C325.125 41.4404 324.995 42.0101 324.734 42.5635C324.49 43.1006 324.116 43.3691 323.611 43.3691C322.83 43.3691 322.114 43.1982 321.463 42.8564C320.812 42.4984 320.25 42.0752 319.778 41.5869V36.8018C320.397 37.4854 321.023 37.9167 321.658 38.0957C322.309 38.2747 322.96 38.3643 323.611 38.3643ZM323.074 60.1162L323.953 57.6748L331.326 53.9883L330.496 56.4053L323.074 60.1162ZM323.611 43.3691C323.253 43.3691 322.968 43.125 322.757 42.6367C322.529 42.1322 322.415 41.5381 322.415 40.8545C322.415 40.1872 322.529 39.6094 322.757 39.1211C322.968 38.6165 323.253 38.3643 323.611 38.3643H323.733C325.052 38.3643 326.069 38.2503 326.785 38.0225C327.518 37.7946 328.079 37.3796 328.47 36.7773C328.86 36.1589 329.227 35.2799 329.568 34.1406L329.959 34.2139C329.894 34.637 329.861 35.0358 329.861 35.4102C329.861 36.6146 330.219 37.4121 330.936 37.8027C331.652 38.1771 332.742 38.3643 334.207 38.3643H334.329C334.72 38.3643 335.037 38.6165 335.281 39.1211C335.525 39.6094 335.647 40.1872 335.647 40.8545C335.647 41.5381 335.525 42.1322 335.281 42.6367C335.053 43.125 334.736 43.3691 334.329 43.3691H333.841C332.181 43.3691 330.936 43.068 330.105 42.4658C329.275 41.8473 328.624 40.9521 328.152 39.7803L329.056 39.9756C328.486 40.9359 327.786 41.7415 326.956 42.3926C326.142 43.0436 325.19 43.3691 324.1 43.3691H323.611ZM328.567 46.8359C329.642 47.5846 330.521 48.4635 331.204 49.4727L328.567 52.085C328.226 51.5804 327.835 51.1084 327.396 50.6689C326.956 50.2458 326.476 49.847 325.955 49.4727L328.567 46.8359ZM339.114 12.6602C338.073 12.6602 337.381 12.3672 337.039 11.7812C336.681 11.179 336.502 10.471 336.502 9.65723C336.502 8.90853 336.73 8.12728 337.186 7.31348C337.641 6.49967 338.284 6.09277 339.114 6.09277C339.944 6.09277 340.595 6.49967 341.067 7.31348C341.539 8.12728 341.775 8.90853 341.775 9.65723C341.775 10.471 341.588 11.179 341.214 11.7812C340.856 12.3672 340.156 12.6602 339.114 12.6602ZM339.114 10.7803C339.57 10.7803 339.961 10.707 340.286 10.5605C340.628 10.3978 340.799 10.0397 340.799 9.48633C340.799 8.91667 340.628 8.4528 340.286 8.09473C339.961 7.72038 339.57 7.5332 339.114 7.5332C338.659 7.5332 338.276 7.72038 337.967 8.09473C337.641 8.4528 337.479 8.91667 337.479 9.48633C337.479 10.0885 337.641 10.4548 337.967 10.585C338.276 10.7152 338.659 10.7803 339.114 10.7803ZM338.504 20.835L340.823 22.2754C340.937 25.0098 341.035 27.4593 341.116 29.624C341.198 31.7887 341.271 33.7663 341.336 35.5566C341.336 36.8587 341.084 38.112 340.579 39.3164C340.091 40.5046 339.326 41.4811 338.284 42.2461C337.259 42.9948 335.949 43.3691 334.354 43.3691C333.947 43.3691 333.646 43.1006 333.45 42.5635C333.255 42.0101 333.157 41.4404 333.157 40.8545C333.157 40.2848 333.255 39.7314 333.45 39.1943C333.646 38.641 333.947 38.3643 334.354 38.3643C335.086 38.3643 335.851 38.3317 336.648 38.2666C337.462 38.1852 338.17 38.0387 338.772 37.8271C339.375 37.5993 339.733 37.2738 339.847 36.8506L339.627 37.7051C339.692 37.4935 339.725 37.0866 339.725 36.4844C339.725 35.2799 339.627 33.3431 339.432 30.6738C339.236 28.0046 338.927 24.7249 338.504 20.835ZM340.286 15.8301L340.677 16.0498C339.456 18.4587 340.197 20.0863 342.898 20.9326L341.409 24.6436C340.14 24.139 339.131 23.5775 338.382 22.959C337.633 22.3242 337.259 21.665 337.259 20.9814C337.259 20.4443 337.454 19.8177 337.845 19.1016C338.235 18.3854 338.667 17.7262 339.139 17.124C339.627 16.5055 340.009 16.0742 340.286 15.8301ZM346.023 20.2979L348.782 16.6846C348.701 19.2399 348.709 21.9906 348.807 24.9365C348.921 27.8662 348.953 30.7878 348.904 33.7012C348.872 36.5983 348.611 39.2757 348.123 41.7334C347.911 42.7425 347.334 43.3285 346.39 43.4912C346.455 40.6266 346.463 38.1608 346.414 36.0938C346.365 34.0104 346.3 32.1387 346.219 30.4785C346.137 28.8021 346.072 27.1663 346.023 25.5713C345.975 23.9762 345.975 22.2184 346.023 20.2979ZM362.234 20.2979L364.993 16.6846C364.912 19.2399 364.92 21.9906 365.018 24.9365C365.132 27.8662 365.164 30.7878 365.115 33.7012C365.083 36.5983 364.822 39.2757 364.334 41.7334C364.122 42.7425 363.545 43.3285 362.601 43.4912C362.666 40.6266 362.674 38.1608 362.625 36.0938C362.576 34.0104 362.511 32.1387 362.43 30.4785C362.348 28.8021 362.283 27.1663 362.234 25.5713C362.186 23.9762 362.186 22.2184 362.234 20.2979ZM370.779 52.8174C370.014 52.8174 369.184 52.6628 368.289 52.3535C367.394 52.0443 366.531 51.6374 365.701 51.1328C364.871 50.6445 364.163 50.1481 363.577 49.6436L363.748 49.3018C364.464 49.4482 365.254 49.5215 366.116 49.5215C367.239 49.5215 368.525 49.3587 369.974 49.0332C371.422 48.724 372.822 48.2357 374.173 47.5684C375.54 46.9173 376.663 46.1035 377.542 45.127C378.437 44.1504 378.885 43.0029 378.885 41.6846C378.885 40.3499 378.714 39.2432 378.372 38.3643C378.047 37.4691 377.664 36.8018 377.225 36.3623C376.801 35.9066 376.451 35.6787 376.175 35.6787C375.849 35.6787 375.491 35.874 375.101 36.2646C374.71 36.639 374.515 36.9889 374.515 37.3145C374.515 37.4609 374.71 37.6725 375.101 37.9492C375.507 38.2259 376.11 38.3643 376.907 38.3643H382.352C382.775 38.3643 383.084 38.641 383.279 39.1943C383.475 39.7314 383.572 40.2848 383.572 40.8545C383.572 41.4404 383.475 42.0101 383.279 42.5635C383.084 43.1006 382.775 43.3691 382.352 43.3691H377.005C376.224 43.3691 375.548 43.1331 374.979 42.6611C374.409 42.1891 373.961 41.5869 373.636 40.8545C373.326 40.1221 373.172 39.3734 373.172 38.6084C373.172 38.1852 373.229 37.5586 373.343 36.7285C373.457 35.8822 373.644 35.0195 373.904 34.1406C374.181 33.2454 374.539 32.4886 374.979 31.8701C375.434 31.2354 375.988 30.918 376.639 30.918C377.273 30.918 377.811 31.2516 378.25 31.9189C378.689 32.57 379.039 33.4326 379.3 34.5068C379.56 35.5811 379.747 36.7611 379.861 38.0469C379.992 39.3164 380.057 40.5697 380.057 41.8066C380.057 43.4993 379.739 45.0212 379.104 46.3721C378.486 47.7393 377.688 48.903 376.712 49.8633C375.735 50.8236 374.718 51.556 373.66 52.0605C372.602 52.5651 371.642 52.8174 370.779 52.8174ZM383.084 13.6123L382.425 12.5869C383.418 12.1475 384.427 11.529 385.452 10.7314C386.478 9.93392 387.34 9.0957 388.04 8.2168C388.74 7.33789 389.09 6.55664 389.09 5.87305C389.09 5.54753 388.992 5.30339 388.797 5.14062C388.618 4.96159 388.414 4.87207 388.187 4.87207C387.975 4.87207 387.706 5.00228 387.381 5.2627C387.072 5.52311 386.917 5.92188 386.917 6.45898C386.917 6.88216 387.153 7.28092 387.625 7.65527C388.113 8.02962 389.155 8.63997 390.75 9.48633L389.578 11.2197C388.309 10.471 387.275 9.74674 386.478 9.04688C385.664 8.33073 385.257 7.54134 385.257 6.67871C385.257 5.83236 385.444 5.18945 385.818 4.75C386.193 4.29427 386.64 3.98503 387.161 3.82227C387.698 3.64323 388.203 3.55371 388.675 3.55371C389.228 3.55371 389.676 3.7002 390.018 3.99316C390.359 4.26986 390.53 4.67676 390.53 5.21387C390.53 6.23926 390.14 7.2972 389.358 8.3877C388.593 9.47819 387.641 10.4873 386.502 11.415C385.346 12.3265 384.207 13.0589 383.084 13.6123ZM386.502 20.835L388.821 22.2754C388.935 25.0098 389.033 27.4593 389.114 29.624C389.196 31.7887 389.269 33.7663 389.334 35.5566C389.334 36.8587 389.082 38.112 388.577 39.3164C388.089 40.5046 387.324 41.4811 386.282 42.2461C385.257 42.9948 383.947 43.3691 382.352 43.3691C381.945 43.3691 381.644 43.1006 381.448 42.5635C381.253 42.0101 381.155 41.4404 381.155 40.8545C381.155 40.2848 381.253 39.7314 381.448 39.1943C381.644 38.641 381.945 38.3643 382.352 38.3643C383.084 38.3643 383.849 38.3317 384.646 38.2666C385.46 38.1852 386.168 38.0387 386.771 37.8271C387.373 37.5993 387.731 37.2738 387.845 36.8506L387.625 37.7051C387.69 37.4935 387.723 37.0866 387.723 36.4844C387.723 35.2799 387.625 33.3431 387.43 30.6738C387.234 28.0046 386.925 24.7249 386.502 20.835ZM388.284 15.8301L388.675 16.0498C387.454 18.4587 388.195 20.0863 390.896 20.9326L389.407 24.6436C388.138 24.139 387.129 23.5775 386.38 22.959C385.631 22.3242 385.257 21.665 385.257 20.9814C385.257 20.4443 385.452 19.8177 385.843 19.1016C386.233 18.3854 386.665 17.7262 387.137 17.124C387.625 16.5055 388.007 16.0742 388.284 15.8301ZM401.492 43.3691C399.083 43.3691 397.301 42.4984 396.146 40.7568C394.99 39.0153 394.331 36.3623 394.168 32.7979L393.582 19.3213L395.584 16.6846L396.048 31.748C396.113 34.2057 396.585 35.9229 397.464 36.8994C398.359 37.876 399.702 38.3643 401.492 38.3643C401.964 38.3643 402.322 38.641 402.566 39.1943C402.811 39.7314 402.933 40.2848 402.933 40.8545C402.933 41.4404 402.811 42.0101 402.566 42.5635C402.322 43.1006 401.964 43.3691 401.492 43.3691ZM401.272 23.0518L402.151 20.6104L409.524 16.9238L408.694 19.3408L401.272 23.0518ZM401.492 43.3691C401.134 43.3691 400.849 43.125 400.638 42.6367C400.41 42.1322 400.296 41.5381 400.296 40.8545C400.296 40.1872 400.41 39.6094 400.638 39.1211C400.849 38.6165 401.134 38.3643 401.492 38.3643H401.614C402.933 38.3643 403.95 38.2503 404.666 38.0225C405.398 37.7946 405.96 37.3796 406.351 36.7773C406.741 36.1589 407.107 35.2799 407.449 34.1406L407.84 34.2139C407.775 34.637 407.742 35.0358 407.742 35.4102C407.742 36.6146 408.1 37.4121 408.816 37.8027C409.533 38.1771 410.623 38.3643 412.088 38.3643H412.21C412.601 38.3643 412.918 38.6165 413.162 39.1211C413.406 39.6094 413.528 40.1872 413.528 40.8545C413.528 41.5381 413.406 42.1322 413.162 42.6367C412.934 43.125 412.617 43.3691 412.21 43.3691H411.722C410.062 43.3691 408.816 43.068 407.986 42.4658C407.156 41.8473 406.505 40.9521 406.033 39.7803L406.937 39.9756C406.367 40.9359 405.667 41.7415 404.837 42.3926C404.023 43.0436 403.071 43.3691 401.98 43.3691H401.492ZM406.668 26.084C407.742 26.8327 408.621 27.7116 409.305 28.7207L406.668 31.333C406.326 30.8285 405.936 30.3646 405.496 29.9414C405.057 29.502 404.576 29.0951 404.056 28.7207L406.668 26.084ZM411.722 19.0518L412.601 16.6104L419.974 12.9238L419.144 15.3408L411.722 19.0518ZM412.234 38.3643H413.797C415.262 38.3643 416.377 38.2178 417.142 37.9248C417.907 37.6156 418.289 37.3389 418.289 37.0947C418.289 36.6715 418.151 36.2484 417.874 35.8252C417.614 35.3857 417.28 35.0033 416.873 34.6777L418.509 30.4785C418.997 31.1458 419.347 31.9027 419.559 32.749C419.77 33.5954 419.876 34.4336 419.876 35.2637C419.876 36.7122 419.607 38.055 419.07 39.292C418.533 40.5127 417.768 41.4974 416.775 42.2461C415.799 42.9948 414.627 43.3691 413.26 43.3691H412.234C411.827 43.3691 411.526 43.0843 411.331 42.5146C411.136 41.945 411.038 41.3672 411.038 40.7812C411.038 40.2116 411.136 39.6663 411.331 39.1455C411.526 38.6247 411.827 38.3643 412.234 38.3643ZM414.725 22.4951C415.799 23.2438 416.678 24.1227 417.361 25.1318L414.725 27.7441C414.383 27.2396 413.992 26.7757 413.553 26.3525C413.113 25.9131 412.633 25.5062 412.112 25.1318L414.725 22.4951ZM419.51 22.4951C420.584 23.2438 421.463 24.1227 422.146 25.1318L419.51 27.7441C419.168 27.2396 418.777 26.7757 418.338 26.3525C417.898 25.9131 417.418 25.5062 416.897 25.1318L419.51 22.4951ZM436.819 25.6602C435.778 25.6602 435.086 25.3672 434.744 24.7812C434.386 24.179 434.207 23.471 434.207 22.6572C434.207 21.9085 434.435 21.1273 434.891 20.3135C435.346 19.4997 435.989 19.0928 436.819 19.0928C437.649 19.0928 438.3 19.4997 438.772 20.3135C439.244 21.1273 439.48 21.9085 439.48 22.6572C439.48 23.471 439.293 24.179 438.919 24.7812C438.561 25.3672 437.861 25.6602 436.819 25.6602ZM436.819 23.7803C437.275 23.7803 437.666 23.707 437.991 23.5605C438.333 23.3978 438.504 23.0397 438.504 22.4863C438.504 21.9167 438.333 21.4528 437.991 21.0947C437.666 20.7204 437.275 20.5332 436.819 20.5332C436.364 20.5332 435.981 20.7204 435.672 21.0947C435.346 21.4528 435.184 21.9167 435.184 22.4863C435.184 23.0885 435.346 23.4548 435.672 23.585C435.981 23.7152 436.364 23.7803 436.819 23.7803ZM450.711 38.3643C451.215 38.3643 451.59 38.641 451.834 39.1943C452.094 39.7314 452.225 40.2848 452.225 40.8545C452.225 41.4404 452.094 42.0101 451.834 42.5635C451.59 43.1006 451.215 43.3691 450.711 43.3691C449.93 43.3691 449.059 43.1576 448.099 42.7344C447.138 42.2949 446.438 41.8229 445.999 41.3184V36.7285C446.162 37.1354 446.512 37.4609 447.049 37.7051C447.602 37.9329 448.213 38.1038 448.88 38.2178C449.563 38.3154 450.174 38.3643 450.711 38.3643ZM445.389 34.9707C446.007 36.224 446.455 37.4854 446.731 38.7549C447.008 40.0244 447.146 41.2207 447.146 42.3438C447.146 44.3457 446.707 46.193 445.828 47.8857C444.949 49.5947 443.704 50.9619 442.093 51.9873C440.498 53.029 438.602 53.5498 436.404 53.5498C434.24 53.5498 432.531 52.8906 431.277 51.5723C430.04 50.2539 429.422 48.488 429.422 46.2744C429.422 45.2327 429.544 44.1992 429.788 43.1738C430.049 42.1484 430.366 41.2207 430.74 40.3906C431.115 39.5443 431.481 38.9014 431.839 38.4619L432.278 38.6572C431.985 39.3896 431.733 40.1546 431.521 40.9521C431.326 41.7497 431.229 42.5635 431.229 43.3936C431.229 45.3467 431.831 46.6895 433.035 47.4219C434.24 48.1706 435.729 48.5449 437.503 48.5449C438.398 48.5449 439.399 48.431 440.506 48.2031C441.629 47.9915 442.679 47.6335 443.655 47.1289C444.632 46.6406 445.356 45.9977 445.828 45.2002L445.706 45.6885C445.722 44.4352 445.494 43.2552 445.022 42.1484C444.55 41.0417 443.916 39.9512 443.118 38.877L445.389 34.9707ZM437.845 31.7725C438.919 32.5212 439.798 33.4001 440.481 34.4092L437.845 37.0215C437.503 36.5169 437.112 36.0531 436.673 35.6299C436.233 35.1904 435.753 34.7835 435.232 34.4092L437.845 31.7725ZM451.175 14.0518L452.054 11.6104L459.427 7.92383L458.597 10.3408L451.175 14.0518ZM454.861 20.835L457.181 22.2754C457.295 25.0098 457.392 27.4593 457.474 29.624C457.555 31.7887 457.628 33.7663 457.693 35.5566C457.693 36.8587 457.441 38.112 456.937 39.3164C456.448 40.5046 455.683 41.4811 454.642 42.2461C453.616 42.9948 452.306 43.3691 450.711 43.3691C450.304 43.3691 450.003 43.1006 449.808 42.5635C449.612 42.0101 449.515 41.4404 449.515 40.8545C449.515 40.2848 449.612 39.7314 449.808 39.1943C450.003 38.641 450.304 38.3643 450.711 38.3643C451.443 38.3643 452.208 38.3317 453.006 38.2666C453.82 38.1852 454.528 38.0387 455.13 37.8271C455.732 37.5993 456.09 37.2738 456.204 36.8506L455.984 37.7051C456.049 37.4935 456.082 37.0866 456.082 36.4844C456.082 35.2799 455.984 33.3431 455.789 30.6738C455.594 28.0046 455.285 24.7249 454.861 20.835ZM456.644 15.8301L457.034 16.0498C455.813 18.4587 456.554 20.0863 459.256 20.9326L457.767 24.6436C456.497 24.139 455.488 23.5775 454.739 22.959C453.991 22.3242 453.616 21.665 453.616 20.9814C453.616 20.4443 453.812 19.8177 454.202 19.1016C454.593 18.3854 455.024 17.7262 455.496 17.124C455.984 16.5055 456.367 16.0742 456.644 15.8301Z" fill="url(#paint1_linear_254_67782)"/>
<path d="M480.396 40.8211C479.715 40.5923 479.09 40.4137 478.493 40.1709C478.052 39.991 478.011 39.7357 478.357 39.3241C479.22 38.2959 480.063 37.244 480.83 36.1432C481.155 35.6759 481.272 35.0648 481.391 34.4537C479.146 34.8569 477.807 36.5129 476.191 37.982C475.971 37.6653 475.702 37.4184 475.608 37.117C475.349 36.2786 475.116 35.4261 474.966 34.564C474.895 34.151 474.754 33.9208 474.401 33.7046C473.832 33.3544 473.269 32.9665 472.79 32.5048C472.171 31.9076 472.18 31.3538 472.786 30.7469C473.209 30.3228 473.69 29.9363 474.202 29.628C474.619 29.3769 474.739 29.0616 474.802 28.6193C474.911 27.8409 475.014 27.047 475.255 26.3048C475.544 25.4189 475.905 25.3855 476.582 25.9923C477.374 26.7038 478.147 27.4586 479.026 28.0487C479.655 28.4715 480.445 28.6542 481.163 28.9444C481.246 28.8691 481.33 28.7937 481.412 28.7184C481.187 28.1129 481.081 27.4223 480.714 26.9215C480.004 25.9533 479.15 25.0911 478.35 24.1898C477.623 23.3709 477.68 23.1379 478.746 22.7989C479.27 22.6315 479.81 22.5087 480.374 22.3566C479.975 20.2291 479.252 18.2564 478.33 16.352C476.779 13.1447 474.832 10.2247 472.175 7.80971C471.917 7.57533 471.819 7.16377 471.647 6.83452C472.035 6.78988 472.515 6.57503 472.797 6.72849C473.951 7.35211 475.144 7.96876 476.14 8.80443C480.183 12.1918 482.976 16.4832 484.862 21.3787C485.057 21.8837 485.285 22.0734 485.848 22.0985C486.864 22.1418 487.875 22.3162 488.884 22.4613C489.13 22.4962 489.374 22.6106 489.594 22.7319C490.172 23.0514 490.184 23.2914 489.783 23.802C488.979 24.8218 488.163 25.8361 487.436 26.9089C487.111 27.3888 486.991 28.0055 486.777 28.5607C486.84 28.6403 486.903 28.7184 486.966 28.7979C487.534 28.5608 488.184 28.4282 488.654 28.0655C489.587 27.3442 490.423 26.4974 491.298 25.6994C492.038 25.0241 492.357 25.066 492.663 26.016C492.924 26.828 493.092 27.6776 493.216 28.5217C493.277 28.9416 493.427 29.1565 493.795 29.3629C494.398 29.702 494.974 30.1038 495.505 30.5474C496.027 30.9841 496.091 31.5965 495.645 32.096C495.141 32.6596 494.557 33.166 493.944 33.6111C493.586 33.872 493.431 34.1343 493.379 34.564C493.288 35.3215 493.15 36.0777 492.968 36.8185C492.891 37.1296 492.654 37.4002 492.451 37.756C490.684 36.3665 489.227 34.6965 486.896 34.204C487.083 36.7013 489.158 37.8383 490.544 39.6673C489.907 39.9561 489.363 40.2965 488.771 40.4472C487.875 40.6774 486.952 40.8281 486.031 40.9104C485.456 40.962 485.204 41.1782 485.014 41.7167C483.33 46.5229 480.806 50.8157 477.067 54.3231C476.223 55.1141 475.272 55.7935 474.339 56.4827C473.991 56.7394 473.566 56.9166 473.15 57.0422C472.948 57.1035 472.589 57.0324 472.477 56.8873C472.38 56.7589 472.455 56.3878 472.582 56.2204C473.056 55.5898 473.566 54.983 474.092 54.3942C477.471 50.6246 479.526 46.2272 480.363 41.2466C480.385 41.1113 480.386 40.9731 480.399 40.8197L480.396 40.8211ZM474.75 54.8532C474.851 54.9313 474.95 55.0095 475.05 55.089C476.282 53.8404 477.599 52.6657 478.729 51.3305C481.438 48.1315 483.124 44.3661 484.436 40.4249C484.587 39.9714 484.801 39.8054 485.267 39.7957C486.125 39.7761 486.981 39.7078 487.836 39.6296C488.083 39.6073 488.319 39.4762 488.577 39.3897C487.588 38.2164 486.671 37.1282 485.745 36.0288C485.544 36.3399 485.338 36.6999 485.094 37.0319C484.354 38.0364 483.905 38.028 483.212 37.0096C482.983 36.6734 482.772 36.3274 482.595 36.0526C481.678 37.2105 480.781 38.3433 479.828 39.5459C480.109 39.6352 480.381 39.7343 480.66 39.8096C480.963 39.8919 481.27 39.9519 481.549 40.0147C480.534 45.577 478.737 50.7125 474.75 54.8546V54.8532ZM481.423 23.0793C480.751 23.2356 480.158 23.3737 479.526 23.5202C480.6 24.7535 481.592 25.8891 482.574 27.0163C482.794 26.669 483.019 26.2588 483.298 25.8905C483.909 25.0799 484.569 25.1022 485.123 25.9519C485.353 26.3034 485.522 26.6955 485.673 26.9815C486.538 25.8291 487.39 24.6949 488.353 23.4141C487.333 23.3263 486.406 23.1212 485.508 23.2049C484.643 23.2858 484.385 22.9649 484.125 22.2241C482.405 17.3105 479.749 13.0079 475.707 9.64151C475.223 9.23832 474.712 8.86582 474.214 8.47937C477.956 12.7136 480.481 17.4891 481.423 23.0779V23.0793ZM484.086 28.5356C482.393 28.5635 481.048 29.9029 481.064 31.5435C481.081 33.2121 482.5 34.61 484.156 34.5877C485.809 34.5667 487.224 33.1186 487.199 31.4766C487.174 29.8554 485.748 28.5077 484.086 28.5356ZM488.286 33.1674C489.017 33.8413 489.695 34.5012 490.413 35.1122C490.742 35.3927 491.137 35.6103 491.531 35.7972C491.923 35.9842 492.213 35.8503 492.255 35.3773C492.308 34.7774 492.316 34.1719 492.414 33.5804C492.456 33.3279 492.624 33.0475 492.82 32.8787C493.185 32.5634 493.626 32.3359 494.013 32.043C494.792 31.4514 494.76 31.1292 493.884 30.6465C493.58 30.479 493.272 30.3019 492.943 30.207C492.514 30.0828 492.396 29.8387 492.352 29.4118C492.271 28.6012 492.1 27.8004 491.945 26.8671C490.622 27.972 489.463 28.9402 488.288 29.921C488.634 30.1233 489.084 30.3521 489.499 30.6325C490.546 31.3384 490.521 31.9509 489.423 32.5982C489.065 32.8089 488.68 32.9721 488.284 33.1688L488.286 33.1674ZM476.113 27.2703C476.043 27.8325 475.889 28.4003 475.926 28.9542C475.979 29.7327 475.681 30.1568 475.012 30.5335C474.5 30.8222 474.127 31.3552 473.69 31.7793C474.199 32.1406 474.672 32.5815 475.229 32.841C475.707 33.0642 475.935 33.286 475.964 33.8385C476.004 34.5988 476.18 35.3508 476.315 36.2283C477.662 35.1136 478.836 34.1398 480 33.1772C479.597 32.9512 479.097 32.7084 478.637 32.4043C477.764 31.8267 477.761 31.2101 478.634 30.6199C479.044 30.3437 479.509 30.1484 479.835 29.9768C478.644 29.1104 477.425 28.2245 476.113 27.2689V27.2703Z" fill="url(#paint2_linear_254_67782)"/>
<defs>
<linearGradient id="paint0_linear_254_67782" x1="29.9539" y1="31.8691" x2="9.66428" y2="31.8691" gradientUnits="userSpaceOnUse">
<stop stop-color="#24645E"/>
<stop offset="0.92" stop-color="#18383D"/>
<stop offset="1" stop-color="#17343B"/>
</linearGradient>
<linearGradient id="paint1_linear_254_67782" x1="-61.0253" y1="31.8691" x2="292.239" y2="31.8691" gradientUnits="userSpaceOnUse">
<stop stop-color="#24645E"/>
<stop offset="0.92" stop-color="#18383D"/>
<stop offset="1" stop-color="#17343B"/>
</linearGradient>
<linearGradient id="paint2_linear_254_67782" x1="466.046" y1="31.8691" x2="486.336" y2="31.8691" gradientUnits="userSpaceOnUse">
<stop stop-color="#24645E"/>
<stop offset="0.92" stop-color="#18383D"/>
<stop offset="1" stop-color="#17343B"/>
</linearGradient>
</defs>
</svg>
