<svg width="26" height="26" viewBox="0 0 26 26" fill="none" xmlns="http://www.w3.org/2000/svg">
<path d="M18.5998 0.517578H8.1248C3.5748 0.517578 0.862305 3.23008 0.862305 7.78008V18.2426C0.862305 22.8051 3.5748 25.5176 8.1248 25.5176H18.5873C23.1373 25.5176 25.8498 22.8051 25.8498 18.2551V7.78008C25.8623 3.23008 23.1498 0.517578 18.5998 0.517578ZM16.8498 13.6801L12.4373 18.0926C12.2498 18.2801 12.0123 18.3676 11.7748 18.3676C11.5373 18.3676 11.2998 18.2801 11.1123 18.0926C10.7498 17.7301 10.7498 17.1301 11.1123 16.7676L14.8623 13.0176L11.1123 9.26758C10.7498 8.90508 10.7498 8.30508 11.1123 7.94258C11.4748 7.58008 12.0748 7.58008 12.4373 7.94258L16.8498 12.3551C17.2248 12.7176 17.2248 13.3176 16.8498 13.6801Z" fill="#F2DCA5"/>
</svg>
