<svg width="21" height="21" viewBox="0 0 21 21" fill="none" xmlns="http://www.w3.org/2000/svg">
<path d="M14.69 0.533203H6.31C2.67 0.533203 0.5 2.7032 0.5 6.3432V14.7132C0.5 18.3632 2.67 20.5332 6.31 20.5332H14.68C18.32 20.5332 20.49 18.3632 20.49 14.7232V6.3432C20.5 2.7032 18.33 0.533203 14.69 0.533203ZM6.13 16.6832C6.13 17.0932 5.79 17.4332 5.38 17.4332C4.97 17.4332 4.63 17.0932 4.63 16.6832V14.6132C4.63 14.2032 4.97 13.8632 5.38 13.8632C5.79 13.8632 6.13 14.2032 6.13 14.6132V16.6832ZM11.25 16.6832C11.25 17.0932 10.91 17.4332 10.5 17.4332C10.09 17.4332 9.75 17.0932 9.75 16.6832V12.5332C9.75 12.1232 10.09 11.7832 10.5 11.7832C10.91 11.7832 11.25 12.1232 11.25 12.5332V16.6832ZM16.37 16.6832C16.37 17.0932 16.03 17.4332 15.62 17.4332C15.21 17.4332 14.87 17.0932 14.87 16.6832V10.4632C14.87 10.0532 15.21 9.7132 15.62 9.7132C16.03 9.7132 16.37 10.0532 16.37 10.4632V16.6832ZM16.37 7.3032C16.37 7.7132 16.03 8.0532 15.62 8.0532C15.21 8.0532 14.87 7.7132 14.87 7.3032V6.3332C12.32 8.9532 9.13 10.8032 5.56 11.6932C5.5 11.7132 5.44 11.7132 5.38 11.7132C5.04 11.7132 4.74 11.4832 4.65 11.1432C4.55 10.7432 4.79 10.3332 5.2 10.2332C8.57 9.3932 11.57 7.6232 13.95 5.1232H12.7C12.29 5.1232 11.95 4.7832 11.95 4.3732C11.95 3.9632 12.29 3.6232 12.7 3.6232H15.63C15.67 3.6232 15.7 3.6432 15.74 3.6432C15.79 3.6532 15.84 3.6532 15.89 3.6732C15.94 3.6932 15.98 3.7232 16.03 3.7532C16.06 3.7732 16.09 3.7832 16.12 3.8032C16.13 3.8132 16.13 3.8232 16.14 3.8232C16.18 3.8632 16.21 3.9032 16.24 3.9432C16.27 3.9832 16.3 4.0132 16.31 4.0532C16.33 4.0932 16.33 4.1332 16.34 4.1832C16.35 4.2332 16.37 4.2832 16.37 4.3432C16.37 4.3532 16.38 4.3632 16.38 4.3732V7.3032H16.37Z" fill="white"/>
</svg>
