<svg width="24" height="25" viewBox="0 0 24 25" fill="none" xmlns="http://www.w3.org/2000/svg">
<path d="M14.35 2.57812H9.65001C8.61001 2.57812 7.76001 3.41813 7.76001 4.45813V5.39813C7.76001 6.43813 8.60001 7.27812 9.64001 7.27812H14.35C15.39 7.27812 16.23 6.43813 16.23 5.39813V4.45813C16.24 3.41813 15.39 2.57812 14.35 2.57812Z" fill="white"/>
<path d="M17.24 5.39859C17.24 6.98859 15.94 8.28859 14.35 8.28859H9.64998C8.05998 8.28859 6.75998 6.98859 6.75998 5.39859C6.75998 4.83859 6.15998 4.48859 5.65998 4.74859C4.24998 5.49859 3.28998 6.98859 3.28998 8.69859V18.1086C3.28998 20.5686 5.29998 22.5786 7.75998 22.5786H16.24C18.7 22.5786 20.71 20.5686 20.71 18.1086V8.69859C20.71 6.98859 19.75 5.49859 18.34 4.74859C17.84 4.48859 17.24 4.83859 17.24 5.39859ZM15.34 13.3086L11.34 17.3086C11.19 17.4586 11 17.5286 10.81 17.5286C10.62 17.5286 10.43 17.4586 10.28 17.3086L8.77998 15.8086C8.48998 15.5186 8.48998 15.0386 8.77998 14.7486C9.06998 14.4586 9.54998 14.4586 9.83998 14.7486L10.81 15.7186L14.28 12.2486C14.57 11.9586 15.05 11.9586 15.34 12.2486C15.63 12.5386 15.63 13.0186 15.34 13.3086Z" fill="white"/>
</svg>
