<svg width="41" height="37" viewBox="0 0 41 37" fill="none" xmlns="http://www.w3.org/2000/svg">
<path d="M40.8583 35.2198C40.5396 35.8875 39.974 36.1875 39.2708 36.2407C36.8052 36.4282 34.3406 36.6386 31.8719 36.7698C29.8583 36.8771 27.8385 36.9563 25.824 36.9146C23.2823 36.8625 20.8406 36.3167 18.6521 34.9365C18.1146 34.5969 17.599 34.2157 17.1052 33.8146C15.2979 32.3459 13.2062 31.6667 10.9104 31.5532C10.2615 31.5209 9.61041 31.548 8.92395 31.548V20.4177H9.3802C11.3979 20.4177 13.4177 20.4584 15.4344 20.4073C17.8562 20.3459 19.9146 21.2219 21.6281 22.8365C23.6948 24.7844 25.3937 27.0427 26.6906 29.5813C27.0948 30.3719 27.4146 31.2011 27.4177 32.1094C27.4187 32.4844 27.4375 32.9105 27.0521 33.1188C26.6458 33.3386 26.2708 33.1115 25.9281 32.8917C25.7646 32.7875 25.6021 32.6677 25.475 32.524C24.0844 30.95 22.3094 29.9209 20.4698 28.9844C19.926 28.7073 19.3646 28.4625 18.8135 28.199C18.5333 28.0646 18.2917 28.0959 18.1594 28.3907C18.0281 28.6834 18.1719 28.8709 18.4479 29.0105C19.5854 29.5834 20.7302 30.1438 21.8448 30.7584C22.9219 31.3511 23.8573 32.1313 24.7271 33.0084C25.1354 33.4198 25.6698 33.7469 26.2042 33.9792C26.8198 34.2469 27.4281 34.1052 27.9021 33.5667C27.9729 33.4855 28.1146 33.4271 28.224 33.4261C30.0448 33.4042 31.8646 33.3719 33.6854 33.3844C35.349 33.3959 37.0135 33.45 38.676 33.5032C38.9573 33.5125 39.2396 33.598 39.5167 33.6677C40.1031 33.8146 40.6094 34.075 40.8583 34.675V35.2219V35.2198Z" fill="#16343A"/>
<path d="M0.858398 17.6384C1.02611 17.628 1.19382 17.6092 1.36257 17.6092C3.39277 17.6071 5.42298 17.6082 7.45215 17.6082C7.60736 17.6082 7.76361 17.6082 7.95215 17.6082V34.3592H0.858398C0.858398 28.7853 0.858398 23.2123 0.858398 17.6384Z" fill="#16343A"/>
<path d="M28.8219 2.58739C29.2438 2.11135 29.6208 1.56864 30.1104 1.15926C31.0031 0.411347 32.0458 0.271764 33.1052 0.782181C34.1698 1.29364 34.7208 2.18739 34.7636 3.36656C34.8115 4.68322 34.2833 5.82489 33.6073 6.90927C32.6146 8.50093 31.3302 9.84989 30.0146 11.1676C29.7208 11.4624 29.5927 11.753 29.6198 12.1603C29.65 12.6009 29.6271 13.0447 29.6271 13.5228C29.7052 13.4947 29.7667 13.4853 29.8125 13.4541C30.5229 12.9728 31.2344 12.4947 31.9365 12.0009C32.0677 11.9082 32.1698 11.7624 32.2583 11.6228C33.9844 8.91968 37.6563 8.26968 40.1886 10.2124C40.4604 10.4207 40.5177 10.602 40.3938 10.928C39.2261 13.9999 35.6271 15.352 32.7052 13.7895C32.4604 13.6582 32.2906 13.653 32.0761 13.8124C31.3771 14.3322 30.674 14.8457 29.9646 15.352C29.7073 15.5353 29.6115 15.7572 29.6208 16.077C29.6438 16.9061 29.6281 17.7364 29.6281 18.5489H28.075C28.075 17.8561 28.0948 17.1561 28.0636 16.4572C28.0542 16.252 27.9573 15.9832 27.8063 15.8624C26.9261 15.1541 26.0146 14.4843 25.1198 13.7947C24.9052 13.6291 24.7344 13.6468 24.4948 13.778C21.6313 15.3468 18.05 14.0478 16.8208 11.0249C16.6615 10.6322 16.7104 10.4145 17.0573 10.1593C19.6333 8.26447 23.2906 8.96968 24.9698 11.6926C25.0917 11.8905 25.2875 12.0582 25.4823 12.1926C26.325 12.7718 27.1792 13.3332 28.0656 13.9249C28.0656 13.1582 28.0761 12.3978 28.0542 11.6374C28.0511 11.5228 27.9083 11.402 27.8115 11.302C26.4792 9.92697 25.1386 8.56031 24.1146 6.92593C23.4792 5.91239 22.9823 4.84781 22.9479 3.61968C22.9104 2.29156 23.6073 1.16968 24.7646 0.699889C25.8802 0.247806 27.1396 0.555097 28.0271 1.53114C28.3386 1.87489 28.5896 2.27385 28.8229 2.58635L28.8219 2.58739ZM24.6073 13.4666C24.7219 12.9916 24.8375 12.5405 24.9323 12.0853C24.9469 12.0145 24.8865 11.8811 24.8229 11.8468C23.8677 11.3416 22.8886 10.8936 21.8 10.7686C21.2896 10.7093 20.9271 10.9926 20.8698 11.4395C20.8156 11.8697 21.1344 12.1978 21.6229 12.3197C22.2104 12.4655 22.7927 12.6468 23.3594 12.8603C23.7792 13.0176 24.1708 13.2509 24.6073 13.4666ZM32.6177 13.4634C33.649 12.8916 34.6521 12.4249 35.7708 12.2478C36.1323 12.1905 36.35 11.7936 36.3063 11.4468C36.2573 11.0541 35.9427 10.7686 35.5375 10.7613C35.4083 10.7593 35.2698 10.752 35.1511 10.7947C34.275 11.1051 33.4 11.4197 32.5344 11.7572C32.4396 11.7947 32.3406 11.9978 32.3552 12.1093C32.4136 12.5436 32.5167 12.9707 32.6167 13.4634H32.6177Z" fill="#16343A"/>
<path d="M21.923 21.7247C22.499 21.5059 23.0688 21.7393 23.6605 22.057C23.9198 21.3841 24.2719 20.8268 24.9792 20.5903C25.6865 20.3539 26.3042 20.5768 26.9261 20.9612C27.2761 20.007 27.8521 19.383 28.9157 19.4195C29.8657 19.4518 30.3969 20.0205 30.7157 20.8945C31.4792 20.6455 32.2074 20.632 32.8511 21.1799C33.4824 21.7174 33.5709 22.4362 33.4959 23.1955C35.6021 23.3434 36.1365 23.9466 35.8917 25.9028C36.6438 26.0299 37.2574 26.3778 37.5584 27.1278C37.8521 27.8612 37.6282 28.5257 37.2292 29.1559C37.5386 29.3143 37.8271 29.4372 38.0896 29.6007C38.8699 30.0862 39.3094 31.1924 39.0792 32.0476C38.9334 32.5882 38.8563 32.5955 38.3063 32.583C36.5126 32.5434 34.7178 32.5268 32.923 32.5257C31.4928 32.5247 30.0626 32.5591 28.6313 32.5747C28.5303 32.5757 28.4282 32.5507 28.3365 32.5393C28.1553 29.5955 26.5292 27.3382 24.8594 25.1257C23.9626 23.9372 22.9146 22.8632 21.924 21.7247H21.923ZM29.3021 22.0862C29.2563 22.0924 29.1136 22.1028 28.974 22.1299C28.6886 22.1862 28.4688 22.3278 28.5355 22.6549C28.6021 22.9841 28.8344 23.0632 29.1584 23.0018C29.8709 22.8664 30.4282 23.3205 30.4824 24.0559C30.5115 24.4497 30.6751 24.633 30.9813 24.5976C31.3469 24.5559 31.3907 24.2851 31.3771 23.9955C31.3292 22.9289 30.4542 22.0893 29.3011 22.0872L29.3021 22.0862ZM35.2271 28.8591C35.1688 28.0132 34.5782 27.2382 33.8396 27.0872C33.5949 27.0372 33.3865 27.0841 33.298 27.3351C33.2105 27.583 33.2751 27.7862 33.5344 27.9153C34.3042 28.2976 34.3969 28.5216 34.1584 29.3559C34.0834 29.6195 34.1584 29.8164 34.4199 29.9237C34.673 30.0278 34.8688 29.9257 34.9646 29.7007C35.0782 29.4309 35.1417 29.1403 35.2261 28.8591H35.2271Z" fill="#16343A"/>
<path d="M24.6073 13.468C24.1708 13.2523 23.7791 13.019 23.3593 12.8617C22.7927 12.6482 22.2104 12.468 21.6229 12.3211C21.1343 12.1992 20.8156 11.8711 20.8698 11.4409C20.926 10.994 21.2885 10.7107 21.8 10.77C22.8875 10.8961 23.8677 11.343 24.8229 11.8482C24.8864 11.8815 24.9468 12.0148 24.9323 12.0867C24.8375 12.5419 24.7218 12.993 24.6073 13.468Z" fill="white"/>
<path d="M32.6178 13.463C32.5188 12.9702 32.4146 12.5432 32.3563 12.1088C32.3417 11.9973 32.4407 11.7932 32.5355 11.7567C33.4011 11.4182 34.2761 11.1046 35.1521 10.7942C35.2698 10.7525 35.4094 10.7588 35.5386 10.7609C35.9438 10.7682 36.2584 11.0536 36.3073 11.4463C36.35 11.7942 36.1334 12.19 35.7719 12.2473C34.6521 12.4244 33.65 12.8911 32.6188 13.463H32.6178Z" fill="white"/>
<path d="M29.302 22.0884C30.4552 22.0905 31.3302 22.9301 31.3781 23.9968C31.3916 24.2874 31.3468 24.5572 30.9823 24.5989C30.676 24.6343 30.5125 24.4499 30.4833 24.0572C30.4291 23.3218 29.8718 22.8676 29.1593 23.003C28.8354 23.0645 28.6041 22.9853 28.5364 22.6562C28.4698 22.3301 28.6896 22.1874 28.975 22.1312C29.1146 22.1041 29.2562 22.0937 29.3031 22.0874L29.302 22.0884Z" fill="white"/>
<path d="M35.2271 28.8605C35.1417 29.1417 35.0792 29.4334 34.9657 29.7022C34.8698 29.9282 34.674 30.0292 34.4209 29.9251C34.1605 29.8178 34.0844 29.622 34.1594 29.3574C34.398 28.522 34.3053 28.299 33.5355 27.9167C33.2761 27.7876 33.2115 27.5845 33.299 27.3365C33.3875 27.0855 33.5959 27.0386 33.8407 27.0886C34.5782 27.2397 35.1698 28.0136 35.2282 28.8605H35.2271Z" fill="white"/>
</svg>
