<svg width="24" height="25" viewBox="0 0 24 25" fill="none" xmlns="http://www.w3.org/2000/svg">
<path d="M20.72 18.8181L19.78 17.8781C20.27 17.1381 20.56 16.2481 20.56 15.2881C20.56 12.6881 18.45 10.5781 15.85 10.5781C13.25 10.5781 11.14 12.6881 11.14 15.2881C11.14 17.8881 13.25 19.9981 15.85 19.9981C16.81 19.9981 17.69 19.7081 18.44 19.2181L19.38 20.1581C19.57 20.3481 19.81 20.4381 20.06 20.4381C20.31 20.4381 20.55 20.3481 20.74 20.1581C21.09 19.7981 21.09 19.1981 20.72 18.8181Z" fill="#16343A"/>
<path d="M19.58 4.59812V6.81812C19.58 7.62812 19.08 8.63812 18.58 9.14812L18.4 9.30812C18.26 9.43812 18.05 9.46812 17.87 9.40812C17.67 9.33812 17.47 9.28813 17.27 9.23812C16.83 9.12812 16.36 9.07812 15.88 9.07812C12.43 9.07812 9.63001 11.8781 9.63001 15.3281C9.63001 16.4681 9.94001 17.5881 10.53 18.5481C11.03 19.3881 11.73 20.0881 12.49 20.5581C12.72 20.7081 12.81 21.0281 12.61 21.2081C12.54 21.2681 12.47 21.3181 12.4 21.3681L11 22.2781C9.70001 23.0881 7.91001 22.1781 7.91001 20.5581V15.2081C7.91001 14.4981 7.51001 13.5881 7.11001 13.0881L3.32001 9.04813C2.82001 8.53813 2.42001 7.62812 2.42001 7.02812V4.69812C2.42001 3.48812 3.32001 2.57812 4.41001 2.57812H17.59C18.68 2.57812 19.58 3.48812 19.58 4.59812Z" fill="#16343A"/>
</svg>
