<svg width="22" height="26" viewBox="0 0 22 26" fill="none" xmlns="http://www.w3.org/2000/svg">
<path d="M20.6798 21.2463L17.4344 18.001C16.9305 17.497 16.2451 17.2148 15.5329 17.2148H14.6325L13.2887 17.8868H10.601C9.86193 17.8868 9.25721 18.4915 9.25721 19.2306V20.5744" stroke="white" stroke-width="0.84" stroke-linecap="round" stroke-linejoin="round"/>
<path d="M16.6481 25.2773L15.3042 23.9335H7.24125L1.19401 17.8863L2.24892 17.6242C3.27695 17.3689 4.37217 17.6041 5.19863 18.2693L7.91316 20.5739H13.2885" stroke="white" stroke-width="0.84" stroke-linecap="round" stroke-linejoin="round"/>
<path d="M5.4971 9.80618C5.4971 10.5229 6.0471 11.1006 6.73043 11.1006H8.12487C8.71932 11.1006 9.20265 10.5951 9.20265 9.97285C9.20265 9.29507 8.90821 9.05618 8.46932 8.90063L6.23043 8.12285C5.79154 7.9673 5.4971 7.72841 5.4971 7.05063C5.4971 6.42841 5.98043 5.92285 6.57487 5.92285H7.96932C8.65265 5.92285 9.20265 6.50063 9.20265 7.2173" stroke="white" stroke-width="0.833333" stroke-linecap="round" stroke-linejoin="round"/>
<path d="M7.34606 5.17773V11.8444" stroke="white" stroke-width="0.833333" stroke-linecap="round" stroke-linejoin="round"/>
<path d="M7.34606 14.0672C10.4143 14.0672 12.9016 11.5799 12.9016 8.51161C12.9016 5.44336 10.4143 2.95605 7.34606 2.95605C4.27781 2.95605 1.7905 5.44336 1.7905 8.51161C1.7905 11.5799 4.27781 14.0672 7.34606 14.0672Z" stroke="white" stroke-width="0.833333" stroke-linecap="round" stroke-linejoin="round"/>
</svg>
