<svg width="30" height="31" viewBox="0 0 30 31" fill="none" xmlns="http://www.w3.org/2000/svg">
<g clip-path="url(#clip0_300_32955)">
<path d="M27.5 14.5625H24.95C24.5 9.8 20.7 5.9875 15.9375 5.55V3C15.9375 2.4875 15.5125 2.0625 15 2.0625C14.4875 2.0625 14.0625 2.4875 14.0625 3V5.55C9.3 6 5.4875 9.8 5.05 14.5625H2.5C1.9875 14.5625 1.5625 14.9875 1.5625 15.5C1.5625 16.0125 1.9875 16.4375 2.5 16.4375H5.05C5.5 21.2 9.3 25.0125 14.0625 25.45V28C14.0625 28.5125 14.4875 28.9375 15 28.9375C15.5125 28.9375 15.9375 28.5125 15.9375 28V25.45C20.7 25 24.5125 21.2 24.95 16.4375H27.5C28.0125 16.4375 28.4375 16.0125 28.4375 15.5C28.4375 14.9875 28.0125 14.5625 27.5 14.5625ZM15 19.4C12.85 19.4 11.1 17.65 11.1 15.5C11.1 13.35 12.85 11.6 15 11.6C17.15 11.6 18.9 13.35 18.9 15.5C18.9 17.65 17.15 19.4 15 19.4Z" fill="#16343A"/>
</g>
<defs>
<clipPath id="clip0_300_32955">
<rect width="30" height="30" fill="white" transform="translate(0 0.5)"/>
</clipPath>
</defs>
</svg>
