<svg width="32" height="31" viewBox="0 0 32 31" fill="none" xmlns="http://www.w3.org/2000/svg">
<path d="M25.2583 8.56936C24.7057 5.78016 22.6362 4.55908 19.7571 4.55908H8.47172C5.0784 4.55908 2.81619 6.25574 2.81619 10.2146V16.8341C2.81619 19.6876 3.98586 21.3586 5.91388 22.0784C6.19665 22.1812 6.50514 22.2712 6.82648 22.3226C7.34061 22.4383 7.89331 22.4897 8.47172 22.4897H19.7699C23.1632 22.4897 25.4254 20.793 25.4254 16.8341V10.2146C25.4254 9.6105 25.374 9.07065 25.2583 8.56936ZM7.72622 15.4588C7.72622 15.9858 7.2892 16.4228 6.76221 16.4228C6.23522 16.4228 5.7982 15.9858 5.7982 15.4588V11.6028C5.7982 11.0758 6.23522 10.6388 6.76221 10.6388C7.2892 10.6388 7.72622 11.0758 7.72622 11.6028V15.4588ZM14.1144 16.9241C12.2378 16.9241 10.7211 15.4074 10.7211 13.5308C10.7211 11.6542 12.2378 10.1375 14.1144 10.1375C15.991 10.1375 17.5077 11.6542 17.5077 13.5308C17.5077 15.4074 15.991 16.9241 14.1144 16.9241ZM22.4177 15.4588C22.4177 15.9858 21.9807 16.4228 21.4537 16.4228C20.9267 16.4228 20.4897 15.9858 20.4897 15.4588V11.6028C20.4897 11.0758 20.9267 10.6388 21.4537 10.6388C21.9807 10.6388 22.4177 11.0758 22.4177 11.6028V15.4588Z" fill="#F2DCA5"/>
<path d="M29.2815 14.0703V20.6899C29.2815 24.6487 27.0193 26.3582 23.6131 26.3582H12.3278C11.3638 26.3582 10.5026 26.2169 9.75708 25.9341C9.15296 25.7156 8.62597 25.3942 8.20181 24.9829C7.97044 24.7644 8.15039 24.4174 8.47173 24.4174H19.7571C24.5129 24.4174 27.3406 21.5896 27.3406 16.8467V10.2143C27.3406 9.9058 27.6877 9.713 27.9062 9.94436C28.7802 10.8698 29.2815 12.2194 29.2815 14.0703Z" fill="#F2DCA5"/>
</svg>
