<svg width="30" height="31" viewBox="0 0 30 31" fill="none" xmlns="http://www.w3.org/2000/svg">
<path d="M23.9625 8.79941C23.425 6.08691 21.4125 4.89941 18.6125 4.89941H7.63751C4.33751 4.89941 2.13751 6.54941 2.13751 10.3994V16.8369C2.13751 19.6119 3.27501 21.2369 5.15001 21.9369C5.42501 22.0369 5.72501 22.1244 6.03751 22.1744C6.53751 22.2869 7.07501 22.3369 7.63751 22.3369H18.625C21.925 22.3369 24.125 20.6869 24.125 16.8369V10.3994C24.125 9.81191 24.075 9.28691 23.9625 8.79941ZM6.91251 15.4994C6.91251 16.0119 6.48751 16.4369 5.97501 16.4369C5.46251 16.4369 5.03751 16.0119 5.03751 15.4994V11.7494C5.03751 11.2369 5.46251 10.8119 5.97501 10.8119C6.48751 10.8119 6.91251 11.2369 6.91251 11.7494V15.4994ZM13.125 16.9244C11.3 16.9244 9.82501 15.4494 9.82501 13.6244C9.82501 11.7994 11.3 10.3244 13.125 10.3244C14.95 10.3244 16.425 11.7994 16.425 13.6244C16.425 15.4494 14.95 16.9244 13.125 16.9244ZM21.2 15.4994C21.2 16.0119 20.775 16.4369 20.2625 16.4369C19.75 16.4369 19.325 16.0119 19.325 15.4994V11.7494C19.325 11.2369 19.75 10.8119 20.2625 10.8119C20.775 10.8119 21.2 11.2369 21.2 11.7494V15.4994Z" fill="#16343A"/>
<path d="M27.875 14.1508V20.5883C27.875 24.4383 25.675 26.1008 22.3625 26.1008H11.3875C10.45 26.1008 9.61252 25.9633 8.88752 25.6883C8.30002 25.4758 7.78752 25.1633 7.37502 24.7633C7.15002 24.5508 7.32502 24.2133 7.63752 24.2133H18.6125C23.2375 24.2133 25.9875 21.4633 25.9875 16.8508V10.4008C25.9875 10.1008 26.325 9.91333 26.5375 10.1383C27.3875 11.0383 27.875 12.3508 27.875 14.1508Z" fill="#16343A"/>
</svg>
