<svg width="31" height="31" viewBox="0 0 31 31" fill="none" xmlns="http://www.w3.org/2000/svg">
<path d="M24.4627 8.80002C23.9252 6.08752 21.9127 4.90002 19.1127 4.90002H8.1377C4.8377 4.90002 2.6377 6.55002 2.6377 10.4V16.8375C2.6377 19.6125 3.7752 21.2375 5.6502 21.9375C5.9252 22.0375 6.2252 22.125 6.5377 22.175C7.0377 22.2875 7.5752 22.3375 8.1377 22.3375H19.1252C22.4252 22.3375 24.6252 20.6875 24.6252 16.8375V10.4C24.6252 9.81252 24.5752 9.28752 24.4627 8.80002ZM7.4127 15.5C7.4127 16.0125 6.9877 16.4375 6.4752 16.4375C5.9627 16.4375 5.5377 16.0125 5.5377 15.5V11.75C5.5377 11.2375 5.9627 10.8125 6.4752 10.8125C6.9877 10.8125 7.4127 11.2375 7.4127 11.75V15.5ZM13.6252 16.925C11.8002 16.925 10.3252 15.45 10.3252 13.625C10.3252 11.8 11.8002 10.325 13.6252 10.325C15.4502 10.325 16.9252 11.8 16.9252 13.625C16.9252 15.45 15.4502 16.925 13.6252 16.925ZM21.7002 15.5C21.7002 16.0125 21.2752 16.4375 20.7627 16.4375C20.2502 16.4375 19.8252 16.0125 19.8252 15.5V11.75C19.8252 11.2375 20.2502 10.8125 20.7627 10.8125C21.2752 10.8125 21.7002 11.2375 21.7002 11.75V15.5Z" fill="white"/>
<path d="M28.3752 14.15V20.5875C28.3752 24.4375 26.1752 26.1 22.8627 26.1H11.8877C10.9502 26.1 10.1127 25.9625 9.3877 25.6875C8.8002 25.475 8.2877 25.1625 7.8752 24.7625C7.6502 24.55 7.8252 24.2125 8.1377 24.2125H19.1127C23.7377 24.2125 26.4877 21.4625 26.4877 16.85V10.4C26.4877 10.1 26.8252 9.91248 27.0377 10.1375C27.8877 11.0375 28.3752 12.35 28.3752 14.15Z" fill="white"/>
</svg>
