<svg width="31" height="31" viewBox="0 0 31 31" fill="none" xmlns="http://www.w3.org/2000/svg">
<path d="M27.9625 22.9359C27.9625 23.3859 27.8625 23.8484 27.65 24.2984C27.4375 24.7484 27.1625 25.1734 26.8 25.5734C26.1875 26.2484 25.5125 26.7359 24.75 27.0484C24 27.3609 23.1875 27.5234 22.3125 27.5234C21.0375 27.5234 19.675 27.2234 18.2375 26.6109C16.8 25.9984 15.3625 25.1734 13.9375 24.1359C12.5 23.0859 11.1375 21.9234 9.8375 20.6359C8.55 19.3359 7.3875 17.9734 6.35 16.5484C5.325 15.1234 4.5 13.6984 3.9 12.2859C3.3 10.8609 3 9.49844 3 8.19844C3 7.34844 3.15 6.53594 3.45 5.78594C3.75 5.02344 4.225 4.32344 4.8875 3.69844C5.6875 2.91094 6.5625 2.52344 7.4875 2.52344C7.8375 2.52344 8.1875 2.59844 8.5 2.74844C8.825 2.89844 9.1125 3.12344 9.3375 3.44844L12.2375 7.53594C12.4625 7.84844 12.625 8.13594 12.7375 8.41094C12.85 8.67344 12.9125 8.93594 12.9125 9.17344C12.9125 9.47344 12.825 9.77344 12.65 10.0609C12.4875 10.3484 12.25 10.6484 11.95 10.9484L11 11.9359C10.8625 12.0734 10.8 12.2359 10.8 12.4359C10.8 12.5359 10.8125 12.6234 10.8375 12.7234C10.875 12.8234 10.9125 12.8984 10.9375 12.9734C11.1625 13.3859 11.55 13.9234 12.1 14.5734C12.6625 15.2234 13.2625 15.8859 13.9125 16.5484C14.5875 17.2109 15.2375 17.8234 15.9 18.3859C16.55 18.9359 17.0875 19.3109 17.5125 19.5359C17.575 19.5609 17.65 19.5984 17.7375 19.6359C17.8375 19.6734 17.9375 19.6859 18.05 19.6859C18.2625 19.6859 18.425 19.6109 18.5625 19.4734L19.5125 18.5359C19.825 18.2234 20.125 17.9859 20.4125 17.8359C20.7 17.6609 20.9875 17.5734 21.3 17.5734C21.5375 17.5734 21.7875 17.6234 22.0625 17.7359C22.3375 17.8484 22.625 18.0109 22.9375 18.2234L27.075 21.1609C27.4 21.3859 27.625 21.6484 27.7625 21.9609C27.8875 22.2734 27.9625 22.5859 27.9625 22.9359Z" fill="url(#paint0_linear_1592_21019)"/>
<defs>
<linearGradient id="paint0_linear_1592_21019" x1="13.347" y1="16.3615" x2="27.9625" y2="16.3615" gradientUnits="userSpaceOnUse">
<stop stop-color="#24645E"/>
<stop offset="0.711538" stop-color="#18383D"/>
<stop offset="1" stop-color="#17343B"/>
</linearGradient>
</defs>
</svg>
