<svg width="150" height="150" viewBox="0 0 150 150" fill="none" xmlns="http://www.w3.org/2000/svg">
<path d="M120.25 34.875H117.75L96.625 13.75C94.9375 12.0625 92.1875 12.0625 90.4375 13.75C88.75 15.4375 88.75 18.1875 90.4375 19.9375L105.375 34.875H44.625L59.5625 19.9375C61.25 18.25 61.25 15.5 59.5625 13.75C57.875 12.0625 55.125 12.0625 53.375 13.75L32.3125 34.875H29.8125C24.1875 34.875 12.5 34.875 12.5 50.875C12.5 56.9375 13.75 60.9375 16.375 63.5625C17.875 65.125 19.6875 65.9375 21.625 66.375C23.4375 66.8125 25.375 66.875 27.25 66.875H122.75C124.688 66.875 126.5 66.75 128.25 66.375C133.5 65.125 137.5 61.375 137.5 50.875C137.5 34.875 125.812 34.875 120.25 34.875Z" fill="url(#paint0_linear_245_60513)"/>
<path d="M119.312 75H30.6871C26.8121 75 23.8746 78.4375 24.4996 82.25L29.7496 114.375C31.4996 125.125 36.1871 137.5 56.9996 137.5H92.0621C113.125 137.5 116.875 126.938 119.125 115.125L125.437 82.4375C126.187 78.5625 123.25 75 119.312 75ZM86.9996 118.062C86.1246 119 84.9371 119.438 83.6871 119.438C82.4996 119.438 81.3121 119 80.3746 118.062L75.1246 112.75L69.6246 118.25C68.6871 119.188 67.4996 119.625 66.3121 119.625C65.0621 119.625 63.8746 119.188 62.9996 118.25C61.1246 116.438 61.1246 113.5 62.9996 111.625L68.4996 106.125L63.1871 100.875C61.3121 99 61.3121 96.0625 63.1871 94.25C64.9996 92.375 67.9371 92.375 69.8121 94.25L75.1246 99.5L80.1871 94.4375C82.0621 92.5625 84.9996 92.5625 86.8121 94.4375C88.6871 96.25 88.6871 99.1875 86.8121 101.062L81.7496 106.125L86.9996 111.438C88.8746 113.312 88.8746 116.25 86.9996 118.062Z" fill="url(#paint1_linear_245_60513)"/>
<defs>
<linearGradient id="paint0_linear_245_60513" x1="3.85696" y1="42.5907" x2="137.5" y2="42.5907" gradientUnits="userSpaceOnUse">
<stop stop-color="#24645E"/>
<stop offset="0.65" stop-color="#18383D"/>
<stop offset="1" stop-color="#17343B"/>
</linearGradient>
<linearGradient id="paint1_linear_245_60513" x1="17.4223" y1="109.595" x2="125.555" y2="109.595" gradientUnits="userSpaceOnUse">
<stop stop-color="#24645E"/>
<stop offset="0.65" stop-color="#18383D"/>
<stop offset="1" stop-color="#17343B"/>
</linearGradient>
</defs>
</svg>
