<svg width="32" height="31" viewBox="0 0 32 31" fill="none" xmlns="http://www.w3.org/2000/svg">
<path d="M3.38562 2.60547H5.62213C7.01031 2.60547 8.10285 3.80084 7.98716 5.17616L6.92032 17.9782C6.74038 20.0733 8.39846 21.8728 10.5064 21.8728H24.1954C26.0463 21.8728 27.6658 20.3561 27.8072 18.5181L28.5013 8.87797C28.6555 6.74429 27.036 5.00906 24.8895 5.00906H8.29566" stroke="#16343A" stroke-width="1.92802" stroke-miterlimit="10" stroke-linecap="round" stroke-linejoin="round"/>
<path d="M21.7018 28.3125C22.5892 28.3125 23.3085 27.5932 23.3085 26.7058C23.3085 25.8185 22.5892 25.0991 21.7018 25.0991C20.8145 25.0991 20.0951 25.8185 20.0951 26.7058C20.0951 27.5932 20.8145 28.3125 21.7018 28.3125Z" stroke="#16343A" stroke-width="1.92802" stroke-miterlimit="10" stroke-linecap="round" stroke-linejoin="round"/>
<path d="M11.419 28.3125C12.3064 28.3125 13.0257 27.5932 13.0257 26.7058C13.0257 25.8185 12.3064 25.0991 11.419 25.0991C10.5317 25.0991 9.81235 25.8185 9.81235 26.7058C9.81235 27.5932 10.5317 28.3125 11.419 28.3125Z" stroke="#16343A" stroke-width="1.92802" stroke-miterlimit="10" stroke-linecap="round" stroke-linejoin="round"/>
<path d="M12.383 10.3174H27.8072" stroke="#16343A" stroke-width="1.92802" stroke-miterlimit="10" stroke-linecap="round" stroke-linejoin="round"/>
</svg>
