<svg width="35" height="50" viewBox="0 0 35 50" fill="none" xmlns="http://www.w3.org/2000/svg">
<path d="M4.29857 39.5579C9.39036 36.6261 14.73 34.5298 20.0768 32.4336C20.4238 32.2991 20.8133 32.2424 21.1815 32.2283C22.2084 32.1999 23.2352 32.1999 24.2621 32.2283C25.7563 32.2637 26.7903 33.503 26.4503 34.8414C26.2237 35.7408 25.5297 36.1374 24.7011 36.4348C23.1148 37.0085 21.5568 37.6458 19.9847 38.2549C19.9139 38.2832 19.8572 38.3328 19.6589 38.4602C19.9634 38.524 20.1405 38.5948 20.3175 38.5948C21.5568 38.6019 22.8032 38.616 24.0425 38.5948C24.3046 38.5948 24.6162 38.4956 24.8215 38.3328C26.0467 37.3767 27.286 36.4278 28.4545 35.408C29.3468 34.6219 30.1612 33.7438 30.9827 32.8727C31.4147 32.4195 31.9104 32.207 32.5265 32.2212C33.1426 32.2354 33.7516 32.207 34.3678 32.2283C34.906 32.2495 35.1609 32.6249 34.8918 33.0639C32.7106 36.6261 30.3382 40.0324 27.0594 42.7022C25.5722 43.9132 23.8867 44.5576 21.9463 44.5647C19.4465 44.5789 16.9466 44.6426 14.4467 44.763C13.0091 44.8267 11.5857 45.0392 10.0065 45.2021C10.5234 45.7261 10.9342 46.1369 11.3449 46.5547C11.7769 46.9938 11.784 47.2133 11.3591 47.6453C10.7571 48.2614 10.1481 48.8704 9.532 49.4795C9.1425 49.8619 8.90172 49.8619 8.51931 49.4795C5.77866 46.7317 3.03802 43.9911 0.297373 41.2363C-0.0992058 40.8326 -0.0992058 40.6343 0.297373 40.2307C0.913487 39.6075 1.53668 38.9843 2.15988 38.3611C2.55646 37.9645 2.76183 37.9645 3.16549 38.3682C3.54791 38.7577 3.91616 39.1613 4.29857 39.5579ZM5.04924 40.259C6.43018 41.6399 7.68366 42.9005 8.95129 44.1398C9.0646 44.246 9.30538 44.2744 9.48243 44.2531C11.4441 44.0619 13.3916 43.7786 15.3603 43.6583C17.7256 43.5166 20.0909 43.5095 22.4633 43.46C23.738 43.4316 24.864 43.0209 25.8767 42.2773C26.3583 41.9232 26.8328 41.562 27.2718 41.1584C29.708 38.9205 31.62 36.2578 33.4046 33.4817C33.433 33.4322 33.433 33.3684 33.4542 33.2835C33.2559 33.2835 33.086 33.3047 32.9231 33.2835C32.307 33.1914 31.8679 33.4322 31.4572 33.8996C30.8835 34.5582 30.2674 35.2026 29.6017 35.7762C28.2491 36.9447 26.8611 38.0707 25.4589 39.1755C25.1473 39.4234 24.7153 39.6287 24.3329 39.6429C22.9095 39.6995 21.486 39.6783 20.0626 39.6571C19.3473 39.6429 18.7171 39.0551 18.5967 38.3823C18.5258 37.9716 18.625 37.6671 19.0428 37.5042C20.8557 36.796 22.6758 36.0878 24.4887 35.3726C24.6728 35.3018 24.864 35.2309 25.0269 35.1176C25.551 34.7565 25.6359 34.0837 25.1473 33.673C24.9065 33.4676 24.5383 33.3189 24.2196 33.3047C23.1644 33.2622 22.1021 33.2835 21.0399 33.2905C20.8487 33.2905 20.6433 33.3401 20.4663 33.4109C17.1945 34.7635 13.9085 36.0808 10.6651 37.4971C8.78841 38.3186 6.98256 39.2959 5.04924 40.2519V40.259ZM10.2897 47.1708C7.71907 44.593 5.14838 42.0224 2.59895 39.4658C2.20237 39.8483 1.77038 40.2802 1.38088 40.6556C3.95157 43.2263 6.52225 45.7969 9.07168 48.3605C9.46826 47.971 9.90025 47.5461 10.2827 47.1708H10.2897Z" fill="url(#paint0_linear_833_17716)"/>
<path d="M29.8709 0.8988C30.402 0.884636 30.6641 1.2883 30.4658 1.65655C30.3879 1.79818 30.2604 1.91857 30.1471 2.03188C27.9588 4.22723 25.7706 6.4155 23.5894 8.61085C23.5186 8.68166 23.4548 8.75248 23.3769 8.81622C23.1291 9.02867 22.867 9.07116 22.6263 8.83038C22.3926 8.59668 22.4138 8.32757 22.6263 8.07971C22.6829 8.01598 22.7396 7.95932 22.7962 7.90267C25.0199 5.67899 27.2365 3.44824 29.4673 1.22456C29.6089 1.08293 29.793 0.969618 29.878 0.905882L29.8709 0.8988Z" fill="url(#paint1_linear_833_17716)"/>
<path d="M30.0265 30.203C29.8211 30.0684 29.6582 29.9976 29.5307 29.8702C27.2433 27.5898 24.9701 25.3024 22.6898 23.015C22.4348 22.753 22.3427 22.4697 22.6119 22.1864C22.888 21.9032 23.1784 22.0023 23.4333 22.2643C25.7137 24.5517 28.0011 26.8321 30.2672 29.1337C30.416 29.2895 30.4726 29.601 30.4514 29.8277C30.4372 29.9551 30.1893 30.0684 30.0265 30.203Z" fill="url(#paint2_linear_833_17716)"/>
<path d="M29.5805 16.0466C28.7519 16.0466 27.9304 16.0466 27.1019 16.0466C26.7194 16.0466 26.3724 15.9617 26.3724 15.5084C26.3724 15.0552 26.7194 14.9702 27.1019 14.9702C28.7873 14.9702 30.4728 14.9702 32.1582 14.9702C32.5336 14.9702 32.8523 15.0694 32.8664 15.4872C32.8806 15.9333 32.5548 16.0537 32.1582 16.0537C31.3013 16.0537 30.4374 16.0537 29.5805 16.0537V16.0466Z" fill="url(#paint3_linear_833_17716)"/>
<path d="M13.8022 22.0237C11.0403 22.0237 8.328 22.0661 5.61569 22.0095C4.14268 21.9812 3.03792 20.6002 3.25037 19.1697C4.05061 19.1697 4.85794 19.198 5.66526 19.1555C5.87771 19.1414 6.17515 18.9643 6.26721 18.7802C6.43717 18.4403 6.16098 18.1358 5.70775 18.1287C5.06331 18.1145 4.41887 18.1287 3.76734 18.1287C3.5903 18.1287 3.41326 18.1287 3.21497 18.1287V16.0537C3.71777 16.0537 4.22058 16.0537 4.72338 16.0537C5.02082 16.0537 5.31825 16.0537 5.61569 16.0537C5.99102 16.0537 6.29553 15.9404 6.28845 15.5084C6.28845 15.0764 5.96977 14.9773 5.60152 14.9773C4.82253 14.9773 4.04353 14.9773 3.22913 14.9773V12.9094C3.83108 12.9094 4.45428 12.9094 5.07747 12.9094C5.32533 12.9094 5.57319 12.9094 5.82106 12.8953C6.13265 12.874 6.30262 12.6828 6.29553 12.3712C6.28845 12.0596 6.10433 11.8755 5.79273 11.8755C5.06331 11.8684 4.33389 11.8755 3.60446 11.8755C3.49115 11.8755 3.37785 11.8755 3.27162 11.8755C2.9671 10.6149 4.05061 9.04278 5.31825 9.02153C8.12971 8.97196 10.9483 9.00737 13.8022 9.00737V22.0449V22.0237Z" fill="url(#paint4_linear_833_17716)"/>
<path d="M18.4974 3.93701V27.1581C18.1929 26.7545 17.9592 26.45 17.7255 26.1384C16.8686 24.9982 16.0047 23.8651 15.169 22.7108C15.0274 22.5125 14.9282 22.2363 14.9282 21.9884C14.9141 17.6756 14.9141 13.3558 14.9282 9.04297C14.9282 8.8376 14.9636 8.59682 15.0769 8.44102C16.1534 6.96801 17.2581 5.51625 18.3487 4.0574C18.377 4.02199 18.4195 4.00075 18.4974 3.94409V3.93701Z" fill="url(#paint5_linear_833_17716)"/>
<path d="M11.2526 23.0858C11.1888 23.2911 11.1534 23.4328 11.1038 23.5673C10.3036 25.7768 9.4892 27.9863 8.70313 30.2029C8.58982 30.5145 8.46235 30.642 8.10826 30.6349C7.05308 30.6066 5.99081 30.6278 4.85773 30.6278C5.00644 30.2383 5.13392 29.9055 5.26139 29.5656C6.02622 27.5544 6.79813 25.5431 7.54172 23.5177C7.66919 23.1778 7.83207 23.0645 8.18616 23.0716C9.19177 23.0928 10.1974 23.0787 11.2526 23.0787V23.0858Z" fill="url(#paint6_linear_833_17716)"/>
<path d="M19.6234 11.2097C20.5581 12.017 21.3938 12.789 22.2861 13.4971C22.796 13.9008 23.0155 14.3469 22.9659 14.9843C22.9235 15.5438 22.9801 16.1174 22.9447 16.6768C22.9305 16.9105 22.8739 17.2221 22.7181 17.3496C21.7266 18.1923 20.6998 18.9997 19.6234 19.8636V11.2026V11.2097Z" fill="url(#paint7_linear_833_17716)"/>
<path d="M5.04895 40.2588C6.98227 39.3028 8.78812 38.3255 10.6648 37.504C13.9082 36.0877 17.1942 34.7705 20.466 33.4179C20.643 33.347 20.8484 33.2975 21.0396 33.2975C22.1018 33.2833 23.1641 33.2621 24.2193 33.3116C24.538 33.3258 24.9062 33.4745 25.147 33.6799C25.6286 34.0906 25.5507 34.7634 25.0266 35.1246C24.8637 35.2379 24.6725 35.3087 24.4884 35.3795C22.6755 36.0948 20.8625 36.8029 19.0425 37.5111C18.6247 37.674 18.5256 37.9785 18.5964 38.3893C18.7168 39.062 19.34 39.6498 20.0623 39.664C21.4857 39.6923 22.9163 39.7065 24.3326 39.6498C24.715 39.6356 25.147 39.4303 25.4586 39.1824C26.8608 38.0777 28.2488 36.9446 29.6014 35.7832C30.2671 35.2095 30.8762 34.5722 31.4569 33.9065C31.8676 33.4391 32.2996 33.1983 32.9228 33.2904C33.0857 33.3116 33.2556 33.2904 33.4539 33.2904C33.4327 33.3754 33.4327 33.4391 33.4044 33.4887C31.6268 36.2576 29.7147 38.9204 27.2715 41.1653C26.8325 41.569 26.358 41.9301 25.8764 42.2842C24.8637 43.0278 23.7307 43.4386 22.463 43.4669C20.0977 43.5165 17.7253 43.5235 15.36 43.6652C13.3984 43.7785 11.4438 44.0618 9.48214 44.26C9.30509 44.2742 9.06431 44.26 8.951 44.1467C7.68337 42.9074 6.43698 41.6469 5.04895 40.2659V40.2588Z" fill="url(#paint8_linear_833_17716)"/>
<path d="M10.2895 47.1781C9.90712 47.5534 9.47514 47.9783 9.07856 48.3678C6.52204 45.8113 3.95844 43.2406 1.38776 40.6629C1.77017 40.2875 2.20924 39.8556 2.60582 39.4731C5.15526 42.0297 7.72594 44.6003 10.2966 47.1781H10.2895Z" fill="url(#paint9_linear_833_17716)"/>
<defs>
<linearGradient id="paint0_linear_833_17716" x1="-2.42011" y1="41.9264" x2="34.9999" y2="41.9264" gradientUnits="userSpaceOnUse">
<stop stop-color="#24645E"/>
<stop offset="0.65" stop-color="#18383D"/>
<stop offset="1" stop-color="#17343B"/>
</linearGradient>
<linearGradient id="paint1_linear_833_17716" x1="21.9007" y1="5.37946" x2="30.5319" y2="5.37946" gradientUnits="userSpaceOnUse">
<stop stop-color="#24645E"/>
<stop offset="0.65" stop-color="#18383D"/>
<stop offset="1" stop-color="#17343B"/>
</linearGradient>
<linearGradient id="paint2_linear_833_17716" x1="21.8956" y1="26.5475" x2="30.4557" y2="26.5475" gradientUnits="userSpaceOnUse">
<stop stop-color="#24645E"/>
<stop offset="0.65" stop-color="#18383D"/>
<stop offset="1" stop-color="#17343B"/>
</linearGradient>
<linearGradient id="paint3_linear_833_17716" x1="25.9234" y1="15.57" x2="32.8669" y2="15.57" gradientUnits="userSpaceOnUse">
<stop stop-color="#24645E"/>
<stop offset="0.65" stop-color="#18383D"/>
<stop offset="1" stop-color="#17343B"/>
</linearGradient>
<linearGradient id="paint4_linear_833_17716" x1="2.48292" y1="16.2184" x2="13.8022" y2="16.2184" gradientUnits="userSpaceOnUse">
<stop stop-color="#24645E"/>
<stop offset="0.65" stop-color="#18383D"/>
<stop offset="1" stop-color="#17343B"/>
</linearGradient>
<linearGradient id="paint5_linear_833_17716" x1="14.6701" y1="16.7904" x2="18.4974" y2="16.7904" gradientUnits="userSpaceOnUse">
<stop stop-color="#24645E"/>
<stop offset="0.65" stop-color="#18383D"/>
<stop offset="1" stop-color="#17343B"/>
</linearGradient>
<linearGradient id="paint6_linear_833_17716" x1="4.41556" y1="27.2581" x2="11.2526" y2="27.2581" gradientUnits="userSpaceOnUse">
<stop stop-color="#24645E"/>
<stop offset="0.65" stop-color="#18383D"/>
<stop offset="1" stop-color="#17343B"/>
</linearGradient>
<linearGradient id="paint7_linear_833_17716" x1="19.3918" y1="15.9967" x2="22.9728" y2="15.9967" gradientUnits="userSpaceOnUse">
<stop stop-color="#24645E"/>
<stop offset="0.65" stop-color="#18383D"/>
<stop offset="1" stop-color="#17343B"/>
</linearGradient>
<linearGradient id="paint8_linear_833_17716" x1="3.08491" y1="39.3562" x2="33.4539" y2="39.3562" gradientUnits="userSpaceOnUse">
<stop stop-color="#24645E"/>
<stop offset="0.65" stop-color="#18383D"/>
<stop offset="1" stop-color="#17343B"/>
</linearGradient>
<linearGradient id="paint9_linear_833_17716" x1="0.771759" y1="44.3965" x2="10.2966" y2="44.3965" gradientUnits="userSpaceOnUse">
<stop stop-color="#24645E"/>
<stop offset="0.65" stop-color="#18383D"/>
<stop offset="1" stop-color="#17343B"/>
</linearGradient>
</defs>
</svg>
