<svg  style="transform: rotate(-45deg); transform-origin: center;" width="14" height="17" viewBox="0 0 14 17" fill="none" xmlns="http://www.w3.org/2000/svg">
<path d="M6.02092 10.3631C6.07157 10.331 6.13045 10.3068 6.17201 10.2657C7.14176 9.29893 8.11066 8.33134 9.07695 7.36115C9.15185 7.28582 9.22544 7.19837 9.26571 7.10226C9.34796 6.90571 9.26527 6.67843 9.0908 6.55764C8.92196 6.44075 8.69511 6.44681 8.53059 6.57539C8.48817 6.60829 8.4505 6.64812 8.41241 6.68622C7.31753 7.78066 6.22266 8.87467 5.12822 9.96954C4.61823 10.48 4.53035 11.0315 4.85548 11.6831C5.28537 12.5437 5.71787 13.4031 6.143 14.2663C6.19106 14.3637 6.21833 14.4815 6.22006 14.5902C6.22742 15.1525 6.22353 15.7145 6.22353 16.2885H5.70401C5.70401 16.0297 5.68107 15.7695 5.70834 15.5145C5.77978 14.8434 5.6079 14.2464 5.27455 13.6646C4.94206 13.084 4.66672 12.4706 4.36887 11.8705C3.97404 11.0744 4.10305 10.2678 4.7269 9.63575C5.01133 9.34785 5.29966 9.06429 5.59881 8.76643C5.34642 8.5149 5.10571 8.27549 4.86543 8.03565C4.74291 7.91357 4.6191 7.79235 4.49831 7.6681C4.09309 7.25032 4.0879 6.63383 4.48489 6.2416C4.87842 5.85283 5.48885 5.85716 5.8997 6.25762C6.17374 6.52474 6.43999 6.79965 6.73222 7.0936V5.38917C6.68113 5.38917 6.62442 5.39004 6.5677 5.38917C6.05945 5.37921 5.54773 5.40346 5.0438 5.35194C3.81862 5.22639 2.76357 4.15663 2.61681 2.93317C2.60469 2.83144 2.5917 2.72883 2.58867 2.62666C2.58088 2.36258 2.66833 2.27253 2.92982 2.27253C3.51903 2.27209 4.10824 2.27253 4.66499 2.27253C4.66499 1.86947 4.66499 1.46728 4.66499 1.06509C4.66499 0.792782 4.75504 0.699703 5.02778 0.717453C5.83259 0.768538 6.45774 1.13479 6.90236 1.80756C6.93223 1.85259 6.9582 1.89978 6.99673 1.96298C7.02661 1.92229 7.05128 1.89155 7.07206 1.85865C7.54222 1.11531 8.21759 0.732172 9.09686 0.714422C9.41593 0.707928 9.73543 0.712257 10.0549 0.713556C10.2943 0.714422 10.3844 0.810532 10.3792 1.05297C10.3684 1.53395 10.1753 2.05476 9.86228 2.42795C9.73413 2.32578 9.60512 2.22317 9.47697 2.12057C9.55707 1.97597 9.64278 1.84523 9.70426 1.70323C9.76574 1.56166 9.80297 1.40927 9.85492 1.24822C9.01071 1.18631 8.21975 1.2019 7.65175 1.93181C7.43053 2.21581 7.30281 2.53575 7.27164 2.91975C7.64353 2.54484 7.99983 2.18551 8.36348 1.81839C8.49466 1.95822 8.60463 2.07598 8.71329 2.19157C8.41241 2.48769 8.10243 2.79291 7.79202 3.09855C7.80458 3.1137 7.81713 3.12842 7.82969 3.14358C7.87038 3.12409 7.91194 3.10634 7.95134 3.08427C8.30461 2.89031 8.68255 2.79204 9.08561 2.79161C9.75145 2.79074 10.4173 2.79074 11.0831 2.79161C11.3342 2.79161 11.4243 2.88598 11.4191 3.13622C11.3935 4.33542 10.3701 5.3619 9.1644 5.38614C8.5964 5.3974 8.02797 5.38874 7.45953 5.38917C7.40109 5.38917 7.34221 5.38917 7.27337 5.38917V7.0923C7.56387 6.80138 7.83142 6.52907 8.1033 6.26108C8.3795 5.98877 8.71026 5.88963 9.08647 5.9918C9.81596 6.19008 10.0584 7.08278 9.53369 7.64039C9.26657 7.92396 8.98474 8.19324 8.70896 8.46858C8.58688 8.59067 8.46349 8.71145 8.32842 8.84436C8.78689 9.02316 9.01937 9.34959 9.04405 9.84312C9.33194 9.85525 9.59386 9.9414 9.79821 10.1553C10.0043 10.3709 10.0857 10.6323 10.0779 10.935C10.1138 10.9462 10.1476 10.9609 10.1831 10.967C10.8849 11.0891 11.2282 11.8138 10.8628 12.429C10.5731 12.9169 10.2588 13.3905 9.96661 13.8771C9.90687 13.9767 9.86834 14.1053 9.86661 14.2213C9.85708 14.8707 9.86228 15.5201 9.86185 16.1695V16.2898H9.34233V16.1093C9.34233 15.4383 9.33627 14.7672 9.34753 14.0962C9.34969 13.9646 9.39428 13.8191 9.46182 13.7057C9.76704 13.1953 10.0909 12.6961 10.4021 12.1892C10.5926 11.8792 10.4437 11.5302 10.1056 11.48C9.94194 11.4558 9.81163 11.5207 9.6982 11.6346C9.3393 11.9952 8.97824 12.3537 8.62021 12.7152C8.57908 12.7567 8.55267 12.8134 8.51544 12.8684C8.36652 12.7156 8.25395 12.6 8.13014 12.4727C8.16737 12.4338 8.20633 12.3909 8.24703 12.3502C8.6332 11.9632 9.02024 11.5774 9.40554 11.1895C9.55274 11.041 9.59603 10.8631 9.51983 10.6678C9.451 10.4921 9.31376 10.3929 9.125 10.3735C8.95616 10.3561 8.82325 10.4289 8.70636 10.5466C8.33275 10.9233 7.95697 11.2973 7.58162 11.6722C7.54006 11.7138 7.49677 11.7536 7.44741 11.8004C7.33095 11.6757 7.22142 11.5584 7.09804 11.4263C7.12575 11.3969 7.16384 11.354 7.20367 11.3142C7.57859 10.9389 7.95437 10.5644 8.32842 10.1886C8.56003 9.95612 8.57865 9.67212 8.37734 9.46994C8.17559 9.26733 7.89116 9.28465 7.65911 9.51626C7.24913 9.92538 6.84088 10.3354 6.44345 10.7332C6.3244 10.6085 6.20837 10.4878 6.09278 10.3665C6.06854 10.3648 6.04473 10.3631 6.02048 10.3618L6.02092 10.3631ZM3.11424 2.75957C3.13849 2.89637 3.14628 2.97733 3.16793 3.05439C3.20429 3.18384 3.23763 3.31631 3.29261 3.4384C3.8013 4.56271 4.80439 4.99347 6.0772 4.84888C5.37759 4.40296 4.69356 3.967 4.00521 3.52802C4.10391 3.37476 4.19093 3.23925 4.28531 3.09292C5.0819 3.59945 5.86939 4.09991 6.67377 4.6112C6.66554 4.56617 6.66381 4.53977 6.65645 4.51552C6.39367 3.64058 5.82653 3.0453 4.93297 2.8704C4.35241 2.75654 3.74199 2.79291 3.11424 2.76V2.75957ZM9.4839 3.59858C9.56226 3.75444 9.63629 3.90163 9.71638 4.06095C9.18994 4.32503 8.67866 4.58176 8.16694 4.83849C8.49077 4.86793 8.80377 4.87442 9.11634 4.86663C9.60252 4.8545 10.0229 4.67614 10.3671 4.33196C10.6454 4.05359 10.819 3.71937 10.874 3.32021C10.2017 3.32021 9.53931 3.27865 8.8843 3.33147C8.15568 3.38991 7.65348 3.81591 7.37814 4.49691C7.35823 4.54626 7.3474 4.59951 7.32446 4.677C8.06217 4.30858 8.76741 3.95618 9.48433 3.59815L9.4839 3.59858ZM6.61229 7.70923C6.24474 7.34037 5.87848 6.96502 5.5027 6.60007C5.32001 6.42257 5.03471 6.43469 4.85634 6.60569C4.68317 6.77194 4.64724 7.06287 4.81478 7.23734C5.18796 7.6261 5.57933 7.99755 5.95338 8.36598C6.16984 8.15038 6.38631 7.93435 6.61229 7.70879V7.70923ZM5.1516 1.26337C5.1884 1.61058 5.2213 1.9409 5.26026 2.27079C5.27238 2.37513 5.34642 2.42145 5.43993 2.47297C5.73562 2.63619 6.02957 2.80762 6.30318 3.00461C6.46423 3.12063 6.58632 3.29164 6.72745 3.44013C6.87681 2.35435 6.15512 1.32658 5.1516 1.26337Z" fill="white"/>
<path d="M4.04893 8.70363C3.00341 9.57512 1.97348 10.4332 0.932719 11.3003C0.820158 11.1661 0.713658 11.0393 0.599365 10.9029C1.63882 10.0366 2.66876 9.17812 3.71471 8.30664C3.82294 8.43522 3.92901 8.5612 4.0485 8.70363H4.04893Z" fill="white"/>
<path d="M13.4002 10.9054C13.2859 11.0431 13.1833 11.1665 13.0686 11.3046C12.0295 10.4391 10.997 9.57891 9.95105 8.70786C10.0614 8.57582 10.1675 8.44897 10.284 8.30957C11.3213 9.17413 12.3508 10.0313 13.4002 10.9058V10.9054Z" fill="white"/>
<path d="M1.93497 7.69153C1.84839 7.5413 1.76873 7.40233 1.67651 7.24215C2.28001 6.89711 2.88005 6.5538 3.49308 6.20312C3.5788 6.35205 3.65932 6.49102 3.7524 6.65207C3.1489 6.99755 2.54886 7.34042 1.93497 7.69153Z" fill="white"/>
<path d="M12.3248 7.24313C12.2352 7.39898 12.153 7.54185 12.0664 7.69294C11.4572 7.34486 10.8594 7.00285 10.2507 6.65478C10.3381 6.50109 10.4191 6.35866 10.507 6.2041C11.1196 6.55391 11.717 6.89549 12.3253 7.24313H12.3248Z" fill="white"/>
<path d="M1.93066 1.19657C2.02331 1.04245 2.106 0.904343 2.19778 0.751953C2.63287 1.01258 3.05714 1.26714 3.49526 1.52992C3.40521 1.67972 3.32036 1.82042 3.22815 1.97454C2.79435 1.71478 2.37052 1.46022 1.93066 1.197V1.19657Z" fill="white"/>
<path d="M1.16264 5.60767C1.07259 5.45875 0.989903 5.32151 0.894226 5.16392C1.32369 4.9059 1.75012 4.64917 2.19171 4.38379C2.28003 4.52969 2.36531 4.67169 2.46012 4.82841C2.0285 5.08773 1.60163 5.34402 1.16264 5.60767Z" fill="white"/>
<path d="M11.8062 4.39203C12.2443 4.65482 12.6643 4.90635 13.1011 5.16827C13.0132 5.31677 12.9296 5.4579 12.8366 5.61462C12.4023 5.35443 11.9755 5.09814 11.5382 4.83578C11.6291 4.68513 11.7118 4.54789 11.8062 4.3916V4.39203Z" fill="white"/>
<path d="M2.15838 2.28927C2.09344 2.45248 2.03456 2.60097 1.96745 2.76938C1.53323 2.59621 1.1068 2.42607 0.670837 2.25247C0.734478 2.09185 0.793789 1.94292 0.861758 1.77148C1.29512 1.94422 1.72069 2.11436 2.15838 2.28927Z" fill="white"/>
<path d="M13.1335 1.77637C13.1976 1.93655 13.2574 2.08504 13.3258 2.25605C12.8959 2.42879 12.4746 2.59806 12.0313 2.776C11.9664 2.61625 11.9053 2.46515 11.8365 2.29588C12.2703 2.12228 12.6963 1.9517 13.1335 1.7768V1.77637Z" fill="white"/>
<path d="M10.7451 1.54403C11.0983 1.27908 11.4347 1.02711 11.7828 0.765625C11.8888 0.905893 11.988 1.0375 12.0954 1.17907C11.7468 1.44056 11.4109 1.69295 11.0572 1.95877C10.9542 1.82197 10.8555 1.69036 10.7451 1.5436V1.54403Z" fill="white"/>
<path fill-rule="evenodd" clip-rule="evenodd" d="M6.61216 7.70956C6.61223 7.70949 6.61231 7.70942 6.61238 7.70934V7.70978C6.61231 7.7097 6.61223 7.70963 6.61216 7.70956ZM6.20376 7.29791C6.23685 7.3313 6.26993 7.36469 6.30299 7.39806Z" fill="white"/>
</svg>
