<svg width="28" height="33" viewBox="0 0 28 33" fill="none" xmlns="http://www.w3.org/2000/svg">
<path d="M23.379 17.6627C23.3955 16.412 23.7358 15.1857 24.3682 14.0978C25.0006 13.01 25.9045 12.0961 26.9959 11.441C26.3026 10.4742 25.3879 9.67864 24.3245 9.11739C23.2612 8.55614 22.0784 8.24469 20.8701 8.20778C18.2928 7.94365 15.7941 9.71348 14.4807 9.71348C13.1419 9.71348 11.1198 8.23401 8.94225 8.27774C7.53376 8.32217 6.16109 8.72204 4.95796 9.43839C3.75483 10.1547 2.76229 11.1631 2.07703 12.3654C-0.891281 17.3828 1.32282 24.7568 4.16626 28.8126C5.5889 30.7986 7.25155 33.017 9.42713 32.9383C11.556 32.8521 12.3512 31.613 14.9209 31.613C17.4669 31.613 18.2128 32.9383 20.4325 32.8883C22.717 32.8521 24.1563 30.8935 25.529 28.8887C26.5512 27.4736 27.3377 25.9096 27.8596 24.2547C26.5324 23.7067 25.3998 22.7893 24.603 21.6171C23.8062 20.4448 23.3805 19.0695 23.379 17.6627Z" fill="white"/>
<path d="M19.1864 5.54014C20.4319 4.08033 21.0456 2.20398 20.897 0.30957C18.994 0.5047 17.2363 1.39263 15.9739 2.79643C15.3566 3.48222 14.8839 4.28006 14.5827 5.14433C14.2815 6.0086 14.1577 6.92235 14.2185 7.83335C15.1703 7.84291 16.1119 7.6415 16.9724 7.24428C17.8329 6.84706 18.5899 6.26439 19.1864 5.54014Z" fill="white"/>
</svg>
