<svg width="29" height="33" viewBox="0 0 29 33" fill="none" xmlns="http://www.w3.org/2000/svg">
<path d="M13.6536 15.893L0.444763 30.229C0.446004 30.2316 0.446004 30.2354 0.447244 30.2379C0.852926 31.7946 2.24242 32.9402 3.89244 32.9402C4.55245 32.9402 5.17151 32.7575 5.7025 32.4378L5.74468 32.4124L20.6122 23.6395L13.6536 15.893Z" fill="#EA4335"/>
<path d="M27.0161 13.4518L27.0037 13.4429L20.5847 9.63814L13.3532 16.2187L20.6108 23.6379L26.995 19.8712C28.114 19.2521 28.8745 18.0456 28.8745 16.6552C28.8745 15.2723 28.1252 14.0721 27.0161 13.4518Z" fill="#FBBC04"/>
<path d="M0.444517 3.01978C0.365118 3.31919 0.322937 3.63382 0.322937 3.9586V29.2915C0.322937 29.6162 0.365118 29.9309 0.445758 30.229L14.1074 16.2596L0.444517 3.01978Z" fill="#4285F4"/>
<path d="M13.7511 16.625L20.5869 9.63588L5.73673 0.831294C5.19706 0.500172 4.56683 0.309872 3.89317 0.309872C2.24315 0.309872 0.851181 1.45802 0.4455 3.01595C0.4455 3.01722 0.44426 3.01849 0.44426 3.01976L13.7511 16.625Z" fill="#34A853"/>
</svg>
