<?xml version="1.0" encoding="UTF-8"?>
<svg version="1.1" xmlns="http://www.w3.org/2000/svg" width="70" height="57">
<path d="M0 0 C1.32 0 2.64 0 4 0 C4 4.29 4 8.58 4 13 C5.98 13 7.96 13 10 13 C10 10.36 10 7.72 10 5 C11.2065625 5.0309375 11.2065625 5.0309375 12.4375 5.0625 C14.93354885 5.29633621 14.93354885 5.29633621 16 4 C23.13152401 3.53235908 23.13152401 3.53235908 26.4375 5.3125 C30.04377398 9.2072759 29 12.46678426 29 18 C20.42 18 11.84 18 3 18 C2.34 19.32 1.68 20.64 1 22 C-0.56941198 23.56941198 -2.14134994 23.2449847 -4.3125 23.3125 C-7.47061466 23.2571827 -8.78348237 23.12674203 -11.5625 21.5 C-13.65742367 17.85665449 -13.27769546 15.16543193 -13 11 C-11.35 11 -9.7 11 -8 11 C-8.020625 11.969375 -8.04125 12.93875 -8.0625 13.9375 C-8.35618499 16.87465895 -8.35618499 16.87465895 -7 18 C-5.33382885 18.04063832 -3.66611905 18.042721 -2 18 C-0.81304447 14.43913342 -0.64904582 11.02668976 -0.4375 7.3125 C-0.39431641 6.61060547 -0.35113281 5.90871094 -0.30664062 5.18554688 C-0.2008264 3.45724794 -0.09993419 1.7286489 0 0 Z M14 11 C14 11.66 14 12.32 14 13 C17.3 13 20.6 13 24 13 C23.67 11.68 23.34 10.36 23 9 C19.10950437 7.41498326 17.25380171 8.55964872 14 11 Z " fill="#C99D72" transform="translate(20,7)"/>
<path d="M0 0 C0.99 0 1.98 0 3 0 C3.495 6.435 3.495 6.435 4 13 C6.475 13.495 6.475 13.495 9 14 C9 9.38 9 4.76 9 0 C9.66 0 10.32 0 11 0 C11 5.61 11 11.22 11 17 C9.453125 16.814375 7.90625 16.62875 6.3125 16.4375 C2.59441047 16.05413766 -0.35075695 16.11533502 -4 17 C-4.99 16.67 -5.98 16.34 -7 16 C-7.825 16.165 -8.65 16.33 -9.5 16.5 C-12 17 -12 17 -15 16 C-16.2065625 16.2475 -16.2065625 16.2475 -17.4375 16.5 C-20.13586985 17.02651119 -21.40195297 16.67046375 -24 16 C-24.9590625 16.2475 -24.9590625 16.2475 -25.9375 16.5 C-28.56936962 17.138029 -30.36320231 16.56502808 -33 16 C-34.5778125 16.0309375 -34.5778125 16.0309375 -36.1875 16.0625 C-39 16 -39 16 -41 14 C-41.55979644 8.73791349 -41.55979644 8.73791349 -39.625 6.1875 C-38 5 -38 5 -36 4 C-36.66 4 -37.32 4 -38 4 C-38 3.01 -38 2.02 -38 1 C-36.02 1 -34.04 1 -32 1 C-32 1.99 -32 2.98 -32 4 C-31.34 4 -30.68 4 -30 4 C-29.67 6.97 -29.34 9.94 -29 13 C-27.68 13.33 -26.36 13.66 -25 14 C-25 11.36 -25 8.72 -25 6 C-24.01 6 -23.02 6 -22 6 C-21.67 8.31 -21.34 10.62 -21 13 C-19.68 13 -18.36 13 -17 13 C-16.67 10.69 -16.34 8.38 -16 6 C-15.34 6 -14.68 6 -14 6 C-13.67 8.31 -13.34 10.62 -13 13 C-11.68 13 -10.36 13 -9 13 C-8.67 10.69 -8.34 8.38 -8 6 C-7.34 6 -6.68 6 -6 6 C-5.505 9.96 -5.505 9.96 -5 14 C-3.68 13.67 -2.36 13.34 -1 13 C-0.505 6.565 -0.505 6.565 0 0 Z M-39 9 C-38.67 10.32 -38.34 11.64 -38 13 C-36.68 13 -35.36 13 -34 13 C-32.70366379 11.93354885 -32.70366379 11.93354885 -32.9375 9.4375 C-32.958125 8.633125 -32.97875 7.82875 -33 7 C-36.18490007 6.7226499 -36.18490007 6.7226499 -39 9 Z " fill="#1D4B4B" transform="translate(48,32)"/>
<path d="M0 0 C1.12492355 0.00565979 2.24984711 0.01131958 3.40885925 0.01715088 C6.99566509 0.03951032 10.58146571 0.08970833 14.16796875 0.140625 C16.6021991 0.16069045 19.03644513 0.17894114 21.47070312 0.1953125 C27.43263364 0.23937377 33.39397937 0.30628257 39.35546875 0.390625 C33.97154018 5.91741071 33.97154018 5.91741071 30.35546875 7.390625 C30.35546875 6.400625 30.35546875 5.410625 30.35546875 4.390625 C24.53460168 4.5085515 18.71391685 4.63277542 12.89331055 4.76293945 C10.91157729 4.80635644 8.92980497 4.84802637 6.94799805 4.88793945 C4.10583705 4.94547883 1.26387392 5.00921945 -1.578125 5.07421875 C-2.46978867 5.09093124 -3.36145233 5.10764374 -4.28013611 5.12486267 C-8.2840152 4.827212 -8.2840152 4.827212 -11.64453125 6.390625 C-11.88202229 9.97183914 -12.04077967 13.54618799 -12.16210938 17.1328125 C-12.33776958 21.00396563 -12.45250813 23.10259032 -14.64453125 26.390625 C-15.30453125 26.390625 -15.96453125 26.390625 -16.64453125 26.390625 C-16.7898688 22.807719 -16.87861056 19.22557083 -16.95703125 15.640625 C-16.99892578 14.62484375 -17.04082031 13.6090625 -17.08398438 12.5625 C-17.10009766 11.5828125 -17.11621094 10.603125 -17.1328125 9.59375 C-17.15899658 8.69301758 -17.18518066 7.79228516 -17.2121582 6.86425781 C-16.64453125 4.390625 -16.64453125 4.390625 -14.84179688 2.08984375 C-9.9765408 -0.49584518 -5.42428637 -0.10276165 0 0 Z " fill="#1C494A" transform="translate(16.64453125,-0.390625)"/>
<path d="M0 0 C0.08117951 2.41734542 0.14056926 4.83194949 0.1875 7.25 C0.21263672 7.93191406 0.23777344 8.61382812 0.26367188 9.31640625 C0.30722745 12.3072222 0.25217505 14.53918501 -1.19921875 17.19140625 C-3.54943789 19.55182157 -4.81326988 19.53325479 -8.10546875 19.609375 C-9.08837891 19.64160156 -10.07128906 19.67382812 -11.08398438 19.70703125 C-12.10814453 19.72121094 -13.13230469 19.73539063 -14.1875 19.75 C-15.22326172 19.77964844 -16.25902344 19.80929688 -17.32617188 19.83984375 C-19.88419312 19.91057245 -22.44130158 19.96325257 -25 20 C-25 20.66 -25 21.32 -25 22 C-29.89561315 20.46137872 -30.96523884 19.03476116 -35 15 C-26.42 14.67 -17.84 14.34 -9 14 C-10.65 12.35 -12.3 10.7 -14 9 C-14.06918114 5.54094288 -13.66163383 3.82704229 -11.5 1.125 C-7.72592959 -0.57333168 -4.07515329 -0.235105 0 0 Z M-9 5 C-9 6.32 -9 7.64 -9 9 C-7.68 9 -6.36 9 -5 9 C-4.67 7.35 -4.34 5.7 -4 4 C-6.9254644 3.7763932 -6.9254644 3.7763932 -9 5 Z " fill="#A97F57" transform="translate(64,11)"/>
<path d="M0 0 C0.33 0 0.66 0 1 0 C1.11601004 3.60389664 1.18718408 7.20731467 1.25 10.8125 C1.28351563 11.83666016 1.31703125 12.86082031 1.3515625 13.91601562 C1.36445312 14.89892578 1.37734375 15.88183594 1.390625 16.89453125 C1.41157227 17.80050049 1.43251953 18.70646973 1.45410156 19.63989258 C1 22 1 22 -0.72460938 23.6262207 C-3.36651685 25.22128651 -4.79841361 25.36474937 -7.86035156 25.34057617 C-8.82104553 25.34034958 -9.7817395 25.34012299 -10.77154541 25.33988953 C-11.80084167 25.32440567 -12.83013794 25.30892181 -13.890625 25.29296875 C-15.48025055 25.28660149 -15.48025055 25.28660149 -17.10198975 25.28010559 C-20.48491887 25.2633203 -23.86725109 25.22566755 -27.25 25.1875 C-29.54426223 25.17245301 -31.8385338 25.15876463 -34.1328125 25.14648438 C-39.7554118 25.11341728 -45.37766325 25.06321903 -51 25 C-51 24.34 -51 23.68 -51 23 C-34.83 22.67 -18.66 22.34 -2 22 C-1.67 15.07 -1.34 8.14 -1 1 C-0.67 0.67 -0.34 0.34 0 0 Z " fill="#1F5351" transform="translate(69,32)"/>
<path d="M0 0 C0.66 0 1.32 0 2 0 C2.33 5.61 2.66 11.22 3 17 C5.31 17.33 7.62 17.66 10 18 C10 18.66 10 19.32 10 20 C6.93786556 20.20878189 4.64518329 20.28572403 1.8125 19.03125 C-1.06414721 15.80742123 -0.42734711 12.46992549 -0.25 8.3125 C-0.23195313 7.51521484 -0.21390625 6.71792969 -0.1953125 5.89648438 C-0.14822247 3.93047551 -0.07647899 1.96508506 0 0 Z " fill="#D8AB80" transform="translate(0,37)"/>
<path d="M0 0 C0.66 0 1.32 0 2 0 C2 5.61 2 11.22 2 17 C1.01 16.67 0.02 16.34 -1 16 C-1.02685095 13.52076199 -1.04676547 11.0418116 -1.0625 8.5625 C-1.07506836 7.50192383 -1.07506836 7.50192383 -1.08789062 6.41992188 C-1.09653588 4.61306441 -1.05220011 2.80612397 -1 1 C-0.67 0.67 -0.34 0.34 0 0 Z " fill="#173A3E" transform="translate(62,32)"/>
<path d="M0 0 C3.11223413 -0.21219778 5.35039185 -0.31552396 8.1875 1.0625 C10 3 10 3 10.390625 6.35546875 C10.32101563 8.25232422 10.32101563 8.25232422 10.25 10.1875 C10.21390625 11.45980469 10.1778125 12.73210938 10.140625 14.04296875 C10.07101563 15.50669922 10.07101563 15.50669922 10 17 C9.34 17 8.68 17 8 17 C7.67 12.38 7.34 7.76 7 3 C4.69 2.67 2.38 2.34 0 2 C0 1.34 0 0.68 0 0 Z " fill="#A97F58" transform="translate(60,0)"/>
<path d="M0 0 C5.75 -0.125 5.75 -0.125 8 1 C7.67 1.99 7.34 2.98 7 4 C4.69 3.34 2.38 2.68 0 2 C0 1.34 0 0.68 0 0 Z " fill="#D0A378" transform="translate(60,0)"/>
<path d="M0 0 C0.99 0 1.98 0 3 0 C3 0.66 3 1.32 3 2 C2.01 2 1.02 2 0 2 C0 1.34 0 0.68 0 0 Z " fill="#1C4546" transform="translate(38,50)"/>
<path d="M0 0 C0.99 0 1.98 0 3 0 C3 0.66 3 1.32 3 2 C2.01 2 1.02 2 0 2 C0 1.34 0 0.68 0 0 Z " fill="#1E4E4D" transform="translate(25,50)"/>
<path d="M0 0 C0.66 0 1.32 0 2 0 C2 0.66 2 1.32 2 2 C1.34 2 0.68 2 0 2 C0 1.34 0 0.68 0 0 Z " fill="#1B4445" transform="translate(42,50)"/>
<path d="M0 0 C0.66 0 1.32 0 2 0 C2 0.66 2 1.32 2 2 C1.34 2 0.68 2 0 2 C0 1.34 0 0.68 0 0 Z " fill="#1D494A" transform="translate(32,50)"/>
<path d="M0 0 C0.66 0 1.32 0 2 0 C2 0.66 2 1.32 2 2 C1.34 2 0.68 2 0 2 C0 1.34 0 0.68 0 0 Z " fill="#1E504F" transform="translate(22,50)"/>
</svg>
