<svg width="36" height="31" viewBox="0 0 36 31" fill="none" xmlns="http://www.w3.org/2000/svg">
<path d="M19.5529 21.0929C18.9025 21.2185 18.3111 21.0929 17.779 20.7159C17.7272 20.6789 17.6016 20.6937 17.5424 20.7233C16.3598 21.3885 15.5837 21.285 14.5784 20.2946C14.061 20.5607 13.4919 20.7085 12.9301 20.4942C12.5532 20.3463 12.2427 20.3537 11.8658 20.4942C11.1784 20.7381 10.5279 20.5459 9.9366 20.0876C9.38963 21.0855 8.73179 21.9724 7.91133 22.7338C7.63046 22.9925 7.34958 23.2512 7.03914 23.4655C6.79522 23.6355 6.69913 23.8129 6.70652 24.116C6.72869 25.0473 6.73609 25.986 6.70652 26.9247C6.68435 27.5678 6.77304 28.1813 7.01696 28.78C7.10566 28.9944 7.17218 29.2161 7.23871 29.4378C7.3274 29.7631 7.16479 29.9996 6.83217 30.007C5.55345 30.0144 4.26733 30.007 2.9886 30.007C2.7299 30.007 2.5599 29.8518 2.56729 29.5931C2.66338 27.1613 1.89467 24.8551 1.56205 22.4825C1.49553 21.9946 1.54727 21.5437 1.76901 21.1076C2.11641 20.4128 2.45642 19.7254 2.80382 19.038C2.93686 18.7793 2.94426 18.6093 2.70034 18.358C2.41946 18.0697 2.26424 17.6484 2.05728 17.2789C1.99075 17.168 1.96119 17.0128 1.8651 16.9388C0.882033 16.1923 0.660288 15.3127 1.16291 14.167C1.1703 14.1449 1.16291 14.1227 1.10378 14.1375C0.882033 13.7605 0.586374 13.3983 0.438544 12.9918C0.142885 12.1492 0.490284 11.24 1.22943 10.7004C1.54727 10.4713 1.54727 10.1756 1.22943 9.94651C0.386804 9.34041 0.12071 8.32038 0.527242 7.36688C0.586374 7.23384 0.578982 7.03427 0.527242 6.89383C0.0985359 5.88119 0.445935 4.75769 1.37726 4.21811C2.32337 3.67114 3.48383 3.94463 4.13428 4.86117C4.20081 4.94987 4.31907 5.06074 4.40777 5.05335C5.09518 5.01639 5.67171 5.25292 6.16694 5.73337C6.91348 5.23814 7.6822 5.19379 8.4583 5.6151C9.79616 4.48421 10.6166 4.48421 11.8732 5.6151C12.9301 5.09031 13.8541 5.28248 14.6376 6.17685C15.4506 5.74815 16.2341 5.77032 16.9881 6.3099C17.0398 6.34686 17.1655 6.33947 17.2246 6.3099C18.119 5.69641 18.9986 5.76293 19.8781 6.3986C20.3512 6.02163 20.8834 5.83685 21.5043 5.88859C21.5782 5.88859 21.6817 5.79989 21.7334 5.72597C22.0217 5.29727 22.4134 5.01639 22.9013 4.84639C22.9973 4.80943 23.1008 4.70595 23.1378 4.60986C23.4926 3.64158 24.2095 3.12417 25.237 3.10939C25.3626 3.10939 25.5252 3.03547 25.6139 2.94678C26.0352 2.54025 26.4196 2.08197 26.8631 1.70501C27.4988 1.16543 28.2675 0.921511 29.1027 0.906728C29.7162 0.891945 30.3297 0.899337 30.9358 0.906728C31.8302 0.921511 32.3771 1.69023 32.1406 2.55503C32.111 2.6659 32.1628 2.8433 32.2367 2.93199C33.0128 3.80419 33.8185 4.64682 34.5872 5.5264C35.415 6.47251 35.5555 7.75863 35.0011 8.85996C34.5502 9.74694 33.6485 10.0352 32.7837 9.54737C32.1406 9.18519 31.5197 8.77126 30.7732 8.66039C30.3519 8.60126 29.9306 8.57169 29.4575 8.52734C29.354 9.38476 28.844 10.0869 28.8588 10.9518C28.8662 11.5726 28.5188 12.0605 28.0679 12.4227C28.1566 12.7627 28.2823 13.0657 28.3118 13.3835C28.3709 14.167 28.0457 14.7879 27.4101 15.261C27.314 15.3349 27.2179 15.4901 27.2179 15.601C27.2179 16.6654 26.7153 17.3897 25.7026 17.7593C25.6065 17.7963 25.5031 17.8997 25.4735 18.0032C25.3035 18.4763 25.03 18.8532 24.6235 19.1489C24.5348 19.2154 24.4535 19.3633 24.4535 19.4741C24.4461 22.2238 24.4461 24.9734 24.4535 27.7156C24.4535 27.8487 24.4904 27.9891 24.5274 28.1222C24.6678 28.5583 24.823 28.9944 24.9561 29.4378C25.0596 29.7631 24.9043 30.0218 24.5791 30.0218C23.2856 30.0366 21.9921 30.0292 20.6986 30.0218C20.4251 30.0218 20.2995 29.837 20.2847 29.5635C20.196 28.1739 20.1221 26.7769 20.0038 25.3873C19.8855 24.0051 19.7229 22.6303 19.5825 21.2555C19.5825 21.2111 19.5603 21.1668 19.5381 21.1076L19.5529 21.0929ZM2.33076 21.9724C3.06252 21.9724 3.72036 21.9724 4.3782 21.9724C4.48168 21.9724 4.59995 21.9133 4.68865 21.8468C5.54606 21.2407 6.26303 20.5015 6.87652 19.6441C6.99479 19.4815 6.98 19.3854 6.87652 19.1933C6.69174 18.8311 6.5513 18.4393 6.45521 18.0476C6.38869 17.7815 6.54391 17.5597 6.83957 17.545C7.11305 17.5302 7.2461 17.7076 7.27566 17.981C7.29045 18.1363 7.32001 18.3063 7.37914 18.4467C7.5935 18.9641 8.15525 19.2672 8.70222 19.1859C9.28615 19.0972 9.69268 18.6463 9.76659 18.0254C9.80355 17.6854 9.96616 17.5154 10.2175 17.5376C10.4762 17.5597 10.6388 17.7667 10.587 18.0993C10.5427 18.3802 10.4688 18.6685 10.3431 18.9198C10.247 19.1193 10.2766 19.2302 10.4097 19.3706C10.831 19.8141 11.4962 19.8954 12.0136 19.5111C12.2945 19.3041 12.5162 19.3041 12.7897 19.5111C13.1149 19.755 13.4845 19.7994 13.8763 19.6885C14.1276 19.6146 14.268 19.5185 14.2163 19.208C14.1571 18.8754 14.3271 18.6611 14.5858 18.6537C14.9037 18.6537 15.0145 18.8532 15.0367 19.1489C15.0885 19.6959 15.3767 20.0802 15.9015 20.2428C16.4337 20.4128 16.8772 20.2576 17.2394 19.8437C17.5572 19.4889 17.7568 19.4889 18.082 19.8437C18.4959 20.2946 19.0281 20.4128 19.5899 20.1689C20.0925 19.9472 20.3068 20.0876 20.3586 20.642C20.3955 21.0781 20.4473 21.5068 20.499 21.9503H21.9551C21.9551 21.5881 21.9108 21.2333 21.9625 20.9007C22.0512 20.3241 22.1251 19.7328 22.3321 19.1933C22.5465 18.6167 22.5612 18.1363 22.1695 17.641C22.0808 17.5302 22.0365 17.3306 22.0734 17.2049C22.1621 16.8797 22.5391 16.8354 22.7904 17.1089C23.1895 17.5302 23.3374 18.055 23.3521 18.6167C24.0543 18.6906 24.6456 18.225 24.7122 17.5302C24.7491 17.1606 24.8896 17.0054 25.2665 16.9758C25.9835 16.9241 26.4639 16.3106 26.3531 15.6158C26.0796 15.5936 25.8357 15.5049 25.8431 15.1797C25.8505 14.8545 26.087 14.7879 26.3752 14.7584C26.8631 14.7066 27.2179 14.4479 27.4027 13.9896C27.5875 13.5462 27.5209 13.1248 27.2253 12.7479C26.8409 12.2453 26.8631 12.1418 27.4027 11.8313C27.8609 11.5652 28.1196 11.0404 28.0309 10.5452C27.9349 10.0056 27.5135 9.59172 26.9592 9.51041C26.8779 9.49563 26.767 9.5252 26.7227 9.48085C26.597 9.35519 26.4048 9.19997 26.4122 9.05953C26.4122 8.92649 26.6192 8.77126 26.767 8.68257C26.8557 8.63083 27.0257 8.66039 27.1366 8.70474C27.5579 8.87474 27.9644 9.07431 28.3931 9.26649C28.3636 9.30345 28.3783 9.29606 28.3931 9.27388C28.4227 9.18519 28.4449 9.09649 28.4744 9.00779C28.9253 7.58863 28.9844 6.13251 28.9549 4.6616C28.9327 3.50853 29.7236 2.65851 30.8693 2.5772C31.1501 2.55503 31.3423 2.45894 31.3645 2.16328C31.3793 1.90458 31.1797 1.74197 30.8471 1.74197C30.2927 1.74197 29.7384 1.74197 29.184 1.74197C28.334 1.74197 27.6096 2.05241 27.0183 2.6659C26.6635 3.03548 26.3235 3.40505 25.9835 3.78201C25.8135 3.9668 25.6361 4.04072 25.37 3.98898C24.6309 3.84854 23.973 4.34377 23.8991 5.09031C23.8621 5.4451 23.7217 5.60032 23.3669 5.62988C22.9604 5.65945 22.6278 5.85163 22.4134 6.23599C22.4725 6.28773 22.5095 6.32468 22.5539 6.36164C23.0417 6.76817 23.3152 7.29297 23.3152 7.92124C23.3152 8.06907 23.1747 8.26864 23.0491 8.34256C22.953 8.3943 22.7239 8.32777 22.6278 8.23908C22.5391 8.15777 22.5243 7.97298 22.5021 7.82515C22.4134 7.21905 21.933 6.76078 21.3417 6.72382C20.7282 6.68687 20.1886 7.08601 20.0408 7.69211C20.0186 7.78081 20.0186 7.87689 20.0038 7.96559C19.9742 8.2169 19.8338 8.37952 19.5751 8.37212C19.3016 8.36473 19.1612 8.17994 19.1759 7.90646C19.1907 7.6995 19.2277 7.49254 19.2942 7.30036C19.3533 7.12296 19.309 7.02687 19.1612 6.93078C18.6659 6.59817 18.0007 6.66469 17.5794 7.10079C17.1063 7.58863 17.0694 7.58863 16.6111 7.11557C16.2341 6.73122 15.7906 6.62773 15.2806 6.79774C15.0811 6.86426 14.948 6.95296 14.9998 7.21905C15.0589 7.58123 14.9111 7.7882 14.645 7.81776C14.3863 7.84733 14.231 7.66993 14.1793 7.30036C14.1128 6.77556 13.8319 6.3986 13.3293 6.22859C12.5384 5.9625 11.7919 6.4799 11.6958 7.37427C11.6662 7.64037 11.5479 7.82515 11.2671 7.81776C10.9714 7.81037 10.8236 7.60341 10.8679 7.32253C10.9123 7.02687 10.9714 6.72382 11.1045 6.46512C11.2153 6.23599 11.171 6.11033 11.0158 5.9625C10.4023 5.37118 9.44876 5.54858 9.04223 6.33208C8.82048 6.76078 8.60613 6.80513 8.22916 6.4873C7.52697 5.90337 6.58086 6.1325 6.22607 6.96774C6.04868 7.38906 5.95259 7.43341 5.51649 7.32253C4.83648 7.14514 4.25994 7.45558 4.00863 8.14299C4.11211 8.18734 4.22298 8.22429 4.32646 8.26864C5.10257 8.62343 5.51649 9.22954 5.59041 10.0648C5.61258 10.3456 5.50171 10.56 5.20605 10.5748C4.91039 10.597 4.78473 10.4048 4.76256 10.1165C4.68125 9.32562 4.0382 8.80822 3.31383 8.93388C2.5599 9.06692 2.1238 9.7765 2.33815 10.5526C2.42685 10.8778 2.33815 11.0922 2.02032 11.2031C1.50292 11.3878 1.19987 11.7648 1.16291 12.3118C1.12595 12.8735 1.40683 13.2727 1.90945 13.5314C2.3012 13.7236 2.33815 13.9601 2.05728 14.3001C1.46596 15.0023 1.64336 15.8893 2.45642 16.2884C2.70034 16.4067 2.82599 16.5619 2.82599 16.8502C2.82599 17.2715 3.00339 17.641 3.36557 17.8332C3.77949 18.055 3.85341 18.358 3.73514 18.7572C3.66123 19.0011 3.58732 19.245 3.48383 19.4667C3.17339 20.1098 2.84817 20.7455 2.53033 21.3885C2.44903 21.5511 2.39729 21.7285 2.30859 21.9503L2.33076 21.9724ZM34.4468 7.92863C34.4689 7.81037 34.4911 7.73646 34.4985 7.65515C34.5428 6.98252 34.3137 6.41338 33.8554 5.92554C33.1754 5.1864 32.4954 4.45464 31.8228 3.7081C31.601 3.45679 31.4088 3.31635 31.0171 3.37548C30.1966 3.50114 29.7901 3.90767 29.7827 4.74291C29.7753 5.54858 29.7384 6.35425 29.7088 7.15992C29.7088 7.33732 29.6719 7.51471 29.6423 7.72906C30.9875 7.65515 32.1184 8.1282 33.1902 8.80083C33.2567 8.84518 33.3306 8.87474 33.4119 8.89692C33.6632 8.97083 33.885 8.9117 34.0698 8.68996C33.8702 8.54952 33.6706 8.43126 33.4859 8.29082C33.3011 8.14299 33.2419 7.95081 33.375 7.74385C33.5154 7.5221 33.715 7.48515 33.9441 7.6108C34.0993 7.6995 34.2472 7.80298 34.432 7.92124L34.4468 7.92863ZM5.60519 6.42816C5.31692 5.99207 4.85126 5.81467 4.34864 5.93294C3.81645 6.05859 3.7721 6.03642 3.56514 5.55597C3.35818 5.09031 3.00339 4.82421 2.50077 4.79465C1.99815 4.75769 1.59901 4.97204 1.3477 5.41553C1.08899 5.86641 1.10378 6.33208 1.41422 6.746C1.63596 7.03427 1.62118 7.25601 1.41422 7.54428C1.0003 8.10603 1.14073 8.84518 1.6951 9.21475C1.97597 8.7417 2.35294 8.37952 2.88512 8.22429C3.09209 8.16516 3.166 8.0469 3.23252 7.86211C3.49123 7.11557 4.01602 6.64991 4.79213 6.49469C5.04344 6.44295 5.30953 6.45034 5.60519 6.42816ZM2.46381 22.8151C2.75208 24.3969 3.03295 25.9491 3.31383 27.4939H4.19342V22.8151H2.46381ZM21.933 27.5013V22.8299H20.5951C20.7577 24.4042 20.9203 25.9417 21.0903 27.5013H21.933ZM5.073 22.8151V27.4865H5.87867C5.87867 26.3039 5.90085 25.1508 5.87128 23.9977C5.8565 23.5025 5.9452 23.1181 6.41825 22.8816C6.42564 22.8816 6.42564 22.8446 6.43303 22.8077H5.073V22.8151ZM23.5961 27.4939V22.8225H22.8052V27.4939H23.5961ZM5.95259 21.9651C6.44043 21.9651 6.93566 21.9651 7.42349 21.9651C7.46784 21.9651 7.51958 21.9429 7.54176 21.9133C8.1109 21.3442 8.59874 20.7159 8.9831 20.0433C8.53961 20.0063 8.11829 19.9767 7.73393 19.9398C7.15001 20.605 6.55869 21.2776 5.95259 21.9651ZM23.5961 21.9503V19.5037C23.1673 19.3337 22.9826 19.5554 22.9382 19.9102C22.8569 20.5755 22.7978 21.2481 22.7313 21.9429H23.6034L23.5961 21.9503ZM3.40253 29.157H4.59995C4.50386 28.8687 4.41516 28.6174 4.33385 28.3735H3.39514V29.157H3.40253ZM21.1421 29.157H22.3469C22.2508 28.8687 22.1621 28.6026 22.0808 28.3587H21.1421V29.157ZM6.00433 28.3513H5.22822C5.32431 28.6396 5.41301 28.9057 5.49432 29.1496H6.27781C6.18172 28.8613 6.09303 28.61 6.01172 28.3513H6.00433ZM24.0174 29.157C23.9213 28.8687 23.8326 28.6026 23.7513 28.3587H22.9678C23.0639 28.6396 23.1526 28.8983 23.2339 29.157H24.01H24.0174Z" fill="white"/>
<path d="M2.32321 21.9725C2.4119 21.7507 2.46364 21.5733 2.54495 21.4107C2.86278 20.7677 3.18801 20.132 3.49845 19.4889C3.60932 19.2598 3.68324 19.0159 3.74976 18.7793C3.86803 18.3802 3.79411 18.0772 3.38019 17.8554C3.01061 17.6632 2.84061 17.2863 2.84061 16.8723C2.84061 16.5915 2.72235 16.4362 2.47104 16.3106C1.65797 15.9115 1.48058 15.0245 2.0719 14.3223C2.35277 13.9897 2.31581 13.7457 1.92407 13.5536C1.42144 13.3023 1.14796 12.9031 1.17753 12.334C1.20709 11.787 1.51014 11.4174 2.03494 11.2253C2.36016 11.107 2.44147 10.9 2.35277 10.5748C2.13842 9.7987 2.57452 9.08912 3.32845 8.95607C4.05281 8.83042 4.69587 9.34782 4.77718 10.1387C4.80674 10.4196 4.9324 10.6192 5.22067 10.597C5.51633 10.5748 5.6272 10.3605 5.60502 10.087C5.53111 9.24434 5.10979 8.63824 4.34108 8.29084C4.2376 8.24649 4.13412 8.20214 4.02325 8.16518C4.27456 7.47777 4.85109 7.16733 5.53111 7.34473C5.96721 7.4556 6.06329 7.41125 6.24069 6.98994C6.59548 6.1547 7.54159 5.92556 8.24378 6.50949C8.62075 6.81993 8.82771 6.78298 9.05684 6.35427C9.47077 5.57077 10.4169 5.39338 11.0304 5.9847C11.1856 6.13992 11.2299 6.26557 11.1191 6.48732C10.986 6.74602 10.9269 7.04907 10.8825 7.34473C10.8382 7.6256 10.986 7.83257 11.2817 7.83996C11.5552 7.84735 11.6808 7.66995 11.7104 7.39647C11.8065 6.50949 12.553 5.9847 13.3439 6.25079C13.8539 6.42079 14.1274 6.79776 14.1939 7.32255C14.2457 7.69213 14.3935 7.86952 14.6596 7.83996C14.9257 7.81039 15.0735 7.60343 15.0144 7.24125C14.97 6.97515 15.1031 6.88646 15.2953 6.81993C15.8053 6.64993 16.2561 6.75341 16.6257 7.13777C17.084 7.60343 17.1209 7.61082 17.594 7.12298C18.0153 6.68689 18.6879 6.62036 19.1758 6.95298C19.3236 7.04907 19.368 7.14516 19.3088 7.32255C19.2423 7.51473 19.2053 7.72169 19.1906 7.92866C19.1684 8.20214 19.3088 8.37954 19.5897 8.39432C19.8484 8.40171 19.9888 8.24649 20.0184 7.98779C20.0258 7.89909 20.0332 7.803 20.0554 7.7143C20.2032 7.10081 20.7354 6.70167 21.3563 6.74602C21.9476 6.78298 22.428 7.24125 22.5167 7.84735C22.5389 7.98779 22.5537 8.17257 22.6424 8.26127C22.7385 8.34997 22.9676 8.41649 23.0637 8.36475C23.1967 8.29084 23.3298 8.09127 23.3298 7.94344C23.3298 7.30777 23.0563 6.79037 22.5685 6.38384C22.5241 6.34688 22.4872 6.30992 22.428 6.25818C22.6424 5.87382 22.9676 5.68164 23.3815 5.65208C23.7363 5.62251 23.8768 5.46729 23.9137 5.1125C23.9876 4.36596 24.6455 3.87073 25.3846 4.01117C25.6507 4.06291 25.8281 3.989 25.9981 3.80421C26.3381 3.42724 26.6855 3.05767 27.0329 2.6881C27.6242 2.0746 28.3486 1.76416 29.1986 1.76416C29.753 1.76416 30.3074 1.76416 30.8617 1.76416C31.1943 1.76416 31.3939 1.92677 31.3791 2.18547C31.3569 2.48853 31.1648 2.57722 30.8839 2.5994C29.7382 2.6807 28.9399 3.53072 28.9695 4.6838C28.9991 6.1547 28.9399 7.61821 28.489 9.02999C28.4595 9.11868 28.4373 9.20738 28.4077 9.29608C28.4077 9.31086 28.3856 9.32565 28.4077 9.28869C27.979 9.09651 27.5651 8.90433 27.1512 8.72693C27.0403 8.68259 26.8703 8.65302 26.7816 8.70476C26.6338 8.79346 26.4342 8.94868 26.4268 9.08173C26.4268 9.21477 26.6116 9.37738 26.7373 9.50304C26.7816 9.54739 26.8925 9.51782 26.9738 9.53261C27.5208 9.61391 27.9495 10.0278 28.0456 10.5674C28.1343 11.0626 27.8756 11.5874 27.4173 11.8535C26.8703 12.164 26.8555 12.2675 27.2399 12.7701C27.5282 13.147 27.5947 13.5684 27.4173 14.0118C27.2325 14.4627 26.8777 14.7288 26.3899 14.7806C26.109 14.8101 25.8725 14.8766 25.8577 15.2019C25.8503 15.5271 26.0868 15.6232 26.3677 15.638C26.4786 16.3328 26.0055 16.9537 25.2811 16.998C24.9042 17.0202 24.7637 17.1828 24.7268 17.5524C24.6603 18.2546 24.0689 18.7202 23.3668 18.6389C23.352 18.0772 23.1967 17.5524 22.805 17.131C22.5537 16.8576 22.1767 16.9019 22.088 17.2271C22.0511 17.3602 22.1028 17.5598 22.1841 17.6632C22.5759 18.1585 22.5611 18.6389 22.3467 19.2154C22.1472 19.755 22.0658 20.3463 21.9772 20.9229C21.9254 21.2629 21.9698 21.6103 21.9698 21.9725H20.5136C20.4693 21.5364 20.4176 21.1003 20.3732 20.6642C20.3215 20.1098 20.1071 19.9694 19.6045 20.1911C19.0427 20.435 18.5032 20.3168 18.0966 19.8659C17.7714 19.5111 17.5718 19.5111 17.254 19.8659C16.8918 20.2724 16.4409 20.435 15.9161 20.265C15.3913 20.095 15.1031 19.7107 15.0513 19.1711C15.0218 18.8754 14.9183 18.6759 14.6005 18.6759C14.3418 18.6759 14.1717 18.8976 14.2309 19.2302C14.2826 19.5407 14.1348 19.6368 13.8909 19.7107C13.4991 19.8215 13.1295 19.7772 12.8043 19.5333C12.5308 19.3263 12.3091 19.3263 12.0282 19.5333C11.5108 19.9176 10.8456 19.8437 10.4243 19.3928C10.2912 19.2524 10.2543 19.1415 10.3577 18.942C10.4834 18.6907 10.5573 18.4024 10.6017 18.1215C10.6534 17.7963 10.4908 17.5819 10.2321 17.5598C9.98078 17.5376 9.81817 17.7076 9.78121 18.0476C9.71469 18.6685 9.30076 19.112 8.71684 19.2081C8.16987 19.2894 7.60811 18.9863 7.39376 18.4689C7.33463 18.3211 7.30506 18.1585 7.29028 18.0032C7.26072 17.7371 7.13506 17.5524 6.85418 17.5671C6.55852 17.5819 6.4033 17.7963 6.46983 18.0698C6.56592 18.4615 6.70635 18.8607 6.89114 19.2154C6.98723 19.4002 7.00201 19.4963 6.89114 19.6663C6.27765 20.5163 5.56067 21.2629 4.70326 21.869C4.61456 21.9281 4.4963 21.9946 4.39282 21.9946C3.73498 22.0094 3.07714 21.9946 2.34538 21.9946L2.32321 21.9725Z" fill="url(#paint0_linear_218_15477)"/>
<path d="M34.4466 7.92835C34.2618 7.81008 34.114 7.7066 33.9587 7.6179C33.7296 7.49225 33.53 7.52921 33.3896 7.75095C33.2565 7.95791 33.3157 8.15748 33.5005 8.29792C33.6779 8.43836 33.8774 8.55662 34.0844 8.69706C33.8996 8.9188 33.6779 8.97054 33.4265 8.90402C33.3526 8.88185 33.2713 8.85228 33.2048 8.80793C32.133 8.13531 31.0021 7.65486 29.6569 7.73617C29.6791 7.51442 29.716 7.34442 29.7234 7.16702C29.753 6.36135 29.7825 5.55568 29.7973 4.75001C29.8047 3.91477 30.2113 3.50824 31.0317 3.38258C31.4235 3.32345 31.6156 3.46389 31.8374 3.7152C32.5026 4.46174 33.19 5.20089 33.87 5.93265C34.3209 6.42048 34.5574 6.98963 34.5131 7.66225C34.5131 7.73617 34.4835 7.81008 34.4614 7.93574L34.4466 7.92835ZM31.66 5.18611C31.66 5.14176 31.66 5.09741 31.66 5.04567C31.6748 4.7574 31.5787 4.53566 31.2608 4.50609C30.9948 4.48392 30.8395 4.69088 30.8321 5.04567C30.8321 5.09002 30.8321 5.13437 30.8321 5.18611C30.8321 5.68133 30.9578 5.88091 31.2535 5.88091C31.5491 5.88091 31.6674 5.67394 31.6674 5.17871L31.66 5.18611Z" fill="url(#paint1_linear_218_15477)"/>
<path d="M5.60495 6.42796C5.30929 6.45013 5.0432 6.44274 4.79189 6.49448C4.01578 6.6497 3.49099 7.11537 3.23228 7.86191C3.16576 8.04669 3.09185 8.16496 2.88489 8.22409C2.3527 8.37931 1.97573 8.74149 1.69486 9.21455C1.1331 8.84497 1.00006 8.10582 1.41398 7.54407C1.62833 7.2558 1.64312 7.03406 1.41398 6.74579C1.10354 6.33187 1.08136 5.86621 1.34746 5.41533C1.59877 4.97923 1.99791 4.76487 2.50053 4.79444C3.00315 4.8314 3.35794 5.09749 3.5649 5.55576C3.77925 6.03621 3.8236 6.05838 4.3484 5.93273C4.84363 5.81447 5.30929 5.99186 5.60495 6.42796Z" fill="url(#paint2_linear_218_15477)"/>
<path d="M2.46362 22.8149H4.19323V27.4937H3.31364C3.03277 25.9489 2.75189 24.3967 2.46362 22.8149Z" fill="url(#paint3_linear_218_15477)"/>
<path d="M21.9328 27.5012H21.0901C20.9275 25.949 20.7649 24.4042 20.5949 22.8298H21.9328V27.5012Z" fill="url(#paint4_linear_218_15477)"/>
<path d="M5.07281 22.8149H6.43285C6.43285 22.8149 6.43285 22.8815 6.41806 22.8889C5.94501 23.118 5.85631 23.5097 5.87109 24.005C5.90066 25.158 5.87849 26.3111 5.87849 27.4937H5.07281V22.8223V22.8149Z" fill="url(#paint5_linear_218_15477)"/>
<path d="M23.6033 27.5012H22.8124V22.8298H23.6033V27.5012Z" fill="url(#paint6_linear_218_15477)"/>
<path d="M5.95975 21.9647C6.56585 21.2773 7.15717 20.6047 7.74109 19.9395C8.13284 19.969 8.55416 20.006 8.99025 20.0429C8.6059 20.7156 8.11806 21.3438 7.54892 21.913C7.51935 21.9425 7.46761 21.9647 7.43065 21.9647C6.94281 21.9647 6.44759 21.9647 5.95975 21.9647Z" fill="url(#paint7_linear_218_15477)"/>
<path d="M23.6032 21.9499H22.731C22.7975 21.2551 22.8566 20.5825 22.9379 19.9172C22.9823 19.5624 23.1671 19.3407 23.5958 19.5107V21.9573L23.6032 21.9499Z" fill="url(#paint8_linear_218_15477)"/>
<path d="M3.40231 29.1568V28.3733H4.34103C4.42234 28.6172 4.51104 28.8759 4.60712 29.1568H3.4097H3.40231Z" fill="url(#paint9_linear_218_15477)"/>
<path d="M21.1419 29.164V28.3657H22.0806C22.1619 28.6096 22.2506 28.8757 22.3467 29.164H21.1419Z" fill="url(#paint10_linear_218_15477)"/>
<path d="M5.99672 28.3586C6.08542 28.6173 6.16673 28.8687 6.26282 29.1569H5.47932C5.39801 28.913 5.30932 28.6469 5.21323 28.3586H5.98933H5.99672Z" fill="url(#paint11_linear_218_15477)"/>
<path d="M24.0098 29.164H23.2337C23.145 28.9053 23.0636 28.6466 22.9676 28.3657H23.7511C23.8324 28.617 23.9211 28.8757 24.0172 29.164H24.0098Z" fill="url(#paint12_linear_218_15477)"/>
<path d="M31.6599 5.18632C31.6599 5.68155 31.5416 5.88851 31.2459 5.88851C30.9503 5.88851 30.8246 5.68894 30.8246 5.19371C30.8246 5.14937 30.8246 5.10502 30.8246 5.05328C30.8246 4.69849 30.9872 4.48413 31.2533 4.5137C31.5712 4.54326 31.6672 4.76501 31.6525 5.05328C31.6525 5.09762 31.6525 5.14197 31.6525 5.19371L31.6599 5.18632Z" fill="url(#paint13_linear_218_15477)"/>
<defs>
<linearGradient id="paint0_linear_218_15477" x1="-0.913119" y1="12.9658" x2="31.3799" y2="12.9658" gradientUnits="userSpaceOnUse">
<stop stop-color="#24645E"/>
<stop offset="0.65" stop-color="#18383D"/>
<stop offset="1" stop-color="#17343B"/>
</linearGradient>
<linearGradient id="paint1_linear_218_15477" x1="29.3207" y1="6.44776" x2="34.5184" y2="6.44776" gradientUnits="userSpaceOnUse">
<stop stop-color="#24645E"/>
<stop offset="0.65" stop-color="#18383D"/>
<stop offset="1" stop-color="#17343B"/>
</linearGradient>
<linearGradient id="paint2_linear_218_15477" x1="0.856119" y1="7.23986" x2="5.60495" y2="7.23986" gradientUnits="userSpaceOnUse">
<stop stop-color="#24645E"/>
<stop offset="0.65" stop-color="#18383D"/>
<stop offset="1" stop-color="#17343B"/>
</linearGradient>
<linearGradient id="paint3_linear_218_15477" x1="2.34403" y1="25.4048" x2="4.19323" y2="25.4048" gradientUnits="userSpaceOnUse">
<stop stop-color="#24645E"/>
<stop offset="0.65" stop-color="#18383D"/>
<stop offset="1" stop-color="#17343B"/>
</linearGradient>
<linearGradient id="paint4_linear_218_15477" x1="20.5024" y1="25.4156" x2="21.9328" y2="25.4156" gradientUnits="userSpaceOnUse">
<stop stop-color="#24645E"/>
<stop offset="0.65" stop-color="#18383D"/>
<stop offset="1" stop-color="#17343B"/>
</linearGradient>
<linearGradient id="paint5_linear_218_15477" x1="4.97878" y1="25.4048" x2="6.43285" y2="25.4048" gradientUnits="userSpaceOnUse">
<stop stop-color="#24645E"/>
<stop offset="0.65" stop-color="#18383D"/>
<stop offset="1" stop-color="#17343B"/>
</linearGradient>
<linearGradient id="paint6_linear_218_15477" x1="22.7577" y1="25.4156" x2="23.6033" y2="25.4156" gradientUnits="userSpaceOnUse">
<stop stop-color="#24645E"/>
<stop offset="0.65" stop-color="#18383D"/>
<stop offset="1" stop-color="#17343B"/>
</linearGradient>
<linearGradient id="paint7_linear_218_15477" x1="5.7502" y1="21.0605" x2="8.99026" y2="21.0605" gradientUnits="userSpaceOnUse">
<stop stop-color="#24645E"/>
<stop offset="0.65" stop-color="#18383D"/>
<stop offset="1" stop-color="#17343B"/>
</linearGradient>
<linearGradient id="paint8_linear_218_15477" x1="22.6707" y1="20.8389" x2="23.6032" y2="20.8389" gradientUnits="userSpaceOnUse">
<stop stop-color="#24645E"/>
<stop offset="0.65" stop-color="#18383D"/>
<stop offset="1" stop-color="#17343B"/>
</linearGradient>
<linearGradient id="paint9_linear_218_15477" x1="3.31901" y1="28.807" x2="4.60712" y2="28.807" gradientUnits="userSpaceOnUse">
<stop stop-color="#24645E"/>
<stop offset="0.65" stop-color="#18383D"/>
<stop offset="1" stop-color="#17343B"/>
</linearGradient>
<linearGradient id="paint10_linear_218_15477" x1="21.0586" y1="28.8076" x2="22.3467" y2="28.8076" gradientUnits="userSpaceOnUse">
<stop stop-color="#24645E"/>
<stop offset="0.65" stop-color="#18383D"/>
<stop offset="1" stop-color="#17343B"/>
</linearGradient>
<linearGradient id="paint11_linear_218_15477" x1="5.14065" y1="28.8005" x2="6.26282" y2="28.8005" gradientUnits="userSpaceOnUse">
<stop stop-color="#24645E"/>
<stop offset="0.65" stop-color="#18383D"/>
<stop offset="1" stop-color="#17343B"/>
</linearGradient>
<linearGradient id="paint12_linear_218_15477" x1="22.895" y1="28.8076" x2="24.0172" y2="28.8076" gradientUnits="userSpaceOnUse">
<stop stop-color="#24645E"/>
<stop offset="0.65" stop-color="#18383D"/>
<stop offset="1" stop-color="#17343B"/>
</linearGradient>
<linearGradient id="paint13_linear_218_15477" x1="30.7669" y1="5.27348" x2="31.6599" y2="5.27348" gradientUnits="userSpaceOnUse">
<stop stop-color="#24645E"/>
<stop offset="0.65" stop-color="#18383D"/>
<stop offset="1" stop-color="#17343B"/>
</linearGradient>
</defs>
</svg>