<svg width="874" height="104" viewBox="0 0 874 104" fill="none" xmlns="http://www.w3.org/2000/svg">
<path fill-rule="evenodd" clip-rule="evenodd" d="M12.1005 -3.75C12.1005 -3.75 119.163 -9.3885 170.35 51C223.432 113.625 237.47 103.372 445.816 103.372L446.692 -42.75L0 -38.643L12.1005 -3.75ZM866.635 0.620995C866.635 0.620995 763.968 -12.1335 709.893 58.4047C675.543 103.219 684.183 103.372 441.973 103.372L442.468 -42.75L873.948 -38.643L866.635 0.620995Z" fill="#CB964C"/>
<path fill-rule="evenodd" clip-rule="evenodd" d="M46.6006 3.8147e-06C46.6006 3.8147e-06 143.242 2.18775 192.101 55.5C240.959 108.812 238.913 103.5 441.851 103.5V-42.75L48.1006 -39L46.6006 3.8147e-06ZM827.351 3.8147e-06C827.351 3.8147e-06 744.213 2.18775 695.351 55.5C646.488 108.812 644.786 103.5 441.851 103.5V-42.75L825.851 -39L827.351 3.8147e-06Z" fill="#DEDEDE"/>
<path d="M281.478 44.7572C283.326 44.7572 285.99 45.0249 289.47 45.5604L289.43 56.444C289.43 57.8362 289.684 58.8269 290.193 59.4159C290.728 59.9781 291.505 60.2593 292.522 60.2593H293.326C293.486 60.2593 293.593 60.3128 293.647 60.4199C293.7 60.5002 293.727 60.5805 293.727 60.6609V64.6769C293.727 64.7573 293.7 64.8376 293.647 64.9179C293.593 65.025 293.486 65.0785 293.326 65.0785H290.836C288.56 65.0785 286.82 64.3824 285.615 62.9902C284.41 61.5979 283.807 59.7104 283.807 57.3275V49.8576C282.87 49.6702 282.027 49.5765 281.277 49.5765C278.011 49.5765 276.378 51.4105 276.378 55.0785C276.378 56.6849 276.793 57.9567 277.623 58.8938C278.479 59.8041 279.698 60.2593 281.277 60.2593H283.366L281.197 65.0785H280.394C278.546 65.0785 276.873 64.6636 275.374 63.8336C273.874 63.0036 272.696 61.8255 271.84 60.2994C270.983 58.7733 270.554 57.0062 270.554 54.9982C270.554 53.0705 271.01 51.3302 271.92 49.7773C272.83 48.1976 274.102 46.966 275.735 46.0825C277.395 45.199 279.309 44.7572 281.478 44.7572ZM274.651 41.7451V36.6849H280.434V41.7451H274.651ZM282.683 41.7451V36.6849H288.466V41.7451H282.683ZM306.475 56.5243C306.475 57.1936 306.408 57.8898 306.274 58.6127C306.863 59.2552 307.533 59.697 308.282 59.938C309.032 60.1522 310.183 60.2593 311.736 60.2593C311.897 60.2593 312.004 60.3128 312.057 60.4199C312.111 60.5002 312.138 60.5805 312.138 60.6609V64.6769C312.138 64.7573 312.111 64.8376 312.057 64.9179C312.004 65.025 311.897 65.0785 311.736 65.0785C310.049 65.0518 308.697 64.8242 307.68 64.3958C306.662 63.9407 305.699 63.1508 304.788 62.0263C304.092 62.9902 303.209 63.7399 302.138 64.2753C301.094 64.8108 299.929 65.0785 298.644 65.0785H293.343C293.182 65.0785 293.075 65.025 293.021 64.9179C292.968 64.8376 292.941 64.7573 292.941 64.6769V60.6609C292.941 60.5805 292.968 60.5002 293.021 60.4199C293.075 60.3128 293.182 60.2593 293.343 60.2593H296.957C298.028 60.2593 298.938 59.8443 299.688 59.0143C300.464 58.1575 300.853 57.033 300.853 55.6408V44.7572H306.475V56.5243ZM295.391 73.673V68.6127H301.174V73.673H295.391ZM303.423 73.673V68.6127H309.206V73.673H303.423ZM316.114 73.673V68.6127H321.897V73.673H316.114ZM322.058 56.5243C322.058 57.3007 321.977 58.0504 321.817 58.7733C322.62 59.7639 323.919 60.2593 325.712 60.2593C325.873 60.2593 325.98 60.3128 326.034 60.4199C326.087 60.5002 326.114 60.5805 326.114 60.6609V64.6769C326.114 64.7573 326.087 64.8376 326.034 64.9179C325.98 65.025 325.873 65.0785 325.712 65.0785C324.829 65.0785 323.865 64.8644 322.821 64.436C321.777 64.0076 320.84 63.365 320.01 62.5083C318.564 64.2218 316.636 65.0785 314.226 65.0785H311.736C311.576 65.0785 311.469 65.025 311.415 64.9179C311.362 64.8376 311.335 64.7573 311.335 64.6769V60.6609C311.335 60.5805 311.362 60.5002 311.415 60.4199C311.469 60.3128 311.576 60.2593 311.736 60.2593H312.54C313.611 60.2593 314.521 59.8443 315.271 59.0143C316.047 58.1575 316.435 57.033 316.435 55.6408V45.1588H322.058V56.5243ZM338.831 56.5243C338.831 57.1936 338.764 57.8898 338.63 58.6127C339.219 59.2552 339.889 59.697 340.638 59.938C341.388 60.1522 342.539 60.2593 344.092 60.2593C344.253 60.2593 344.36 60.3128 344.414 60.4199C344.467 60.5002 344.494 60.5805 344.494 60.6609V64.6769C344.494 64.7573 344.467 64.8376 344.414 64.9179C344.36 65.025 344.253 65.0785 344.092 65.0785C342.405 65.0518 341.053 64.8242 340.036 64.3958C339.019 63.9407 338.055 63.1508 337.144 62.0263C336.448 62.9902 335.565 63.7399 334.494 64.2753C333.45 64.8108 332.285 65.0785 331 65.0785H325.699C325.538 65.0785 325.431 65.025 325.377 64.9179C325.324 64.8376 325.297 64.7573 325.297 64.6769V60.6609C325.297 60.5805 325.324 60.5002 325.377 60.4199C325.431 60.3128 325.538 60.2593 325.699 60.2593H329.313C330.384 60.2593 331.294 59.8443 332.044 59.0143C332.82 58.1575 333.209 57.033 333.209 55.6408V44.7572H338.831V56.5243ZM327.747 73.673V68.6127H333.53V73.673H327.747ZM335.779 73.673V68.6127H341.562V73.673H335.779ZM354.414 56.5243C354.414 57.3007 354.334 58.0504 354.173 58.7733C354.976 59.7639 356.275 60.2593 358.068 60.2593C358.229 60.2593 358.336 60.3128 358.39 60.4199C358.443 60.5002 358.47 60.5805 358.47 60.6609V64.6769C358.47 64.7573 358.443 64.8376 358.39 64.9179C358.336 65.025 358.229 65.0785 358.068 65.0785C357.185 65.0785 356.221 64.8644 355.177 64.436C354.133 64.0076 353.196 63.365 352.366 62.5083C350.92 64.2218 348.992 65.0785 346.583 65.0785H344.093C343.932 65.0785 343.825 65.025 343.771 64.9179C343.718 64.8376 343.691 64.7573 343.691 64.6769V60.6609C343.691 60.5805 343.718 60.5002 343.771 60.4199C343.825 60.3128 343.932 60.2593 344.093 60.2593H344.896C345.967 60.2593 346.877 59.8443 347.627 59.0143C348.403 58.1575 348.791 57.033 348.791 55.6408V34.3154H354.414V56.5243ZM358.055 65.0785C357.894 65.0785 357.787 65.025 357.733 64.9179C357.68 64.8376 357.653 64.7573 357.653 64.6769V60.6609C357.653 60.5805 357.68 60.5002 357.733 60.4199C357.787 60.3128 357.894 60.2593 358.055 60.2593H362.071V34.3154H367.653V65.0785H358.055ZM374.489 65.0785V34.3154H380.112V65.0785H374.489ZM421.258 60.2593C421.418 60.2593 421.525 60.3128 421.579 60.4199C421.633 60.5002 421.659 60.5805 421.659 60.6609V64.6769C421.659 64.7573 421.633 64.8376 421.579 64.9179C421.525 65.025 421.418 65.0785 421.258 65.0785H416.8V72.2272H404.792C401.392 72.2272 398.902 71.3436 397.322 69.5766C395.742 67.8095 394.952 65.5872 394.952 62.9099V55.0785H400.575V62.0263C400.575 65.6408 402.543 67.448 406.479 67.448H411.177V34.3154H416.8V60.2593H421.258ZM426.497 60.2593C426.658 60.2593 426.765 60.3128 426.819 60.4199C426.872 60.5002 426.899 60.5805 426.899 60.6609V64.6769C426.899 64.7573 426.872 64.8376 426.819 64.9179C426.765 65.025 426.658 65.0785 426.497 65.0785H421.277C421.116 65.0785 421.009 65.025 420.955 64.9179C420.902 64.8376 420.875 64.7573 420.875 64.6769V60.6609C420.875 60.5805 420.902 60.5002 420.955 60.4199C421.009 60.3128 421.116 60.2593 421.277 60.2593H426.497ZM431.714 60.2593C431.874 60.2593 431.981 60.3128 432.035 60.4199C432.088 60.5002 432.115 60.5805 432.115 60.6609V64.6769C432.115 64.7573 432.088 64.8376 432.035 64.9179C431.981 65.025 431.874 65.0785 431.714 65.0785H426.493C426.332 65.0785 426.225 65.025 426.171 64.9179C426.118 64.8376 426.091 64.7573 426.091 64.6769V60.6609C426.091 60.5805 426.118 60.5002 426.171 60.4199C426.225 60.3128 426.332 60.2593 426.493 60.2593H431.714ZM436.93 60.2593C437.09 60.2593 437.198 60.3128 437.251 60.4199C437.305 60.5002 437.331 60.5805 437.331 60.6609V64.6769C437.331 64.7573 437.305 64.8376 437.251 64.9179C437.198 65.025 437.09 65.0785 436.93 65.0785H431.709C431.548 65.0785 431.441 65.025 431.388 64.9179C431.334 64.8376 431.307 64.7573 431.307 64.6769V60.6609C431.307 60.5805 431.334 60.5002 431.388 60.4199C431.441 60.3128 431.548 60.2593 431.709 60.2593H436.93ZM442.146 60.2593C442.307 60.2593 442.414 60.3128 442.467 60.4199C442.521 60.5002 442.548 60.5805 442.548 60.6609V64.6769C442.548 64.7573 442.521 64.8376 442.467 64.9179C442.414 65.025 442.307 65.0785 442.146 65.0785H436.925C436.764 65.0785 436.657 65.025 436.604 64.9179C436.55 64.8376 436.524 64.7573 436.524 64.6769V60.6609C436.524 60.5805 436.55 60.5002 436.604 60.4199C436.657 60.3128 436.764 60.2593 436.925 60.2593H442.146ZM447.362 60.2593C447.523 60.2593 447.63 60.3128 447.683 60.4199C447.737 60.5002 447.764 60.5805 447.764 60.6609V64.6769C447.764 64.7573 447.737 64.8376 447.683 64.9179C447.63 65.025 447.523 65.0785 447.362 65.0785H442.141C441.981 65.0785 441.874 65.025 441.82 64.9179C441.766 64.8376 441.74 64.7573 441.74 64.6769V60.6609C441.74 60.5805 441.766 60.5002 441.82 60.4199C441.874 60.3128 441.981 60.2593 442.141 60.2593H447.362ZM452.578 60.2593C452.739 60.2593 452.846 60.3128 452.9 60.4199C452.953 60.5002 452.98 60.5805 452.98 60.6609V64.6769C452.98 64.7573 452.953 64.8376 452.9 64.9179C452.846 65.025 452.739 65.0785 452.578 65.0785H447.357C447.197 65.0785 447.09 65.025 447.036 64.9179C446.983 64.8376 446.956 64.7573 446.956 64.6769V60.6609C446.956 60.5805 446.983 60.5002 447.036 60.4199C447.09 60.3128 447.197 60.2593 447.357 60.2593H452.578ZM457.795 60.2593C457.955 60.2593 458.062 60.3128 458.116 60.4199C458.169 60.5002 458.196 60.5805 458.196 60.6609V64.6769C458.196 64.7573 458.169 64.8376 458.116 64.9179C458.062 65.025 457.955 65.0785 457.795 65.0785H452.574C452.413 65.0785 452.306 65.025 452.252 64.9179C452.199 64.8376 452.172 64.7573 452.172 64.6769V60.6609C452.172 60.5805 452.199 60.5002 452.252 60.4199C452.306 60.3128 452.413 60.2593 452.574 60.2593H457.795ZM463.011 60.2593C463.171 60.2593 463.279 60.3128 463.332 60.4199C463.386 60.5002 463.412 60.5805 463.412 60.6609V64.6769C463.412 64.7573 463.386 64.8376 463.332 64.9179C463.279 65.025 463.171 65.0785 463.011 65.0785H457.79C457.629 65.0785 457.522 65.025 457.469 64.9179C457.415 64.8376 457.388 64.7573 457.388 64.6769V60.6609C457.388 60.5805 457.415 60.5002 457.469 60.4199C457.522 60.3128 457.629 60.2593 457.79 60.2593H463.011ZM485.858 44.7572C488.133 44.7572 490.088 45.199 491.721 46.0825C493.381 46.966 494.639 48.1842 495.496 49.7371C496.353 51.29 496.781 53.0437 496.781 54.9982C496.781 57.5149 495.978 60.8751 494.372 65.0785H463.006C462.845 65.0785 462.738 65.025 462.685 64.9179C462.631 64.8376 462.604 64.7573 462.604 64.6769V60.6609C462.604 60.5805 462.631 60.5002 462.685 60.4199C462.738 60.3128 462.845 60.2593 463.006 60.2593H467.022V45.1588H472.645V49.3355C477.223 46.2833 481.627 44.7572 485.858 44.7572ZM484.854 49.6568C482.685 49.6568 480.61 50.0584 478.629 50.8616C476.647 51.6648 474.653 52.7626 472.645 54.1548V60.2593H490.155C490.69 58.4119 490.958 56.6849 490.958 55.0785C490.931 53.4453 490.369 52.1334 489.271 51.1428C488.174 50.1521 486.701 49.6568 484.854 49.6568ZM511.54 44.7572C513.387 44.7572 516.051 45.0249 519.532 45.5604V63.5123C519.532 66.0022 519.103 67.9969 518.247 69.4962C517.39 70.9956 516.212 72.1067 514.712 72.8296C513.24 73.5792 511.406 74.1281 509.21 74.4762L506.961 69.4561C508.621 69.2419 509.933 68.934 510.897 68.5324C511.888 68.1575 512.637 67.5819 513.146 66.8055C513.655 66.0558 513.909 65.025 513.909 63.7131V49.8576C512.972 49.6702 512.115 49.5765 511.339 49.5765C508.073 49.5765 506.439 51.4105 506.439 55.0785C506.439 56.6849 506.854 57.9567 507.684 58.8938C508.541 59.8041 509.759 60.2593 511.339 60.2593H513.106L510.937 65.0785H510.375C508.528 65.0785 506.854 64.6636 505.355 63.8336C503.882 63.0036 502.718 61.8255 501.861 60.2994C501.031 58.7733 500.616 57.0062 500.616 54.9982C500.616 53.0705 501.071 51.3302 501.981 49.7773C502.892 48.1976 504.164 46.966 505.797 46.0825C507.457 45.199 509.371 44.7572 511.54 44.7572ZM543.111 44.7572C544.959 44.7572 547.623 45.0249 551.103 45.5604L551.063 56.444C551.063 57.8362 551.318 58.8269 551.826 59.4159C552.362 59.9781 553.138 60.2593 554.156 60.2593H554.959C555.12 60.2593 555.227 60.3128 555.28 60.4199C555.334 60.5002 555.36 60.5805 555.36 60.6609V64.6769C555.36 64.7573 555.334 64.8376 555.28 64.9179C555.227 65.025 555.12 65.0785 554.959 65.0785H552.469C550.193 65.0785 548.453 64.3824 547.248 62.9902C546.043 61.5979 545.441 59.7104 545.441 57.3275V49.8576C544.504 49.6702 543.66 49.5765 542.911 49.5765C539.644 49.5765 538.011 51.4105 538.011 55.0785C538.011 56.6849 538.426 57.9567 539.256 58.8938C540.113 59.8041 541.331 60.2593 542.911 60.2593H544.999L542.83 65.0785H542.027C540.18 65.0785 538.506 64.6636 537.007 63.8336C535.508 63.0036 534.33 61.8255 533.473 60.2994C532.616 58.7733 532.188 57.0062 532.188 54.9982C532.188 53.0705 532.643 51.3302 533.553 49.7773C534.464 48.1976 535.735 46.966 537.368 46.0825C539.028 45.199 540.943 44.7572 543.111 44.7572ZM536.284 41.7451V36.6849H542.067V41.7451H536.284ZM544.316 41.7451V36.6849H550.099V41.7451H544.316ZM577.827 44.7572C580.103 44.7572 582.058 45.199 583.691 46.0825C585.351 46.966 586.609 48.1842 587.466 49.7371C588.323 51.29 588.751 53.0437 588.751 54.9982C588.751 56.5243 588.51 57.8898 588.028 59.0946C588.858 59.871 590.063 60.2593 591.643 60.2593C591.803 60.2593 591.91 60.3128 591.964 60.4199C592.017 60.5002 592.044 60.5805 592.044 60.6609V64.6769C592.044 64.7573 592.017 64.8376 591.964 64.9179C591.91 65.025 591.803 65.0785 591.643 65.0785C590.732 65.0785 589.742 64.8644 588.671 64.436C587.627 63.9808 586.689 63.3115 585.859 62.4279C584.012 64.195 581.723 65.0785 578.992 65.0785H554.976C554.815 65.0785 554.708 65.025 554.655 64.9179C554.601 64.8376 554.574 64.7573 554.574 64.6769V60.6609C554.574 60.5805 554.601 60.5002 554.655 60.4199C554.708 60.3128 554.815 60.2593 554.976 60.2593H558.992V45.1588H564.614V49.3757C569.246 46.2967 573.651 44.7572 577.827 44.7572ZM576.823 49.6568C574.494 49.6568 572.379 50.045 570.478 50.8215C568.604 51.5979 566.649 52.709 564.614 54.1548V60.2593H578.028C579.608 60.2593 580.813 59.8041 581.643 58.8938C582.499 57.9567 582.928 56.6849 582.928 55.0785C582.901 53.4453 582.339 52.1334 581.241 51.1428C580.143 50.1521 578.671 49.6568 576.823 49.6568ZM596.265 41.7451V36.6849H602.048V41.7451H596.265ZM601.967 56.5243C601.967 57.3007 601.887 58.0504 601.726 58.7733C602.53 59.7639 603.828 60.2593 605.622 60.2593C605.783 60.2593 605.89 60.3128 605.943 60.4199C605.997 60.5002 606.024 60.5805 606.024 60.6609V64.6769C606.024 64.7573 605.997 64.8376 605.943 64.9179C605.89 65.025 605.783 65.0785 605.622 65.0785C604.738 65.0785 603.775 64.8644 602.73 64.436C601.686 64.0076 600.749 63.365 599.919 62.5083C598.473 64.2218 596.546 65.0785 594.136 65.0785H591.646C591.485 65.0785 591.378 65.025 591.325 64.9179C591.271 64.8376 591.244 64.7573 591.244 64.6769V60.6609C591.244 60.5805 591.271 60.5002 591.325 60.4199C591.378 60.3128 591.485 60.2593 591.646 60.2593H592.449C593.52 60.2593 594.431 59.8443 595.18 59.0143C595.957 58.1575 596.345 57.033 596.345 55.6408V45.1588H601.967V56.5243ZM616.01 44.7572C618.179 44.7572 620.079 45.199 621.713 46.0825C623.373 46.966 624.658 48.1976 625.568 49.7773C626.478 51.3302 626.934 53.0705 626.934 54.9982C626.934 57.5149 626.13 60.8751 624.524 65.0785H605.608C605.448 65.0785 605.34 65.025 605.287 64.9179C605.233 64.8376 605.207 64.7573 605.207 64.6769V60.6609C605.207 60.5805 605.233 60.5002 605.287 60.4199C605.34 60.3128 605.448 60.2593 605.608 60.2593H608.018V45.5604C611.498 45.0249 614.162 44.7572 616.01 44.7572ZM616.211 49.5765C615.381 49.5765 614.524 49.6702 613.64 49.8576V60.2593H620.307C620.843 58.4119 621.11 56.6849 621.11 55.0785C621.11 51.4105 619.477 49.5765 616.211 49.5765Z" fill="#2A6F75"/>
</svg>
